{
date = "2013-05-14 12:44:43 +0000";
designer = "Tyler Gaw";
designerURL = "http://tylergaw.com";
familyName = "Slenderman";
featurePrefixes = (
{
automatic = 1;
code = "languagesystem DFLT dflt;\012languagesystem latn dflt;\012";
name = Languagesystems;
}
);
fontMaster = (
{
ascender = 875;
capHeight = 500;
descender = "-200";
id = "204CD004-05F3-49D2-8673-0D9320CD8B89";
xHeight = 250;
}
);
glyphs = (
{
glyphname = A;
lastChange = "2013-05-19 19:43:17 +0000";
layers = (
{
anchors = (
{
name = ogonek;
position = "{262, 10}";
},
{
name = top;
position = "{142, 500}";
}
);
layerId = "204CD004-05F3-49D2-8673-0D9320CD8B89";
name = Regular;
paths = (
{
closed = 1;
nodes = (
"221 13 OFFCURVE",
"216 54 OFFCURVE",
"213 94 CURVE SMOOTH",
"211 111 OFFCURVE",
"210 125 OFFCURVE",
"210 135 CURVE SMOOTH",
"208 152 OFFCURVE",
"207 169 OFFCURVE",
"206 186 CURVE SMOOTH",
"202 244 OFFCURVE",
"198 304 OFFCURVE",
"201 364 CURVE SMOOTH",
"205 445 OFFCURVE",
"198 520 OFFCURVE",
"191 593 CURVE SMOOTH",
"185 658 OFFCURVE",
"178 725 OFFCURVE",
"180 798 CURVE SMOOTH",
"180 821 OFFCURVE",
"179 844 OFFCURVE",
"161 866 CURVE",
"130 803 OFFCURVE",
"119 738 OFFCURVE",
"112 676 CURVE SMOOTH",
"108 636 OFFCURVE",
"102 600 OFFCURVE",
"96 566 CURVE SMOOTH",
"86 503 OFFCURVE",
"76 444 OFFCURVE",
"76 373 CURVE SMOOTH",
"76 369 LINE SMOOTH",
"76 308 OFFCURVE",
"76 244 OFFCURVE",
"66 181 CURVE SMOOTH",
"62 156 OFFCURVE",
"59 130 OFFCURVE",
"57 101 CURVE SMOOTH",
"54 61 OFFCURVE",
"54 21 OFFCURVE",
"44 -16 CURVE",
"43 -16 OFFCURVE",
"30 -15 OFFCURVE",
"31 -12 CURVE SMOOTH",
"41 24 OFFCURVE",
"41 62 OFFCURVE",
"44 102 CURVE SMOOTH",
"46 131 OFFCURVE",
"48 158 OFFCURVE",
"53 183 CURVE SMOOTH",
"63 245 OFFCURVE",
"63 308 OFFCURVE",
"63 370 CURVE SMOOTH",
"63 373 LINE SMOOTH",
"63 445 OFFCURVE",
"73 505 OFFCURVE",
"83 568 CURVE SMOOTH",
"89 602 OFFCURVE",
"95 638 OFFCURVE",
"99 677 CURVE SMOOTH",
"106 743 OFFCURVE",
"118 813 OFFCURVE",
"154 880 CURVE SMOOTH",
"155 882 OFFCURVE",
"157 883 OFFCURVE",
"159 884 CURVE SMOOTH",
"161 884 OFFCURVE",
"163 883 OFFCURVE",
"164 882 CURVE SMOOTH",
"192 855 OFFCURVE",
"194 824 OFFCURVE",
"193 798 CURVE SMOOTH",
"192 726 OFFCURVE",
"198 659 OFFCURVE",
"204 594 CURVE SMOOTH",
"211 521 OFFCURVE",
"219 445 OFFCURVE",
"214 363 CURVE SMOOTH",
"211 305 OFFCURVE",
"215 245 OFFCURVE",
"219 187 CURVE SMOOTH",
"220 170 OFFCURVE",
"222 153 OFFCURVE",
"223 136 CURVE SMOOTH",
"223 126 OFFCURVE",
"224 112 OFFCURVE",
"226 96 CURVE SMOOTH",
"230 53 OFFCURVE",
"234 13 OFFCURVE",
"232 -15 CURVE",
"231 -17 OFFCURVE",
"218 -16 OFFCURVE",
"218 -14 CURVE"
);
},
{
closed = 1;
nodes = (
"206 361 OFFCURVE",
"206 361 OFFCURVE",
"206 361 CURVE SMOOTH",
"185 363 OFFCURVE",
"161 364 OFFCURVE",
"138 366 CURVE SMOOTH",
"114 368 OFFCURVE",
"90 369 OFFCURVE",
"69 371 CURVE SMOOTH",
"66 371 OFFCURVE",
"63 374 OFFCURVE",
"63 378 CURVE SMOOTH",
"63 381 OFFCURVE",
"67 384 OFFCURVE",
"70 384 CURVE SMOOTH",
"91 382 OFFCURVE",
"115 381 OFFCURVE",
"138 379 CURVE SMOOTH",
"162 378 OFFCURVE",
"186 376 OFFCURVE",
"207 374 CURVE SMOOTH",
"210 374 OFFCURVE",
"213 371 OFFCURVE",
"213 367 CURVE SMOOTH",
"213 364 OFFCURVE",
"210 361 OFFCURVE",
"206 361 CURVE SMOOTH"
);
}
);
width = 263;
}
);
unicode = 0041;
},
{
glyphname = B;
lastChange = "2013-05-19 19:43:42 +0000";
layers = (
{
layerId = "204CD004-05F3-49D2-8673-0D9320CD8B89";
name = Regular;
paths = (
{
closed = 1;
nodes = (
"80 -23 OFFCURVE",
"68 -21 OFFCURVE",
"55 -16 CURVE SMOOTH",
"53 -15 OFFCURVE",
"51 -13 OFFCURVE",
"51 -10 CURVE SMOOTH",
"50 11 OFFCURVE",
"49 246 OFFCURVE",
"62 350 CURVE SMOOTH",
"70 421 OFFCURVE",
"71 493 OFFCURVE",
"71 563 CURVE SMOOTH",
"71 587 OFFCURVE",
"72 611 OFFCURVE",
"72 635 CURVE SMOOTH",
"73 677 OFFCURVE",
"73 709 OFFCURVE",
"73 743 CURVE SMOOTH",
"73 762 OFFCURVE",
"72 783 OFFCURVE",
"73 807 CURVE SMOOTH",
"73 811 OFFCURVE",
"72 815 OFFCURVE",
"72 818 CURVE SMOOTH",
"72 837 OFFCURVE",
"72 857 OFFCURVE",
"82 875 CURVE SMOOTH",
"83 876 OFFCURVE",
"85 878 OFFCURVE",
"87 878 CURVE SMOOTH",
"126 885 OFFCURVE",
"150 883 OFFCURVE",
"167 870 CURVE SMOOTH",
"189 851 OFFCURVE",
"192 813 OFFCURVE",
"193 765 CURVE SMOOTH",
"195 713 OFFCURVE",
"192 671 OFFCURVE",
"188 626 CURVE SMOOTH",
"186 592 OFFCURVE",
"183 556 OFFCURVE",
"183 515 CURVE SMOOTH",
"183 501 OFFCURVE",
"183 487 OFFCURVE",
"184 474 CURVE SMOOTH",
"186 427 OFFCURVE",
"189 387 OFFCURVE",
"152 360 CURVE",
"157 357 OFFCURVE",
"162 354 OFFCURVE",
"166 350 CURVE SMOOTH",
"179 337 OFFCURVE",
"187 320 OFFCURVE",
"187 303 CURVE SMOOTH",
"187 290 OFFCURVE",
"187 277 OFFCURVE",
"187 266 CURVE SMOOTH",
"186 194 OFFCURVE",
"186 151 OFFCURVE",
"178 68 CURVE SMOOTH",
"176 43 OFFCURVE",
"172 -9 OFFCURVE",
"130 -18 CURVE SMOOTH",
"118 -20 OFFCURVE",
"105 -23 OFFCURVE",
"92 -23 CURVE SMOOTH"
);
},
{
closed = 1;
nodes = (
"85 -12 OFFCURVE",
"103 -10 OFFCURVE",
"128 -5 CURVE SMOOTH",
"156 1 OFFCURVE",
"162 36 OFFCURVE",
"165 69 CURVE SMOOTH",
"173 152 OFFCURVE",
"173 195 OFFCURVE",
"173 266 CURVE SMOOTH",
"174 277 OFFCURVE",
"174 290 OFFCURVE",
"174 303 CURVE SMOOTH",
"174 316 OFFCURVE",
"168 330 OFFCURVE",
"157 340 CURVE SMOOTH",
"151 346 OFFCURVE",
"144 351 OFFCURVE",
"137 353 CURVE",
"136 353 OFFCURVE",
"136 354 OFFCURVE",
"136 354 CURVE",
"129 356 OFFCURVE",
"123 357 OFFCURVE",
"116 357 CURVE SMOOTH",
"107 356 OFFCURVE",
"95 357 OFFCURVE",
"84 357 CURVE SMOOTH",
"81 357 OFFCURVE",
"78 357 OFFCURVE",
"75 357 CURVE",
"75 354 OFFCURVE",
"75 351 OFFCURVE",
"74 349 CURVE SMOOTH",
"62 250 OFFCURVE",
"63 33 OFFCURVE",
"64 -5 CURVE"
);
},
{
closed = 1;
nodes = (
"125 370 OFFCURVE",
"132 369 OFFCURVE",
"138 367 CURVE",
"175 389 OFFCURVE",
"173 426 OFFCURVE",
"171 473 CURVE SMOOTH",
"170 487 OFFCURVE",
"169 501 OFFCURVE",
"170 515 CURVE SMOOTH",
"170 556 OFFCURVE",
"173 592 OFFCURVE",
"175 627 CURVE SMOOTH",
"179 672 OFFCURVE",
"182 713 OFFCURVE",
"180 764 CURVE SMOOTH",
"179 816 OFFCURVE",
"175 846 OFFCURVE",
"158 860 CURVE SMOOTH",
"146 870 OFFCURVE",
"125 871 OFFCURVE",
"92 866 CURVE",
"85 851 OFFCURVE",
"85 835 OFFCURVE",
"85 819 CURVE SMOOTH",
"85 815 OFFCURVE",
"86 811 OFFCURVE",
"86 807 CURVE SMOOTH",
"85 783 OFFCURVE",
"86 762 OFFCURVE",
"86 743 CURVE SMOOTH",
"86 709 OFFCURVE",
"86 677 OFFCURVE",
"85 635 CURVE SMOOTH",
"85 611 OFFCURVE",
"84 586 OFFCURVE",
"84 563 CURVE SMOOTH",
"84 499 OFFCURVE",
"83 434 OFFCURVE",
"77 370 CURVE",
"79 370 OFFCURVE",
"82 370 OFFCURVE",
"84 370 CURVE SMOOTH",
"95 370 OFFCURVE",
"107 369 OFFCURVE",
"115 370 CURVE SMOOTH",
"116 370 OFFCURVE",
"117 370 OFFCURVE",
"118 370 CURVE SMOOTH"
);
}
);
width = 244;
}
);
unicode = 0042;
},
{
glyphname = C;
lastChange = "2013-05-19 18:20:02 +0000";
layers = (
{
anchors = (
{
name = bottom;
position = "{131, 0}";
},
{
name = top;
position = "{131, 500}";
}
);
layerId = "204CD004-05F3-49D2-8673-0D9320CD8B89";
name = Regular;
paths = (
{
closed = 1;
nodes = (
"79 -11 OFFCURVE",
"77 30 OFFCURVE",
"75 60 CURVE SMOOTH",
"75 64 OFFCURVE",
"75 68 OFFCURVE",
"75 72 CURVE SMOOTH",
"65 187 OFFCURVE",
"54 318 OFFCURVE",
"62 415 CURVE SMOOTH",
"66 474 OFFCURVE",
"66 529 OFFCURVE",
"66 582 CURVE SMOOTH",
"66 655 OFFCURVE",
"67 725 OFFCURVE",
"77 804 CURVE SMOOTH",
"78 810 OFFCURVE",
"78 816 OFFCURVE",
"79 823 CURVE SMOOTH",
"80 852 OFFCURVE",
"83 888 OFFCURVE",
"119 897 CURVE SMOOTH",
"120 897 OFFCURVE",
"121 897 OFFCURVE",
"121 897 CURVE SMOOTH",
"175 887 OFFCURVE",
"174 842 OFFCURVE",
"174 807 CURVE SMOOTH",
"174 802 OFFCURVE",
"173 798 OFFCURVE",
"173 794 CURVE SMOOTH",
"174 772 OFFCURVE",
"174 751 OFFCURVE",
"173 730 CURVE SMOOTH",
"173 702 LINE SMOOTH",
"173 698 OFFCURVE",
"171 695 OFFCURVE",
"167 695 CURVE SMOOTH",
"163 695 OFFCURVE",
"160 698 OFFCURVE",
"160 702 CURVE SMOOTH",
"160 730 LINE SMOOTH",
"160 751 OFFCURVE",
"160 772 OFFCURVE",
"160 794 CURVE SMOOTH",
"160 798 OFFCURVE",
"160 802 OFFCURVE",
"161 807 CURVE SMOOTH",
"161 842 OFFCURVE",
"162 875 OFFCURVE",
"121 884 CURVE",
"95 876 OFFCURVE",
"93 850 OFFCURVE",
"92 822 CURVE SMOOTH",
"91 816 OFFCURVE",
"91 809 OFFCURVE",
"90 802 CURVE SMOOTH",
"80 724 OFFCURVE",
"80 655 OFFCURVE",
"79 582 CURVE SMOOTH",
"79 528 OFFCURVE",
"79 473 OFFCURVE",
"75 414 CURVE SMOOTH",
"67 318 OFFCURVE",
"78 187 OFFCURVE",
"88 73 CURVE SMOOTH",
"88 69 OFFCURVE",
"88 65 OFFCURVE",
"88 60 CURVE SMOOTH",
"90 30 OFFCURVE",
"91 1 OFFCURVE",
"143 2 CURVE",
"181 9 OFFCURVE",
"182 48 OFFCURVE",
"179 111 CURVE SMOOTH",
"179 126 OFFCURVE",
"178 142 OFFCURVE",
"178 157 CURVE SMOOTH",
"178 161 OFFCURVE",
"181 164 OFFCURVE",
"185 164 CURVE SMOOTH",
"189 163 OFFCURVE",
"192 160 OFFCURVE",
"191 157 CURVE SMOOTH",
"191 142 OFFCURVE",
"192 126 OFFCURVE",
"192 111 CURVE SMOOTH",
"195 56 OFFCURVE",
"197 -2 OFFCURVE",
"145 -11 CURVE SMOOTH",
"144 -11 OFFCURVE",
"144 -11 OFFCURVE",
"144 -11 CURVE SMOOTH",
"142 -11 OFFCURVE",
"141 -11 OFFCURVE",
"139 -11 CURVE SMOOTH"
);
}
);
width = 239;
}
);
unicode = 0043;
},
{
glyphname = D;
lastChange = "2013-05-19 19:44:05 +0000";
layers = (
{
anchors = (
{
name = center;
position = "{118, 250}";
},
{
name = top;
position = "{118, 500}";
}
);
layerId = "204CD004-05F3-49D2-8673-0D9320CD8B89";
name = Regular;
paths = (
{
closed = 1;
nodes = (
"57 -13 OFFCURVE",
"56 -12 OFFCURVE",
"55 -11 CURVE SMOOTH",
"53 -10 OFFCURVE",
"52 -9 OFFCURVE",
"52 -7 CURVE SMOOTH",
"50 13 OFFCURVE",
"51 27 OFFCURVE",
"52 43 CURVE SMOOTH",
"52 54 OFFCURVE",
"53 65 OFFCURVE",
"53 79 CURVE SMOOTH",
"51 185 OFFCURVE",
"54 307 OFFCURVE",
"58 425 CURVE SMOOTH",
"60 486 OFFCURVE",
"61 543 OFFCURVE",
"62 596 CURVE SMOOTH",
"63 633 OFFCURVE",
"64 658 OFFCURVE",
"66 688 CURVE SMOOTH",
"67 704 OFFCURVE",
"68 721 OFFCURVE",
"69 741 CURVE SMOOTH",
"69 755 OFFCURVE",
"69 768 OFFCURVE",
"69 781 CURVE SMOOTH",
"69 809 OFFCURVE",
"69 838 OFFCURVE",
"75 868 CURVE SMOOTH",
"75 869 OFFCURVE",
"76 871 OFFCURVE",
"77 871 CURVE SMOOTH",
"81 876 OFFCURVE",
"88 878 OFFCURVE",
"97 878 CURVE SMOOTH",
"102 878 OFFCURVE",
"107 878 OFFCURVE",
"112 877 CURVE SMOOTH",
"114 877 OFFCURVE",
"116 876 OFFCURVE",
"118 876 CURVE SMOOTH",
"118 876 OFFCURVE",
"118 876 OFFCURVE",
"119 876 CURVE SMOOTH",
"164 866 OFFCURVE",
"187 834 OFFCURVE",
"193 774 CURVE SMOOTH",
"200 710 OFFCURVE",
"196 658 OFFCURVE",
"192 602 CURVE SMOOTH",
"190 571 OFFCURVE",
"188 539 OFFCURVE",
"187 504 CURVE SMOOTH",
"186 404 OFFCURVE",
"181 259 OFFCURVE",
"179 180 CURVE SMOOTH",
"178 171 OFFCURVE",
"178 161 OFFCURVE",
"178 152 CURVE SMOOTH",
"177 123 OFFCURVE",
"176 94 OFFCURVE",
"173 65 CURVE SMOOTH",
"171 45 OFFCURVE",
"168 40 OFFCURVE",
"158 28 CURVE SMOOTH",
"156 25 OFFCURVE",
"153 22 OFFCURVE",
"150 18 CURVE SMOOTH",
"134 -3 OFFCURVE",
"102 -7 OFFCURVE",
"76 -10 CURVE SMOOTH",
"70 -11 OFFCURVE",
"65 -12 OFFCURVE",
"60 -13 CURVE SMOOTH",
"59 -13 OFFCURVE",
"59 -13 OFFCURVE",
"59 -13 CURVE SMOOTH"
);
},
{
closed = 1;
nodes = (
"82 836 OFFCURVE",
"82 808 OFFCURVE",
"82 781 CURVE SMOOTH",
"82 768 OFFCURVE",
"82 754 OFFCURVE",
"82 741 CURVE SMOOTH",
"81 720 OFFCURVE",
"80 703 OFFCURVE",
"79 687 CURVE SMOOTH",
"77 658 OFFCURVE",
"76 632 OFFCURVE",
"75 596 CURVE SMOOTH",
"75 542 OFFCURVE",
"73 485 OFFCURVE",
"71 425 CURVE SMOOTH",
"68 307 OFFCURVE",
"64 185 OFFCURVE",
"66 80 CURVE SMOOTH",
"66 65 OFFCURVE",
"65 53 OFFCURVE",
"65 42 CURVE SMOOTH",
"64 29 OFFCURVE",
"64 17 OFFCURVE",
"65 1 CURVE",
"68 2 OFFCURVE",
"71 2 OFFCURVE",
"74 3 CURVE SMOOTH",
"98 5 OFFCURVE",
"127 9 OFFCURVE",
"140 26 CURVE SMOOTH",
"143 30 OFFCURVE",
"146 33 OFFCURVE",
"148 36 CURVE SMOOTH",
"157 47 OFFCURVE",
"159 49 OFFCURVE",
"160 66 CURVE SMOOTH",
"163 95 OFFCURVE",
"164 124 OFFCURVE",
"165 152 CURVE SMOOTH",
"165 162 OFFCURVE",
"165 171 OFFCURVE",
"166 181 CURVE SMOOTH",
"168 259 OFFCURVE",
"173 404 OFFCURVE",
"174 504 CURVE SMOOTH",
"175 540 OFFCURVE",
"177 572 OFFCURVE",
"179 603 CURVE SMOOTH",
"183 658 OFFCURVE",
"187 710 OFFCURVE",
"180 773 CURVE SMOOTH",
"174 827 OFFCURVE",
"155 854 OFFCURVE",
"116 863 CURVE",
"114 863 OFFCURVE",
"112 864 OFFCURVE",
"110 864 CURVE SMOOTH",
"105 865 OFFCURVE",
"101 865 OFFCURVE",
"97 865 CURVE SMOOTH",
"92 865 OFFCURVE",
"89 865 OFFCURVE",
"87 863 CURVE"
);
}
);
width = 247;
}
);
unicode = 0044;
},
{
glyphname = E;
lastChange = "2013-05-19 19:45:20 +0000";
layers = (
{
anchors = (
{
name = bottom;
position = "{120, 0}";
},
{
name = ogonek;
position = "{240, 10}";
},
{
name = top;
position = "{120, 500}";
}
);
layerId = "204CD004-05F3-49D2-8673-0D9320CD8B89";
name = Regular;
paths = (
{
closed = 1;
nodes = (
"55 -9 OFFCURVE",
"53 -9 OFFCURVE",
"52 -8 CURVE SMOOTH",
"50 -7 OFFCURVE",
"50 -4 OFFCURVE",
"50 -2 CURVE SMOOTH",
"61 152 OFFCURVE",
"60 301 OFFCURVE",
"60 446 CURVE SMOOTH",
"59 590 OFFCURVE",
"59 727 OFFCURVE",
"69 868 CURVE SMOOTH",
"69 871 OFFCURVE",
"72 874 OFFCURVE",
"75 874 CURVE SMOOTH",
"93 876 OFFCURVE",
"109 875 OFFCURVE",
"124 875 CURVE SMOOTH",
"148 875 OFFCURVE",
"168 874 OFFCURVE",
"189 880 CURVE SMOOTH",
"192 881 OFFCURVE",
"196 879 OFFCURVE",
"197 875 CURVE SMOOTH",
"198 872 OFFCURVE",
"196 868 OFFCURVE",
"192 867 CURVE SMOOTH",
"170 861 OFFCURVE",
"148 862 OFFCURVE",
"124 862 CURVE SMOOTH",
"110 862 OFFCURVE",
"97 862 OFFCURVE",
"82 862 CURVE",
"72 723 OFFCURVE",
"72 588 OFFCURVE",
"73 446 CURVE SMOOTH",
"73 304 OFFCURVE",
"74 157 OFFCURVE",
"63 7 CURVE",
"90 15 OFFCURVE",
"114 16 OFFCURVE",
"137 17 CURVE SMOOTH",
"155 18 OFFCURVE",
"172 18 OFFCURVE",
"189 23 CURVE SMOOTH",
"192 24 OFFCURVE",
"196 22 OFFCURVE",
"197 18 CURVE SMOOTH",
"198 15 OFFCURVE",
"196 11 OFFCURVE",
"192 10 CURVE SMOOTH",
"174 5 OFFCURVE",
"157 5 OFFCURVE",
"138 4 CURVE SMOOTH",
"113 3 OFFCURVE",
"87 2 OFFCURVE",
"58 -9 CURVE SMOOTH",
"58 -9 OFFCURVE",
"57 -9 OFFCURVE",
"56 -9 CURVE SMOOTH"
);
},
{
closed = 1;
nodes = (
"63 367 OFFCURVE",
"60 370 OFFCURVE",
"60 373 CURVE SMOOTH",
"60 377 OFFCURVE",
"62 380 OFFCURVE",
"66 380 CURVE SMOOTH",
"83 382 OFFCURVE",
"101 382 OFFCURVE",
"120 382 CURVE SMOOTH",
"121 382 OFFCURVE",
"122 382 OFFCURVE",
"122 382 CURVE SMOOTH",
"142 382 OFFCURVE",
"163 382 OFFCURVE",
"181 384 CURVE SMOOTH",
"184 384 OFFCURVE",
"188 381 OFFCURVE",
"188 378 CURVE SMOOTH",
"188 374 OFFCURVE",
"186 371 OFFCURVE",
"182 371 CURVE SMOOTH",
"163 369 OFFCURVE",
"143 369 OFFCURVE",
"122 369 CURVE SMOOTH",
"122 369 OFFCURVE",
"121 369 OFFCURVE",
"120 369 CURVE SMOOTH",
"101 369 OFFCURVE",
"83 369 OFFCURVE",
"67 367 CURVE SMOOTH",
"67 367 OFFCURVE",
"67 367 OFFCURVE",
"67 367 CURVE SMOOTH"
);
}
);
width = 247;
}
);
unicode = 0045;
},
{
glyphname = F;
lastChange = "2013-05-19 19:56:35 +0000";
layers = (
{
layerId = "204CD004-05F3-49D2-8673-0D9320CD8B89";
name = Regular;
paths = (
{
closed = 1;
nodes = (
"62 -15 OFFCURVE",
"61 -15 OFFCURVE",
"61 -15 CURVE SMOOTH",
"58 -15 OFFCURVE",
"55 -12 OFFCURVE",
"55 -9 CURVE SMOOTH",
"59 164 OFFCURVE",
"56 331 OFFCURVE",
"54 494 CURVE SMOOTH",
"52 614 OFFCURVE",
"50 738 OFFCURVE",
"50 865 CURVE SMOOTH",
"50 869 OFFCURVE",
"53 871 OFFCURVE",
"57 872 CURVE SMOOTH",
"181 879 LINE SMOOTH",
"185 879 OFFCURVE",
"188 876 OFFCURVE",
"188 873 CURVE SMOOTH",
"188 869 OFFCURVE",
"185 866 OFFCURVE",
"182 866 CURVE SMOOTH",
"63 859 LINE",
"63 734 OFFCURVE",
"65 612 OFFCURVE",
"67 494 CURVE SMOOTH",
"69 331 OFFCURVE",
"72 164 OFFCURVE",
"68 -9 CURVE SMOOTH",
"68 -13 OFFCURVE",
"65 -15 OFFCURVE",
"62 -15 CURVE SMOOTH"
);
},
{
closed = 1;
nodes = (
"62 381 OFFCURVE",
"59 384 OFFCURVE",
"58 387 CURVE SMOOTH",
"58 391 OFFCURVE",
"61 394 OFFCURVE",
"65 394 CURVE SMOOTH",
"80 395 OFFCURVE",
"94 395 OFFCURVE",
"108 395 CURVE SMOOTH",
"128 395 OFFCURVE",
"148 395 OFFCURVE",
"172 396 CURVE SMOOTH",
"175 397 OFFCURVE",
"178 394 OFFCURVE",
"179 390 CURVE SMOOTH",
"179 387 OFFCURVE",
"176 384 OFFCURVE",
"172 383 CURVE SMOOTH",
"149 382 OFFCURVE",
"128 382 OFFCURVE",
"109 382 CURVE SMOOTH",
"94 382 OFFCURVE",
"80 381 OFFCURVE",
"65 381 CURVE SMOOTH",
"65 381 OFFCURVE",
"65 381 OFFCURVE",
"65 381 CURVE SMOOTH"
);
}
);
width = 233;
}
);
unicode = 0046;
},
{
glyphname = G;
lastChange = "2013-05-19 18:20:29 +0000";
layers = (
{
anchors = (
{
name = bottom;
position = "{150, 0}";
},
{
name = top;
position = "{150, 500}";
}
);
layerId = "204CD004-05F3-49D2-8673-0D9320CD8B89";
name = Regular;
paths = (
{
closed = 1;
nodes = (
"118 -9 OFFCURVE",
"106 15 OFFCURVE",
"94 38 CURVE SMOOTH",
"92 43 OFFCURVE",
"89 48 OFFCURVE",
"87 53 CURVE SMOOTH",
"73 78 OFFCURVE",
"73 92 OFFCURVE",
"74 110 CURVE SMOOTH",
"74 118 OFFCURVE",
"74 126 OFFCURVE",
"74 136 CURVE SMOOTH",
"71 180 OFFCURVE",
"71 232 OFFCURVE",
"72 282 CURVE SMOOTH",
"72 321 OFFCURVE",
"73 359 OFFCURVE",
"72 392 CURVE SMOOTH",
"67 518 OFFCURVE",
"73 656 OFFCURVE",
"90 812 CURVE SMOOTH",
"91 813 OFFCURVE",
"90 815 OFFCURVE",
"90 816 CURVE SMOOTH",
"90 820 OFFCURVE",
"90 823 OFFCURVE",
"91 827 CURVE SMOOTH",
"92 830 OFFCURVE",
"93 834 OFFCURVE",
"94 837 CURVE SMOOTH",
"101 859 OFFCURVE",
"110 886 OFFCURVE",
"142 886 CURVE SMOOTH",
"142 886 OFFCURVE",
"143 886 OFFCURVE",
"143 886 CURVE SMOOTH",
"173 885 OFFCURVE",
"192 863 OFFCURVE",
"195 825 CURVE SMOOTH",
"196 815 OFFCURVE",
"198 804 OFFCURVE",
"200 794 CURVE SMOOTH",
"205 769 OFFCURVE",
"209 743 OFFCURVE",
"200 717 CURVE SMOOTH",
"198 713 OFFCURVE",
"195 712 OFFCURVE",
"191 713 CURVE SMOOTH",
"188 714 OFFCURVE",
"186 718 OFFCURVE",
"187 721 CURVE SMOOTH",
"196 744 OFFCURVE",
"192 767 OFFCURVE",
"187 791 CURVE SMOOTH",
"185 802 OFFCURVE",
"183 813 OFFCURVE",
"182 824 CURVE SMOOTH",
"181 842 OFFCURVE",
"174 872 OFFCURVE",
"143 873 CURVE SMOOTH",
"121 873 OFFCURVE",
"114 858 OFFCURVE",
"107 833 CURVE SMOOTH",
"106 829 OFFCURVE",
"104 826 OFFCURVE",
"103 823 CURVE SMOOTH",
"103 822 OFFCURVE",
"103 820 OFFCURVE",
"103 817 CURVE SMOOTH",
"103 815 OFFCURVE",
"104 813 OFFCURVE",
"103 810 CURVE SMOOTH",
"86 655 OFFCURVE",
"80 518 OFFCURVE",
"85 393 CURVE SMOOTH",
"86 359 OFFCURVE",
"85 321 OFFCURVE",
"85 282 CURVE SMOOTH",
"84 232 OFFCURVE",
"84 180 OFFCURVE",
"87 137 CURVE SMOOTH",
"87 126 OFFCURVE",
"87 118 OFFCURVE",
"87 110 CURVE SMOOTH",
"86 93 OFFCURVE",
"86 81 OFFCURVE",
"98 60 CURVE SMOOTH",
"101 54 OFFCURVE",
"104 49 OFFCURVE",
"106 44 CURVE SMOOTH",
"120 17 OFFCURVE",
"129 1 OFFCURVE",
"155 5 CURVE SMOOTH",
"180 8 OFFCURVE",
"194 26 OFFCURVE",
"202 67 CURVE SMOOTH",
"210 109 OFFCURVE",
"210 153 OFFCURVE",
"209 195 CURVE SMOOTH",
"208 233 OFFCURVE",
"208 274 OFFCURVE",
"214 312 CURVE",
"203 318 OFFCURVE",
"193 316 OFFCURVE",
"182 314 CURVE SMOOTH",
"173 312 OFFCURVE",
"164 310 OFFCURVE",
"154 312 CURVE SMOOTH",
"151 313 OFFCURVE",
"149 317 OFFCURVE",
"150 321 CURVE SMOOTH",
"151 324 OFFCURVE",
"155 326 OFFCURVE",
"158 325 CURVE SMOOTH",
"165 323 OFFCURVE",
"171 325 OFFCURVE",
"179 326 CURVE SMOOTH",
"192 329 OFFCURVE",
"208 333 OFFCURVE",
"225 321 CURVE SMOOTH",
"227 320 OFFCURVE",
"228 317 OFFCURVE",
"228 314 CURVE SMOOTH",
"221 275 OFFCURVE",
"221 236 OFFCURVE",
"222 195 CURVE SMOOTH",
"223 152 OFFCURVE",
"224 108 OFFCURVE",
"215 64 CURVE SMOOTH",
"208 31 OFFCURVE",
"196 -3 OFFCURVE",
"157 -8 CURVE SMOOTH",
"154 -9 OFFCURVE",
"151 -9 OFFCURVE",
"149 -9 CURVE SMOOTH"
);
}
);
width = 280;
}
);
unicode = 0047;
},
{
glyphname = H;
lastChange = "2013-05-19 18:20:36 +0000";
layers = (
{
anchors = (
{
name = center;
position = "{150, 250}";
},
{
name = top;
position = "{150, 500}";
}
);
layerId = "204CD004-05F3-49D2-8673-0D9320CD8B89";
name = Regular;
paths = (
{
closed = 1;
nodes = (
"187 22 OFFCURVE",
"190 35 OFFCURVE",
"188 63 CURVE SMOOTH",
"181 154 OFFCURVE",
"182 257 OFFCURVE",
"184 337 CURVE SMOOTH",
"184 359 LINE SMOOTH",
"186 439 OFFCURVE",
"185 537 OFFCURVE",
"190 616 CURVE SMOOTH",
"194 673 OFFCURVE",
"192 711 OFFCURVE",
"193 758 CURVE SMOOTH",
"193 774 OFFCURVE",
"193 791 OFFCURVE",
"194 810 CURVE SMOOTH",
"194 828 OFFCURVE",
"193 848 OFFCURVE",
"198 868 CURVE SMOOTH",
"199 871 OFFCURVE",
"213 868 OFFCURVE",
"212 864 CURVE SMOOTH",
"204 848 OFFCURVE",
"207 827 OFFCURVE",
"207 810 CURVE SMOOTH",
"206 791 OFFCURVE",
"206 774 OFFCURVE",
"206 758 CURVE SMOOTH",
"205 710 OFFCURVE",
"207 669 OFFCURVE",
"203 614 CURVE SMOOTH",
"198 536 OFFCURVE",
"199 439 OFFCURVE",
"197 359 CURVE SMOOTH",
"197 337 LINE SMOOTH",
"195 257 OFFCURVE",
"196 155 OFFCURVE",
"199 64 CURVE SMOOTH",
"200 37 OFFCURVE",
"201 25 OFFCURVE",
"201 -1 CURVE SMOOTH",
"201 -5 OFFCURVE",
"189 -5 OFFCURVE",
"188 -2 CURVE SMOOTH"
);
},
{
closed = 1;
nodes = (
"93 61 OFFCURVE",
"94 117 OFFCURVE",
"91 171 CURVE SMOOTH",
"88 223 OFFCURVE",
"91 277 OFFCURVE",
"91 337 CURVE SMOOTH",
"91 382 OFFCURVE",
"93 428 OFFCURVE",
"96 473 CURVE SMOOTH",
"100 537 OFFCURVE",
"94 709 OFFCURVE",
"96 729 CURVE SMOOTH",
"98 747 OFFCURVE",
"100 765 OFFCURVE",
"100 783 CURVE SMOOTH",
"99 801 OFFCURVE",
"102 856 OFFCURVE",
"105 873 CURVE",
"105 873 OFFCURVE",
"118 876 OFFCURVE",
"118 870 CURVE",
"115 855 OFFCURVE",
"112 800 OFFCURVE",
"113 783 CURVE SMOOTH",
"114 765 OFFCURVE",
"111 746 OFFCURVE",
"109 727 CURVE SMOOTH",
"107 708 OFFCURVE",
"113 536 OFFCURVE",
"109 472 CURVE SMOOTH",
"106 428 OFFCURVE",
"104 382 OFFCURVE",
"104 337 CURVE SMOOTH",
"104 277 OFFCURVE",
"101 224 OFFCURVE",
"104 171 CURVE SMOOTH",
"107 117 OFFCURVE",
"106 61 OFFCURVE",
"106 -1 CURVE SMOOTH",
"106 -5 OFFCURVE",
"93 -5 OFFCURVE",
"93 -1 CURVE SMOOTH"
);
},
{
closed = 1;
nodes = (
"102 326 OFFCURVE",
"99 328 OFFCURVE",
"99 332 CURVE SMOOTH",
"98 335 OFFCURVE",
"101 339 OFFCURVE",
"105 339 CURVE SMOOTH",
"183 343 LINE SMOOTH",
"186 344 OFFCURVE",
"190 341 OFFCURVE",
"190 337 CURVE SMOOTH",
"190 334 OFFCURVE",
"187 331 OFFCURVE",
"184 330 CURVE SMOOTH",
"105 326 LINE SMOOTH",
"105 326 OFFCURVE",
"105 326 OFFCURVE",
"105 326 CURVE SMOOTH"
);
}
);
width = 280;
}
);
unicode = 0048;
},
{
glyphname = I;
lastChange = "2013-05-19 19:47:39 +0000";
layers = (
{
anchors = (
{
name = ogonek;
position = "{261, 10}";
},
{
name = top;
position = "{141, 500}";
}
);
layerId = "204CD004-05F3-49D2-8673-0D9320CD8B89";
name = Regular;
paths = (
{
closed = 1;
nodes = (
"104 2 OFFCURVE",
"101 5 OFFCURVE",
"101 8 CURVE SMOOTH",
"100 56 LINE SMOOTH",
"98 141 OFFCURVE",
"96 246 OFFCURVE",
"96 317 CURVE SMOOTH",
"96 371 LINE SMOOTH",
"96 486 OFFCURVE",
"97 586 OFFCURVE",
"102 706 CURVE SMOOTH",
"103 714 OFFCURVE",
"103 722 OFFCURVE",
"103 730 CURVE SMOOTH",
"105 774 OFFCURVE",
"107 820 OFFCURVE",
"114 863 CURVE SMOOTH",
"115 867 OFFCURVE",
"118 869 OFFCURVE",
"122 869 CURVE SMOOTH",
"125 868 OFFCURVE",
"128 865 OFFCURVE",
"127 861 CURVE SMOOTH",
"120 819 OFFCURVE",
"118 773 OFFCURVE",
"116 729 CURVE SMOOTH",
"116 721 OFFCURVE",
"116 713 OFFCURVE",
"115 706 CURVE SMOOTH",
"110 586 OFFCURVE",
"110 486 OFFCURVE",
"109 371 CURVE SMOOTH",
"109 317 LINE SMOOTH",
"109 246 OFFCURVE",
"111 141 OFFCURVE",
"113 57 CURVE SMOOTH",
"114 9 LINE SMOOTH",
"114 5 OFFCURVE",
"111 2 OFFCURVE",
"107 2 CURVE SMOOTH",
"107 2 OFFCURVE",
"107 2 OFFCURVE",
"107 2 CURVE SMOOTH"
);
},
{
closed = 1;
nodes = (
"135 -9 OFFCURVE",
"123 -7 OFFCURVE",
"110 -5 CURVE SMOOTH",
"93 -3 OFFCURVE",
"76 0 OFFCURVE",
"57 -3 CURVE SMOOTH",
"53 -3 OFFCURVE",
"50 -1 OFFCURVE",
"50 3 CURVE SMOOTH",
"50 7 OFFCURVE",
"52 10 OFFCURVE",
"56 10 CURVE SMOOTH",
"76 13 OFFCURVE",
"94 10 OFFCURVE",
"112 8 CURVE SMOOTH",
"131 5 OFFCURVE",
"148 3 OFFCURVE",
"166 6 CURVE SMOOTH",
"169 6 OFFCURVE",
"173 4 OFFCURVE",
"173 0 CURVE SMOOTH",
"174 -3 OFFCURVE",
"171 -7 OFFCURVE",
"168 -7 CURVE SMOOTH",
"161 -8 OFFCURVE",
"155 -9 OFFCURVE",
"148 -9 CURVE SMOOTH"
);
},
{
closed = 1;
nodes = (
"72 856 OFFCURVE",
"69 858 OFFCURVE",
"69 861 CURVE SMOOTH",
"68 864 OFFCURVE",
"70 868 OFFCURVE",
"73 869 CURVE SMOOTH",
"95 875 OFFCURVE",
"117 874 OFFCURVE",
"138 874 CURVE SMOOTH",
"148 873 OFFCURVE",
"157 873 OFFCURVE",
"167 873 CURVE SMOOTH",
"170 874 OFFCURVE",
"173 871 OFFCURVE",
"173 867 CURVE SMOOTH",
"174 864 OFFCURVE",
"171 861 OFFCURVE",
"167 860 CURVE SMOOTH",
"157 860 OFFCURVE",
"148 860 OFFCURVE",
"138 861 CURVE SMOOTH",
"117 861 OFFCURVE",
"97 861 OFFCURVE",
"77 856 CURVE SMOOTH",
"76 856 OFFCURVE",
"75 856 OFFCURVE",
"75 856 CURVE SMOOTH"
);
}
);
width = 223;
}
);
unicode = 0049;
},
{
glyphname = J;
lastChange = "2013-05-19 19:46:20 +0000";
layers = (
{
anchors = (
{
name = top;
position = "{117, 500}";
}
);
layerId = "204CD004-05F3-49D2-8673-0D9320CD8B89";
name = Regular;
paths = (
{
closed = 1;
nodes = (
"93 -23 OFFCURVE",
"91 -22 OFFCURVE",
"89 -22 CURVE SMOOTH",
"69 -20 OFFCURVE",
"57 -8 OFFCURVE",
"56 12 CURVE SMOOTH",
"56 24 OFFCURVE",
"54 40 OFFCURVE",
"53 56 CURVE SMOOTH",
"49 107 OFFCURVE",
"44 169 OFFCURVE",
"49 207 CURVE SMOOTH",
"50 210 OFFCURVE",
"53 213 OFFCURVE",
"56 212 CURVE SMOOTH",
"60 212 OFFCURVE",
"62 208 OFFCURVE",
"62 205 CURVE SMOOTH",
"57 169 OFFCURVE",
"62 107 OFFCURVE",
"66 57 CURVE SMOOTH",
"67 41 OFFCURVE",
"69 25 OFFCURVE",
"69 12 CURVE SMOOTH",
"70 0 OFFCURVE",
"77 -7 OFFCURVE",
"91 -9 CURVE SMOOTH",
"102 -11 OFFCURVE",
"107 -7 OFFCURVE",
"112 5 CURVE SMOOTH",
"114 12 OFFCURVE",
"117 17 OFFCURVE",
"119 23 CURVE SMOOTH",
"124 33 OFFCURVE",
"128 43 OFFCURVE",
"134 59 CURVE",
"135 70 LINE SMOOTH",
"143 147 OFFCURVE",
"149 202 OFFCURVE",
"139 280 CURVE SMOOTH",
"139 281 OFFCURVE",
"139 281 OFFCURVE",
"139 281 CURVE SMOOTH",
"142 315 OFFCURVE",
"140 380 OFFCURVE",
"139 443 CURVE SMOOTH",
"138 505 OFFCURVE",
"136 563 OFFCURVE",
"138 593 CURVE SMOOTH",
"140 609 LINE SMOOTH",
"143 658 OFFCURVE",
"145 690 OFFCURVE",
"141 741 CURVE SMOOTH",
"137 796 OFFCURVE",
"137 806 OFFCURVE",
"139 848 CURVE SMOOTH",
"139 858 LINE SMOOTH",
"139 862 OFFCURVE",
"142 865 OFFCURVE",
"146 865 CURVE SMOOTH",
"146 865 OFFCURVE",
"146 865 OFFCURVE",
"146 865 CURVE",
"149 865 OFFCURVE",
"152 862 OFFCURVE",
"152 858 CURVE SMOOTH",
"152 847 LINE SMOOTH",
"150 806 OFFCURVE",
"150 796 OFFCURVE",
"154 742 CURVE SMOOTH",
"158 690 OFFCURVE",
"156 657 OFFCURVE",
"153 608 CURVE SMOOTH",
"151 592 LINE SMOOTH",
"149 563 OFFCURVE",
"151 505 OFFCURVE",
"152 444 CURVE SMOOTH",
"153 381 OFFCURVE",
"155 315 OFFCURVE",
"152 281 CURVE",
"162 201 OFFCURVE",
"156 146 OFFCURVE",
"148 69 CURVE SMOOTH",
"146 57 LINE SMOOTH",
"146 57 OFFCURVE",
"146 56 OFFCURVE",
"146 56 CURVE SMOOTH",
"141 38 OFFCURVE",
"136 28 OFFCURVE",
"131 18 CURVE SMOOTH",
"129 12 OFFCURVE",
"127 7 OFFCURVE",
"124 0 CURVE SMOOTH",
"118 -15 OFFCURVE",
"108 -23 OFFCURVE",
"95 -23 CURVE SMOOTH"
);
}
);
width = 197;
}
);
unicode = 004A;
},
{
glyphname = K;
lastChange = "2013-05-19 18:20:58 +0000";
layers = (
{
anchors = (
{
name = bottom;
position = "{150, 0}";
},
{
name = top;
position = "{150, 500}";
}
);
layerId = "204CD004-05F3-49D2-8673-0D9320CD8B89";
name = Regular;
paths = (
{
closed = 1;
nodes = (
"92 -12 OFFCURVE",
"89 -9 OFFCURVE",
"89 -6 CURVE SMOOTH",
"89 23 OFFCURVE",
"90 48 OFFCURVE",
"90 73 CURVE SMOOTH",
"91 127 OFFCURVE",
"92 178 OFFCURVE",
"87 240 CURVE SMOOTH",
"83 304 OFFCURVE",
"85 360 OFFCURVE",
"109 423 CURVE SMOOTH",
"145 515 OFFCURVE",
"174 657 OFFCURVE",
"198 771 CURVE SMOOTH",
"205 806 OFFCURVE",
"212 838 OFFCURVE",
"218 866 CURVE SMOOTH",
"219 870 OFFCURVE",
"222 872 OFFCURVE",
"226 871 CURVE SMOOTH",
"229 870 OFFCURVE",
"232 867 OFFCURVE",
"231 863 CURVE SMOOTH",
"225 835 OFFCURVE",
"218 803 OFFCURVE",
"211 769 CURVE SMOOTH",
"187 654 OFFCURVE",
"157 511 OFFCURVE",
"121 419 CURVE SMOOTH",
"98 358 OFFCURVE",
"96 303 OFFCURVE",
"100 241 CURVE SMOOTH",
"105 178 OFFCURVE",
"104 127 OFFCURVE",
"103 73 CURVE SMOOTH",
"103 48 OFFCURVE",
"102 22 OFFCURVE",
"102 -6 CURVE SMOOTH",
"102 -9 OFFCURVE",
"99 -12 OFFCURVE",
"96 -12 CURVE SMOOTH"
);
},
{
closed = 1;
nodes = (
"217 -31 OFFCURVE",
"214 -29 OFFCURVE",
"214 -26 CURVE SMOOTH",
"209 -7 OFFCURVE",
"204 6 OFFCURVE",
"199 19 CURVE SMOOTH",
"192 35 OFFCURVE",
"186 50 OFFCURVE",
"182 74 CURVE SMOOTH",
"174 114 OFFCURVE",
"165 148 OFFCURVE",
"156 182 CURVE SMOOTH",
"147 217 OFFCURVE",
"138 254 OFFCURVE",
"129 297 CURVE SMOOTH",
"126 317 OFFCURVE",
"110 351 OFFCURVE",
"96 367 CURVE SMOOTH",
"93 370 OFFCURVE",
"93 374 OFFCURVE",
"96 376 CURVE SMOOTH",
"98 379 OFFCURVE",
"103 379 OFFCURVE",
"105 376 CURVE SMOOTH",
"122 358 OFFCURVE",
"138 322 OFFCURVE",
"142 300 CURVE SMOOTH",
"150 257 OFFCURVE",
"160 220 OFFCURVE",
"169 185 CURVE SMOOTH",
"177 152 OFFCURVE",
"186 117 OFFCURVE",
"194 76 CURVE SMOOTH",
"199 54 OFFCURVE",
"205 39 OFFCURVE",
"211 23 CURVE SMOOTH",
"216 10 OFFCURVE",
"221 -3 OFFCURVE",
"226 -22 CURVE SMOOTH",
"227 -26 OFFCURVE",
"225 -29 OFFCURVE",
"221 -30 CURVE SMOOTH",
"221 -30 OFFCURVE",
"220 -31 OFFCURVE",
"220 -31 CURVE SMOOTH"
);
},
{
closed = 1;
nodes = (
"88 292 OFFCURVE",
"85 295 OFFCURVE",
"85 299 CURVE SMOOTH",
"85 339 OFFCURVE",
"84 421 OFFCURVE",
"83 501 CURVE SMOOTH",
"81 567 OFFCURVE",
"80 629 OFFCURVE",
"80 661 CURVE SMOOTH",
"80 710 OFFCURVE",
"81 760 OFFCURVE",
"83 808 CURVE SMOOTH",
"83 830 OFFCURVE",
"84 851 OFFCURVE",
"84 873 CURVE SMOOTH",
"85 876 OFFCURVE",
"88 879 OFFCURVE",
"91 879 CURVE",
"95 879 OFFCURVE",
"98 876 OFFCURVE",
"97 872 CURVE SMOOTH",
"97 851 OFFCURVE",
"96 829 OFFCURVE",
"96 808 CURVE SMOOTH",
"94 760 OFFCURVE",
"93 710 OFFCURVE",
"93 661 CURVE SMOOTH",
"93 629 OFFCURVE",
"95 567 OFFCURVE",
"96 501 CURVE SMOOTH",
"97 422 OFFCURVE",
"98 339 OFFCURVE",
"98 299 CURVE SMOOTH",
"98 295 OFFCURVE",
"95 292 OFFCURVE",
"92 292 CURVE SMOOTH"
);
}
);
width = 280;
}
);
unicode = 004B;
},
{
glyphname = L;
lastChange = "2013-05-19 19:48:42 +0000";
layers = (
{
anchors = (
{
name = bottom;
position = "{95, 0}";
},
{
name = top;
position = "{95, 500}";
}
);
layerId = "204CD004-05F3-49D2-8673-0D9320CD8B89";
name = Regular;
paths = (
{
closed = 1;
nodes = (
"64 -7 LINE SMOOTH",
"61 -7 OFFCURVE",
"58 -4 OFFCURVE",
"58 -1 CURVE SMOOTH",
"44 190 OFFCURVE",
"52 674 OFFCURVE",
"61 868 CURVE SMOOTH",
"61 872 OFFCURVE",
"64 875 OFFCURVE",
"68 875 CURVE",
"71 875 OFFCURVE",
"74 872 OFFCURVE",
"74 868 CURVE SMOOTH",
"66 675 OFFCURVE",
"57 201 OFFCURVE",
"71 6 CURVE",
"132 6 LINE SMOOTH",
"136 6 OFFCURVE",
"139 3 OFFCURVE",
"139 0 CURVE SMOOTH",
"139 -4 OFFCURVE",
"136 -7 OFFCURVE",
"132 -7 CURVE SMOOTH"
);
}
);
width = 164;
}
);
unicode = 004C;
},
{
glyphname = M;
lastChange = "2013-05-19 18:21:13 +0000";
layers = (
{
layerId = "204CD004-05F3-49D2-8673-0D9320CD8B89";
name = Regular;
paths = (
{
closed = 1;
nodes = (
"288 1 OFFCURVE",
"285 3 OFFCURVE",
"285 7 CURVE SMOOTH",
"269 148 OFFCURVE",
"264 350 OFFCURVE",
"260 513 CURVE SMOOTH",
"260 550 OFFCURVE",
"259 585 OFFCURVE",
"258 617 CURVE SMOOTH",
"256 684 OFFCURVE",
"256 724 OFFCURVE",
"259 790 CURVE SMOOTH",
"260 794 OFFCURVE",
"260 800 OFFCURVE",
"261 805 CURVE SMOOTH",
"262 826 OFFCURVE",
"264 847 OFFCURVE",
"252 865 CURVE",
"239 827 OFFCURVE",
"234 786 OFFCURVE",
"230 747 CURVE SMOOTH",
"226 718 OFFCURVE",
"223 688 OFFCURVE",
"216 659 CURVE SMOOTH",
"214 651 OFFCURVE",
"210 627 OFFCURVE",
"204 600 CURVE SMOOTH",
"194 544 OFFCURVE",
"180 475 OFFCURVE",
"174 456 CURVE SMOOTH",
"173 453 OFFCURVE",
"169 451 OFFCURVE",
"166 452 CURVE SMOOTH",
"162 453 OFFCURVE",
"160 457 OFFCURVE",
"162 460 CURVE SMOOTH",
"168 478 OFFCURVE",
"181 550 OFFCURVE",
"191 602 CURVE SMOOTH",
"197 631 OFFCURVE",
"201 654 OFFCURVE",
"203 662 CURVE SMOOTH",
"210 690 OFFCURVE",
"213 720 OFFCURVE",
"217 749 CURVE SMOOTH",
"221 791 OFFCURVE",
"226 834 OFFCURVE",
"242 875 CURVE SMOOTH",
"243 878 OFFCURVE",
"246 879 OFFCURVE",
"248 879 CURVE SMOOTH",
"255 879 LINE SMOOTH",
"256 879 OFFCURVE",
"258 878 OFFCURVE",
"260 877 CURVE SMOOTH",
"278 855 OFFCURVE",
"276 826 OFFCURVE",
"274 804 CURVE SMOOTH",
"273 799 OFFCURVE",
"273 794 OFFCURVE",
"272 789 CURVE SMOOTH",
"270 724 OFFCURVE",
"269 684 OFFCURVE",
"271 617 CURVE SMOOTH",
"272 585 OFFCURVE",
"273 550 OFFCURVE",
"273 513 CURVE SMOOTH",
"277 351 OFFCURVE",
"282 149 OFFCURVE",
"298 8 CURVE SMOOTH",
"298 5 OFFCURVE",
"296 1 OFFCURVE",
"292 1 CURVE SMOOTH",
"292 1 OFFCURVE",
"292 1 OFFCURVE",
"291 1 CURVE SMOOTH"
);
},
{
closed = 1;
nodes = (
"39 -8 OFFCURVE",
"36 -5 OFFCURVE",
"36 -2 CURVE SMOOTH",
"34 232 OFFCURVE",
"35 474 OFFCURVE",
"56 661 CURVE SMOOTH",
"58 679 OFFCURVE",
"59 698 OFFCURVE",
"60 718 CURVE SMOOTH",
"63 767 OFFCURVE",
"67 822 OFFCURVE",
"83 865 CURVE SMOOTH",
"83 866 OFFCURVE",
"83 866 OFFCURVE",
"83 866 CURVE SMOOTH",
"88 876 LINE SMOOTH",
"89 878 OFFCURVE",
"91 879 OFFCURVE",
"93 879 CURVE SMOOTH",
"95 880 OFFCURVE",
"97 879 OFFCURVE",
"99 877 CURVE SMOOTH",
"109 866 OFFCURVE",
"121 827 OFFCURVE",
"123 813 CURVE SMOOTH",
"129 781 OFFCURVE",
"136 756 OFFCURVE",
"143 732 CURVE SMOOTH",
"150 704 OFFCURVE",
"158 675 OFFCURVE",
"164 635 CURVE SMOOTH",
"164 634 OFFCURVE",
"165 627 OFFCURVE",
"166 601 CURVE SMOOTH",
"167 562 OFFCURVE",
"170 472 OFFCURVE",
"173 461 CURVE",
"175 459 OFFCURVE",
"174 456 OFFCURVE",
"172 453 CURVE SMOOTH",
"170 451 OFFCURVE",
"166 451 OFFCURVE",
"163 453 CURVE SMOOTH",
"160 457 OFFCURVE",
"158 459 OFFCURVE",
"153 601 CURVE SMOOTH",
"152 617 OFFCURVE",
"151 632 OFFCURVE",
"151 633 CURVE",
"145 672 OFFCURVE",
"137 701 OFFCURVE",
"130 728 CURVE SMOOTH",
"123 753 OFFCURVE",
"116 779 OFFCURVE",
"111 811 CURVE SMOOTH",
"108 823 OFFCURVE",
"101 847 OFFCURVE",
"95 860 CURVE",
"80 819 OFFCURVE",
"76 767 OFFCURVE",
"73 717 CURVE SMOOTH",
"72 697 OFFCURVE",
"71 677 OFFCURVE",
"69 660 CURVE SMOOTH",
"48 473 OFFCURVE",
"47 232 OFFCURVE",
"49 -2 CURVE SMOOTH",
"49 -5 OFFCURVE",
"47 -8 OFFCURVE",
"43 -8 CURVE SMOOTH",
"43 -8 OFFCURVE",
"43 -8 OFFCURVE",
"43 -8 CURVE SMOOTH"
);
}
);
width = 330;
}
);
unicode = 004D;
},
{
glyphname = N;
lastChange = "2013-05-19 18:21:20 +0000";
layers = (
{
anchors = (
{
name = bottom;
position = "{150, 0}";
},
{
name = top;
position = "{150, 500}";
}
);
layerId = "204CD004-05F3-49D2-8673-0D9320CD8B89";
name = Regular;
paths = (
{
closed = 1;
nodes = (
"56 -6 OFFCURVE",
"53 -3 OFFCURVE",
"53 1 CURVE SMOOTH",
"52 31 OFFCURVE",
"54 80 OFFCURVE",
"55 120 CURVE SMOOTH",
"55 132 OFFCURVE",
"56 143 OFFCURVE",
"56 151 CURVE SMOOTH",
"58 224 OFFCURVE",
"56 290 OFFCURVE",
"54 361 CURVE SMOOTH",
"52 408 OFFCURVE",
"51 458 OFFCURVE",
"51 508 CURVE SMOOTH",
"51 572 OFFCURVE",
"57 718 OFFCURVE",
"61 814 CURVE SMOOTH",
"62 835 OFFCURVE",
"62 853 OFFCURVE",
"63 867 CURVE SMOOTH",
"63 871 OFFCURVE",
"66 874 OFFCURVE",
"70 873 CURVE SMOOTH",
"73 873 OFFCURVE",
"76 870 OFFCURVE",
"76 867 CURVE SMOOTH",
"75 852 OFFCURVE",
"75 834 OFFCURVE",
"74 814 CURVE SMOOTH",
"70 717 OFFCURVE",
"64 572 OFFCURVE",
"64 508 CURVE SMOOTH",
"64 458 OFFCURVE",
"66 409 OFFCURVE",
"67 361 CURVE SMOOTH",
"69 294 OFFCURVE",
"71 224 OFFCURVE",
"69 151 CURVE SMOOTH",
"69 142 OFFCURVE",
"68 131 OFFCURVE",
"68 120 CURVE SMOOTH",
"67 82 OFFCURVE",
"65 31 OFFCURVE",
"66 1 CURVE SMOOTH",
"66 -3 OFFCURVE",
"63 -5 OFFCURVE",
"60 -6 CURVE SMOOTH",
"60 -6 OFFCURVE",
"59 -6 OFFCURVE",
"59 -6 CURVE SMOOTH"
);
},
{
closed = 1;
nodes = (
"206 -3 OFFCURVE",
"205 -3 OFFCURVE",
"205 -3 CURVE SMOOTH",
"202 -2 OFFCURVE",
"200 0 OFFCURVE",
"199 3 CURVE SMOOTH",
"199 5 OFFCURVE",
"171 185 OFFCURVE",
"162 234 CURVE SMOOTH",
"143 336 OFFCURVE",
"129 431 OFFCURVE",
"113 531 CURVE SMOOTH",
"107 568 OFFCURVE",
"101 606 OFFCURVE",
"95 645 CURVE SMOOTH",
"94 651 OFFCURVE",
"93 666 OFFCURVE",
"91 687 CURVE SMOOTH",
"86 739 OFFCURVE",
"75 848 OFFCURVE",
"64 863 CURVE SMOOTH",
"62 866 OFFCURVE",
"63 870 OFFCURVE",
"65 872 CURVE SMOOTH",
"68 874 OFFCURVE",
"72 874 OFFCURVE",
"75 871 CURVE SMOOTH",
"86 855 OFFCURVE",
"95 775 OFFCURVE",
"104 688 CURVE SMOOTH",
"106 669 OFFCURVE",
"107 653 OFFCURVE",
"108 647 CURVE SMOOTH",
"114 608 OFFCURVE",
"120 570 OFFCURVE",
"126 533 CURVE SMOOTH",
"142 433 OFFCURVE",
"156 338 OFFCURVE",
"175 237 CURVE SMOOTH",
"181 203 OFFCURVE",
"196 107 OFFCURVE",
"205 50 CURVE",
"210 108 OFFCURVE",
"213 195 OFFCURVE",
"214 228 CURVE SMOOTH",
"215 313 OFFCURVE",
"217 415 OFFCURVE",
"219 505 CURVE SMOOTH",
"220 549 OFFCURVE",
"220 590 OFFCURVE",
"219 630 CURVE SMOOTH",
"219 710 OFFCURVE",
"219 785 OFFCURVE",
"227 871 CURVE SMOOTH",
"227 874 OFFCURVE",
"231 877 OFFCURVE",
"234 876 CURVE SMOOTH",
"238 876 OFFCURVE",
"240 873 OFFCURVE",
"240 869 CURVE SMOOTH",
"232 785 OFFCURVE",
"232 710 OFFCURVE",
"233 630 CURVE SMOOTH",
"233 590 OFFCURVE",
"233 549 OFFCURVE",
"232 505 CURVE SMOOTH",
"230 414 OFFCURVE",
"228 313 OFFCURVE",
"227 228 CURVE SMOOTH",
"226 185 OFFCURVE",
"221 55 OFFCURVE",
"214 8 CURVE SMOOTH",
"214 8 OFFCURVE",
"214 7 OFFCURVE",
"214 6 CURVE SMOOTH",
"212 1 LINE SMOOTH",
"211 -1 OFFCURVE",
"208 -3 OFFCURVE",
"206 -3 CURVE SMOOTH"
);
}
);
width = 280;
}
);
unicode = 004E;
},
{
glyphname = O;
lastChange = "2013-05-19 19:44:33 +0000";
layers = (
{
anchors = (
{
name = top;
position = "{118, 500}";
}
);
layerId = "204CD004-05F3-49D2-8673-0D9320CD8B89";
name = Regular;
paths = (
{
closed = 1;
nodes = (
"86 -5 OFFCURVE",
"85 -5 OFFCURVE",
"85 -4 CURVE SMOOTH",
"43 14 OFFCURVE",
"39 52 OFFCURVE",
"37 80 CURVE SMOOTH",
"34 111 OFFCURVE",
"33 142 OFFCURVE",
"33 173 CURVE SMOOTH",
"32 185 OFFCURVE",
"32 197 OFFCURVE",
"32 209 CURVE SMOOTH",
"29 281 OFFCURVE",
"33 368 OFFCURVE",
"37 453 CURVE SMOOTH",
"40 525 OFFCURVE",
"43 599 OFFCURVE",
"42 661 CURVE SMOOTH",
"42 729 OFFCURVE",
"50 783 OFFCURVE",
"68 829 CURVE SMOOTH",
"77 850 OFFCURVE",
"88 872 OFFCURVE",
"121 870 CURVE SMOOTH",
"151 867 OFFCURVE",
"170 851 OFFCURVE",
"173 822 CURVE SMOOTH",
"174 816 OFFCURVE",
"175 810 OFFCURVE",
"176 803 CURVE SMOOTH",
"179 789 OFFCURVE",
"181 774 OFFCURVE",
"180 756 CURVE SMOOTH",
"178 743 OFFCURVE",
"177 730 OFFCURVE",
"175 717 CURVE SMOOTH",
"167 642 OFFCURVE",
"161 582 OFFCURVE",
"164 502 CURVE SMOOTH",
"165 473 OFFCURVE",
"160 408 OFFCURVE",
"156 351 CURVE SMOOTH",
"153 309 OFFCURVE",
"150 269 OFFCURVE",
"150 248 CURVE SMOOTH",
"148 182 OFFCURVE",
"144 140 OFFCURVE",
"135 70 CURVE SMOOTH",
"133 46 OFFCURVE",
"128 6 OFFCURVE",
"89 -5 CURVE SMOOTH",
"88 -5 OFFCURVE",
"88 -5 OFFCURVE",
"87 -5 CURVE SMOOTH"
);
},
{
closed = 1;
nodes = (
"97 857 OFFCURVE",
"89 845 OFFCURVE",
"80 824 CURVE SMOOTH",
"63 779 OFFCURVE",
"55 727 OFFCURVE",
"55 661 CURVE SMOOTH",
"56 599 OFFCURVE",
"53 524 OFFCURVE",
"50 452 CURVE SMOOTH",
"46 368 OFFCURVE",
"42 281 OFFCURVE",
"45 209 CURVE SMOOTH",
"45 197 OFFCURVE",
"45 185 OFFCURVE",
"46 173 CURVE SMOOTH",
"46 143 OFFCURVE",
"47 112 OFFCURVE",
"50 81 CURVE SMOOTH",
"53 49 OFFCURVE",
"58 23 OFFCURVE",
"88 9 CURVE",
"114 17 OFFCURVE",
"119 44 OFFCURVE",
"123 72 CURVE SMOOTH",
"131 141 OFFCURVE",
"135 183 OFFCURVE",
"137 248 CURVE SMOOTH",
"137 269 OFFCURVE",
"140 309 OFFCURVE",
"143 352 CURVE SMOOTH",
"147 409 OFFCURVE",
"152 473 OFFCURVE",
"151 502 CURVE SMOOTH",
"148 583 OFFCURVE",
"155 645 OFFCURVE",
"163 718 CURVE SMOOTH",
"164 731 OFFCURVE",
"165 744 OFFCURVE",
"167 758 CURVE SMOOTH",
"168 773 OFFCURVE",
"166 786 OFFCURVE",
"163 801 CURVE SMOOTH",
"162 807 OFFCURVE",
"161 814 OFFCURVE",
"160 821 CURVE SMOOTH",
"157 843 OFFCURVE",
"144 855 OFFCURVE",
"120 857 CURVE SMOOTH",
"119 857 OFFCURVE",
"118 857 OFFCURVE",
"116 857 CURVE SMOOTH"
);
}
);
width = 211;
}
);
unicode = 004F;
},
{
glyphname = P;
lastChange = "2013-05-19 19:52:27 +0000";
layers = (
{
layerId = "204CD004-05F3-49D2-8673-0D9320CD8B89";
name = Regular;
paths = (
{
closed = 1;
nodes = (
"48 122 OFFCURVE",
"45 273 OFFCURVE",
"53 416 CURVE SMOOTH",
"57 485 OFFCURVE",
"53 594 OFFCURVE",
"55 650 CURVE SMOOTH",
"56 682 OFFCURVE",
"54 708 OFFCURVE",
"54 733 CURVE SMOOTH",
"55 758 OFFCURVE",
"55 817 OFFCURVE",
"57 847 CURVE",
"58 852 OFFCURVE",
"73 854 OFFCURVE",
"100 858 CURVE SMOOTH",
"116 860 OFFCURVE",
"132 855 OFFCURVE",
"144 845 CURVE SMOOTH",
"161 830 OFFCURVE",
"171 804 OFFCURVE",
"172 772 CURVE SMOOTH",
"173 693 OFFCURVE",
"185 632 OFFCURVE",
"176 561 CURVE SMOOTH",
"174 542 OFFCURVE",
"172 522 OFFCURVE",
"169 502 CURVE SMOOTH",
"166 468 OFFCURVE",
"161 385 OFFCURVE",
"122 365 CURVE SMOOTH",
"110 359 OFFCURVE",
"72 352 OFFCURVE",
"66 350 CURVE SMOOTH",
"65 350 OFFCURVE",
"64 350 OFFCURVE",
"63 350 CURVE",
"56 225 OFFCURVE",
"62 104 OFFCURVE",
"65 3 CURVE",
"65 2 OFFCURVE",
"53 1 OFFCURVE",
"52 3 CURVE"
);
},
{
closed = 1;
nodes = (
"87 844 OFFCURVE",
"69 843 OFFCURVE",
"68 838 CURVE SMOOTH",
"67 807 OFFCURVE",
"68 758 OFFCURVE",
"66 732 CURVE SMOOTH",
"65 707 OFFCURVE",
"69 682 OFFCURVE",
"68 650 CURVE SMOOTH",
"66 594 OFFCURVE",
"70 484 OFFCURVE",
"66 416 CURVE SMOOTH",
"65 398 OFFCURVE",
"64 381 OFFCURVE",
"63 363 CURVE",
"73 363 OFFCURVE",
"106 371 OFFCURVE",
"116 377 CURVE SMOOTH",
"147 393 OFFCURVE",
"152 464 OFFCURVE",
"156 503 CURVE SMOOTH",
"159 524 OFFCURVE",
"161 543 OFFCURVE",
"163 562 CURVE SMOOTH",
"172 633 OFFCURVE",
"160 694 OFFCURVE",
"158 772 CURVE SMOOTH",
"158 800 OFFCURVE",
"150 822 OFFCURVE",
"135 835 CURVE SMOOTH",
"127 842 OFFCURVE",
"114 847 OFFCURVE",
"101 846 CURVE SMOOTH"
);
}
);
width = 227;
}
);
unicode = 0050;
},
{
glyphname = Q;
lastChange = "2013-05-19 19:48:01 +0000";
layers = (
{
layerId = "204CD004-05F3-49D2-8673-0D9320CD8B89";
name = Regular;
paths = (
{
closed = 1;
nodes = (
"107 -13 OFFCURVE",
"106 -13 OFFCURVE",
"106 -13 CURVE SMOOTH",
"72 -2 OFFCURVE",
"69 28 OFFCURVE",
"66 53 CURVE SMOOTH",
"46 241 OFFCURVE",
"44 537 OFFCURVE",
"63 713 CURVE SMOOTH",
"64 720 OFFCURVE",
"64 728 OFFCURVE",
"65 737 CURVE SMOOTH",
"67 772 OFFCURVE",
"70 809 OFFCURVE",
"95 840 CURVE SMOOTH",
"106 854 OFFCURVE",
"115 863 OFFCURVE",
"126 862 CURVE SMOOTH",
"137 861 OFFCURVE",
"145 848 OFFCURVE",
"152 835 CURVE SMOOTH",
"173 791 OFFCURVE",
"183 741 OFFCURVE",
"180 680 CURVE SMOOTH",
"176 580 OFFCURVE",
"173 517 OFFCURVE",
"165 429 CURVE SMOOTH",
"165 421 OFFCURVE",
"164 394 OFFCURVE",
"162 360 CURVE SMOOTH",
"159 271 OFFCURVE",
"155 140 OFFCURVE",
"147 98 CURVE",
"148 97 OFFCURVE",
"148 96 OFFCURVE",
"148 94 CURVE SMOOTH",
"147 86 OFFCURVE",
"149 75 OFFCURVE",
"151 64 CURVE SMOOTH",
"156 34 OFFCURVE",
"163 -2 OFFCURVE",
"109 -13 CURVE SMOOTH",
"109 -13 OFFCURVE",
"108 -13 OFFCURVE",
"108 -13 CURVE SMOOTH"
);
},
{
closed = 1;
nodes = (
"120 849 OFFCURVE",
"114 843 OFFCURVE",
"105 832 CURVE SMOOTH",
"83 804 OFFCURVE",
"80 769 OFFCURVE",
"78 736 CURVE SMOOTH",
"77 728 OFFCURVE",
"77 719 OFFCURVE",
"76 711 CURVE SMOOTH",
"57 536 OFFCURVE",
"59 241 OFFCURVE",
"79 55 CURVE SMOOTH",
"82 31 OFFCURVE",
"84 8 OFFCURVE",
"108 0 CURVE",
"147 9 OFFCURVE",
"143 32 OFFCURVE",
"138 61 CURVE SMOOTH",
"136 70 OFFCURVE",
"135 79 OFFCURVE",
"135 87 CURVE",
"133 89 OFFCURVE",
"132 91 OFFCURVE",
"133 94 CURVE SMOOTH",
"141 122 OFFCURVE",
"146 271 OFFCURVE",
"149 360 CURVE SMOOTH",
"151 396 OFFCURVE",
"152 421 OFFCURVE",
"152 430 CURVE SMOOTH",
"160 518 OFFCURVE",
"163 581 OFFCURVE",
"167 680 CURVE SMOOTH",
"169 740 OFFCURVE",
"161 787 OFFCURVE",
"140 829 CURVE SMOOTH",
"133 842 OFFCURVE",
"128 848 OFFCURVE",
"124 849 CURVE SMOOTH",
"124 849 OFFCURVE",
"124 849 OFFCURVE",
"124 849 CURVE SMOOTH"
);
},
{
closed = 1;
nodes = (
"190 6 OFFCURVE",
"188 7 OFFCURVE",
"187 9 CURVE SMOOTH",
"165 45 OFFCURVE",
"135 92 OFFCURVE",
"115 113 CURVE SMOOTH",
"113 115 OFFCURVE",
"113 119 OFFCURVE",
"116 122 CURVE SMOOTH",
"118 124 OFFCURVE",
"122 124 OFFCURVE",
"125 122 CURVE SMOOTH",
"145 100 OFFCURVE",
"176 52 OFFCURVE",
"198 16 CURVE SMOOTH",
"200 13 OFFCURVE",
"199 9 OFFCURVE",
"195 7 CURVE SMOOTH",
"194 6 OFFCURVE",
"193 6 OFFCURVE",
"192 6 CURVE SMOOTH"
);
}
);
width = 249;
}
);
unicode = 0051;
},
{
glyphname = R;
lastChange = "2013-05-19 20:40:54 +0000";
layers = (
{
anchors = (
{
name = bottom;
position = "{116, 0}";
},
{
name = top;
position = "{116, 500}";
}
);
layerId = "204CD004-05F3-49D2-8673-0D9320CD8B89";
name = Regular;
paths = (
{
closed = 1;
nodes = (
"63 -9 OFFCURVE",
"60 -6 OFFCURVE",
"60 -3 CURVE",
"60 194 OFFCURVE",
"60 497 OFFCURVE",
"60 702 CURVE SMOOTH",
"60 747 OFFCURVE",
"63 796 OFFCURVE",
"67 851 CURVE SMOOTH",
"67 854 OFFCURVE",
"70 856 OFFCURVE",
"72 857 CURVE SMOOTH",
"104 863 OFFCURVE",
"132 858 OFFCURVE",
"151 843 CURVE SMOOTH",
"165 833 OFFCURVE",
"173 818 OFFCURVE",
"174 800 CURVE SMOOTH",
"185 661 OFFCURVE",
"174 524 OFFCURVE",
"160 384 CURVE SMOOTH",
"155 316 OFFCURVE",
"109 307 OFFCURVE",
"73 309 CURVE",
"73 196 OFFCURVE",
"73 86 OFFCURVE",
"73 -3 CURVE SMOOTH",
"73 -6 OFFCURVE",
"70 -9 OFFCURVE",
"67 -9 CURVE SMOOTH"
);
},
{
closed = 1;
nodes = (
"108 321 OFFCURVE",
"143 328 OFFCURVE",
"147 385 CURVE SMOOTH",
"161 525 OFFCURVE",
"172 661 OFFCURVE",
"161 799 CURVE SMOOTH",
"160 813 OFFCURVE",
"154 825 OFFCURVE",
"143 833 CURVE SMOOTH",
"128 844 OFFCURVE",
"106 849 OFFCURVE",
"80 845 CURVE",
"75 792 OFFCURVE",
"73 746 OFFCURVE",
"73 702 CURVE SMOOTH",
"73 593 OFFCURVE",
"73 456 OFFCURVE",
"73 322 CURVE"
);
},
{
closed = 1;
nodes = (
"187 -10 OFFCURVE",
"185 -8 OFFCURVE",
"183 -6 CURVE SMOOTH",
"161 40 OFFCURVE",
"144 98 OFFCURVE",
"128 154 CURVE SMOOTH",
"111 210 OFFCURVE",
"95 267 OFFCURVE",
"73 312 CURVE SMOOTH",
"71 315 OFFCURVE",
"72 319 OFFCURVE",
"76 321 CURVE SMOOTH",
"79 322 OFFCURVE",
"83 321 OFFCURVE",
"84 318 CURVE SMOOTH",
"107 272 OFFCURVE",
"124 214 OFFCURVE",
"140 158 CURVE SMOOTH",
"156 102 OFFCURVE",
"173 44 OFFCURVE",
"195 0 CURVE SMOOTH",
"197 -4 OFFCURVE",
"195 -7 OFFCURVE",
"192 -9 CURVE SMOOTH",
"191 -10 OFFCURVE",
"190 -10 OFFCURVE",
"189 -10 CURVE SMOOTH"
);
}
);
width = 246;
}
);
unicode = 0052;
},
{
glyphname = S;
lastChange = "2013-05-19 19:56:09 +0000";
layers = (
{
anchors = (
{
name = bottom;
position = "{110, 0}";
},
{
name = top;
position = "{110, 500}";
}
);
layerId = "204CD004-05F3-49D2-8673-0D9320CD8B89";
name = Regular;
paths = (
{
closed = 1;
nodes = (
"88 -13 OFFCURVE",
"88 -13 OFFCURVE",
"87 -13 CURVE SMOOTH",
"56 -11 OFFCURVE",
"35 28 OFFCURVE",
"35 81 CURVE SMOOTH",
"35 185 LINE SMOOTH",
"35 189 OFFCURVE",
"48 189 OFFCURVE",
"48 185 CURVE SMOOTH",
"48 81 LINE SMOOTH",
"48 35 OFFCURVE",
"65 1 OFFCURVE",
"88 0 CURVE SMOOTH",
"107 -2 OFFCURVE",
"133 31 OFFCURVE",
"136 77 CURVE SMOOTH",
"142 156 OFFCURVE",
"146 213 OFFCURVE",
"146 294 CURVE SMOOTH",
"145 339 OFFCURVE",
"134 379 OFFCURVE",
"110 415 CURVE SMOOTH",
"107 418 OFFCURVE",
"105 422 OFFCURVE",
"103 425 CURVE SMOOTH",
"93 439 OFFCURVE",
"83 453 OFFCURVE",
"81 473 CURVE SMOOTH",
"71 557 OFFCURVE",
"75 692 OFFCURVE",
"78 774 CURVE SMOOTH",
"78 777 OFFCURVE",
"78 781 OFFCURVE",
"78 785 CURVE SMOOTH",
"78 807 OFFCURVE",
"78 833 OFFCURVE",
"90 852 CURVE SMOOTH",
"97 864 OFFCURVE",
"107 869 OFFCURVE",
"120 868 CURVE SMOOTH",
"124 868 LINE SMOOTH",
"137 867 OFFCURVE",
"149 867 OFFCURVE",
"158 852 CURVE SMOOTH",
"158 851 OFFCURVE",
"158 851 OFFCURVE",
"158 850 CURVE SMOOTH",
"167 812 OFFCURVE",
"169 773 OFFCURVE",
"169 735 CURVE SMOOTH",
"170 714 OFFCURVE",
"171 692 OFFCURVE",
"172 671 CURVE SMOOTH",
"173 667 OFFCURVE",
"160 666 OFFCURVE",
"159 670 CURVE SMOOTH",
"158 691 OFFCURVE",
"157 713 OFFCURVE",
"156 734 CURVE SMOOTH",
"155 773 OFFCURVE",
"155 810 OFFCURVE",
"146 846 CURVE",
"141 854 OFFCURVE",
"135 854 OFFCURVE",
"124 855 CURVE SMOOTH",
"119 855 LINE SMOOTH",
"111 856 OFFCURVE",
"106 853 OFFCURVE",
"101 845 CURVE SMOOTH",
"91 829 OFFCURVE",
"91 806 OFFCURVE",
"91 785 CURVE SMOOTH",
"91 781 OFFCURVE",
"91 777 OFFCURVE",
"91 773 CURVE SMOOTH",
"88 692 OFFCURVE",
"84 557 OFFCURVE",
"94 475 CURVE SMOOTH",
"95 458 OFFCURVE",
"104 446 OFFCURVE",
"114 432 CURVE SMOOTH",
"116 429 OFFCURVE",
"118 426 OFFCURVE",
"121 422 CURVE SMOOTH",
"146 384 OFFCURVE",
"159 342 OFFCURVE",
"159 294 CURVE SMOOTH",
"160 212 OFFCURVE",
"155 155 OFFCURVE",
"149 76 CURVE SMOOTH",
"145 27 OFFCURVE",
"118 -13 OFFCURVE",
"89 -13 CURVE SMOOTH"
);
}
);
width = 207;
}
);
unicode = 0053;
},
{
glyphname = T;
lastChange = "2013-05-19 20:40:44 +0000";
layers = (
{
anchors = (
{
name = bottom;
position = "{108, 0}";
},
{
name = center;
position = "{108, 250}";
},
{
name = top;
position = "{108, 500}";
}
);
layerId = "204CD004-05F3-49D2-8673-0D9320CD8B89";
name = Regular;
paths = (
{
closed = 1;
nodes = (
"106 -9 OFFCURVE",
"103 -6 OFFCURVE",
"103 -3 CURVE SMOOTH",
"101 18 OFFCURVE",
"100 38 OFFCURVE",
"98 59 CURVE SMOOTH",
"94 103 OFFCURVE",
"90 150 OFFCURVE",
"89 196 CURVE SMOOTH",
"88 248 OFFCURVE",
"89 308 OFFCURVE",
"89 372 CURVE SMOOTH",
"90 455 OFFCURVE",
"90 541 OFFCURVE",
"88 610 CURVE SMOOTH",
"84 699 OFFCURVE",
"84 759 OFFCURVE",
"98 844 CURVE SMOOTH",
"99 847 OFFCURVE",
"102 850 OFFCURVE",
"106 849 CURVE SMOOTH",
"109 848 OFFCURVE",
"112 845 OFFCURVE",
"111 841 CURVE SMOOTH",
"97 758 OFFCURVE",
"98 699 OFFCURVE",
"101 611 CURVE SMOOTH",
"103 541 OFFCURVE",
"103 455 OFFCURVE",
"102 371 CURVE SMOOTH",
"102 308 OFFCURVE",
"102 248 OFFCURVE",
"102 196 CURVE SMOOTH",
"103 150 OFFCURVE",
"107 104 OFFCURVE",
"111 60 CURVE SMOOTH",
"113 39 OFFCURVE",
"114 19 OFFCURVE",
"116 -2 CURVE SMOOTH",
"116 -5 OFFCURVE",
"113 -8 OFFCURVE",
"110 -9 CURVE SMOOTH",
"109 -9 OFFCURVE",
"109 -9 OFFCURVE",
"109 -9 CURVE SMOOTH"
);
},
{
closed = 1;
nodes = (
"53 841 OFFCURVE",
"47 841 OFFCURVE",
"43 841 CURVE SMOOTH",
"39 841 OFFCURVE",
"40 854 OFFCURVE",
"43 854 CURVE SMOOTH",
"61 853 OFFCURVE",
"80 854 OFFCURVE",
"94 855 CURVE SMOOTH",
"115 856 OFFCURVE",
"140 856 OFFCURVE",
"155 854 CURVE SMOOTH",
"158 853 OFFCURVE",
"156 840 OFFCURVE",
"152 841 CURVE SMOOTH",
"139 843 OFFCURVE",
"115 842 OFFCURVE",
"95 842 CURVE SMOOTH",
"83 841 OFFCURVE",
"70 841 OFFCURVE",
"56 841 CURVE SMOOTH"
);
}
);
width = 196;
}
);
unicode = 0054;
},
{
glyphname = U;
lastChange = "2013-05-19 19:48:13 +0000";
layers = (
{
anchors = (
{
name = ogonek;
position = "{247, 10}";
},
{
name = top;
position = "{127, 500}";
}
);
layerId = "204CD004-05F3-49D2-8673-0D9320CD8B89";
name = Regular;
paths = (
{
closed = 1;
nodes = (
"65 -9 OFFCURVE",
"61 50 OFFCURVE",
"60 79 CURVE SMOOTH",
"59 82 OFFCURVE",
"59 86 OFFCURVE",
"59 88 CURVE SMOOTH",
"53 155 OFFCURVE",
"51 258 OFFCURVE",
"50 326 CURVE SMOOTH",
"50 330 LINE SMOOTH",
"49 446 OFFCURVE",
"51 599 OFFCURVE",
"52 734 CURVE SMOOTH",
"53 776 OFFCURVE",
"53 817 OFFCURVE",
"54 854 CURVE SMOOTH",
"54 858 OFFCURVE",
"67 857 OFFCURVE",
"67 854 CURVE SMOOTH",
"66 817 OFFCURVE",
"66 776 OFFCURVE",
"65 733 CURVE SMOOTH",
"64 599 OFFCURVE",
"62 446 OFFCURVE",
"63 330 CURVE SMOOTH",
"63 326 LINE SMOOTH",
"64 258 OFFCURVE",
"66 156 OFFCURVE",
"72 90 CURVE SMOOTH",
"72 87 OFFCURVE",
"72 83 OFFCURVE",
"73 80 CURVE SMOOTH",
"75 43 OFFCURVE",
"80 4 OFFCURVE",
"113 4 CURVE SMOOTH",
"154 4 OFFCURVE",
"163 46 OFFCURVE",
"166 87 CURVE",
"163 175 OFFCURVE",
"166 281 OFFCURVE",
"170 384 CURVE SMOOTH",
"173 483 OFFCURVE",
"177 586 OFFCURVE",
"174 670 CURVE SMOOTH",
"173 709 OFFCURVE",
"174 752 OFFCURVE",
"176 793 CURVE SMOOTH",
"177 811 OFFCURVE",
"178 829 OFFCURVE",
"178 846 CURVE SMOOTH",
"178 850 OFFCURVE",
"191 849 OFFCURVE",
"191 846 CURVE SMOOTH",
"191 828 OFFCURVE",
"190 811 OFFCURVE",
"189 793 CURVE SMOOTH",
"187 752 OFFCURVE",
"186 709 OFFCURVE",
"187 670 CURVE SMOOTH",
"190 586 OFFCURVE",
"186 483 OFFCURVE",
"183 383 CURVE SMOOTH",
"179 281 OFFCURVE",
"176 174 OFFCURVE",
"179 87 CURVE SMOOTH",
"179 87 OFFCURVE",
"179 87 OFFCURVE",
"179 87 CURVE SMOOTH",
"177 60 OFFCURVE",
"172 -9 OFFCURVE",
"113 -9 CURVE SMOOTH"
);
}
);
width = 241;
}
);
unicode = 0055;
},
{
glyphname = V;
lastChange = "2013-05-19 18:22:27 +0000";
layers = (
{
layerId = "204CD004-05F3-49D2-8673-0D9320CD8B89";
name = Regular;
paths = (
{
closed = 1;
nodes = (
"182 -16 OFFCURVE",
"181 -16 OFFCURVE",
"181 -16 CURVE SMOOTH",
"178 -16 OFFCURVE",
"175 -12 OFFCURVE",
"175 -9 CURVE SMOOTH",
"175 -7 OFFCURVE",
"188 167 OFFCURVE",
"193 221 CURVE SMOOTH",
"201 310 OFFCURVE",
"208 432 OFFCURVE",
"214 549 CURVE SMOOTH",
"218 617 OFFCURVE",
"222 682 OFFCURVE",
"225 734 CURVE SMOOTH",
"228 776 OFFCURVE",
"236 814 OFFCURVE",
"244 846 CURVE SMOOTH",
"245 849 OFFCURVE",
"258 846 OFFCURVE",
"257 843 CURVE SMOOTH",
"249 811 OFFCURVE",
"241 774 OFFCURVE",
"238 733 CURVE SMOOTH",
"235 681 OFFCURVE",
"231 616 OFFCURVE",
"227 548 CURVE SMOOTH",
"221 431 OFFCURVE",
"214 309 OFFCURVE",
"206 220 CURVE SMOOTH",
"201 165 OFFCURVE",
"188 -8 OFFCURVE",
"188 -10 CURVE SMOOTH",
"188 -13 OFFCURVE",
"185 -16 OFFCURVE",
"182 -16 CURVE SMOOTH"
);
},
{
closed = 1;
nodes = (
"179 -16 OFFCURVE",
"177 -14 OFFCURVE",
"176 -12 CURVE SMOOTH",
"154 46 OFFCURVE",
"134 209 OFFCURVE",
"118 340 CURVE SMOOTH",
"110 403 OFFCURVE",
"103 458 OFFCURVE",
"98 487 CURVE SMOOTH",
"91 523 OFFCURVE",
"84 557 OFFCURVE",
"77 590 CURVE SMOOTH",
"58 675 OFFCURVE",
"40 757 OFFCURVE",
"42 853 CURVE SMOOTH",
"42 857 OFFCURVE",
"55 857 OFFCURVE",
"55 853 CURVE SMOOTH",
"53 758 OFFCURVE",
"71 678 OFFCURVE",
"89 592 CURVE SMOOTH",
"97 559 OFFCURVE",
"104 525 OFFCURVE",
"111 489 CURVE SMOOTH",
"116 460 OFFCURVE",
"123 405 OFFCURVE",
"130 342 CURVE SMOOTH",
"146 211 OFFCURVE",
"166 49 OFFCURVE",
"188 -7 CURVE SMOOTH",
"189 -10 OFFCURVE",
"187 -14 OFFCURVE",
"184 -15 CURVE SMOOTH",
"183 -16 OFFCURVE",
"182 -16 OFFCURVE",
"182 -16 CURVE SMOOTH"
);
}
);
width = 290;
}
);
unicode = 0056;
},
{
glyphname = W;
lastChange = "2013-05-19 18:22:34 +0000";
layers = (
{
anchors = (
{
name = top;
position = "{150, 500}";
}
);
layerId = "204CD004-05F3-49D2-8673-0D9320CD8B89";
name = Regular;
paths = (
{
closed = 1;
nodes = (
"105 13 OFFCURVE",
"94 93 OFFCURVE",
"88 130 CURVE SMOOTH",
"86 147 OFFCURVE",
"83 163 OFFCURVE",
"80 177 CURVE SMOOTH",
"74 217 OFFCURVE",
"68 251 OFFCURVE",
"65 298 CURVE SMOOTH",
"63 340 OFFCURVE",
"60 399 OFFCURVE",
"56 461 CURVE SMOOTH",
"48 597 OFFCURVE",
"37 765 OFFCURVE",
"37 856 CURVE SMOOTH",
"37 860 OFFCURVE",
"40 863 OFFCURVE",
"43 863 CURVE",
"43 863 OFFCURVE",
"43 863 OFFCURVE",
"43 863 CURVE",
"47 863 OFFCURVE",
"50 860 OFFCURVE",
"50 856 CURVE SMOOTH",
"50 766 OFFCURVE",
"61 597 OFFCURVE",
"69 462 CURVE SMOOTH",
"73 399 OFFCURVE",
"76 340 OFFCURVE",
"78 299 CURVE SMOOTH",
"81 252 OFFCURVE",
"86 218 OFFCURVE",
"93 180 CURVE SMOOTH",
"96 165 OFFCURVE",
"98 149 OFFCURVE",
"101 132 CURVE SMOOTH",
"106 101 OFFCURVE",
"118 15 OFFCURVE",
"117 -5 CURVE SMOOTH",
"117 -8 OFFCURVE",
"104 -8 OFFCURVE",
"104 -4 CURVE SMOOTH"
);
},
{
closed = 1;
nodes = (
"194 34 OFFCURVE",
"200 67 OFFCURVE",
"206 99 CURVE SMOOTH",
"215 150 OFFCURVE",
"224 199 OFFCURVE",
"229 258 CURVE SMOOTH",
"234 322 OFFCURVE",
"240 408 OFFCURVE",
"247 499 CURVE SMOOTH",
"256 631 OFFCURVE",
"266 766 OFFCURVE",
"274 858 CURVE SMOOTH",
"275 862 OFFCURVE",
"278 865 OFFCURVE",
"281 864 CURVE SMOOTH",
"285 864 OFFCURVE",
"288 861 OFFCURVE",
"287 857 CURVE SMOOTH",
"279 765 OFFCURVE",
"269 630 OFFCURVE",
"260 499 CURVE SMOOTH",
"253 407 OFFCURVE",
"247 321 OFFCURVE",
"242 257 CURVE SMOOTH",
"237 197 OFFCURVE",
"228 148 OFFCURVE",
"219 96 CURVE SMOOTH",
"213 65 OFFCURVE",
"207 32 OFFCURVE",
"202 -4 CURVE SMOOTH",
"201 -7 OFFCURVE",
"188 -5 OFFCURVE",
"189 -2 CURVE SMOOTH"
);
},
{
closed = 1;
nodes = (
"110 30 OFFCURVE",
"123 101 OFFCURVE",
"125 117 CURVE SMOOTH",
"127 139 LINE SMOOTH",
"134 210 OFFCURVE",
"152 401 OFFCURVE",
"161 442 CURVE SMOOTH",
"162 446 OFFCURVE",
"166 448 OFFCURVE",
"169 447 CURVE SMOOTH",
"173 447 OFFCURVE",
"175 443 OFFCURVE",
"174 440 CURVE SMOOTH",
"165 399 OFFCURVE",
"146 209 OFFCURVE",
"140 137 CURVE SMOOTH",
"138 116 LINE SMOOTH",
"136 98 OFFCURVE",
"123 24 OFFCURVE",
"117 -6 CURVE SMOOTH",
"116 -9 OFFCURVE",
"103 -7 OFFCURVE",
"104 -3 CURVE SMOOTH"
);
},
{
closed = 1;
nodes = (
"176 60 OFFCURVE",
"166 149 OFFCURVE",
"166 200 CURVE",
"166 208 LINE SMOOTH",
"166 388 OFFCURVE",
"163 430 OFFCURVE",
"161 440 CURVE SMOOTH",
"161 443 OFFCURVE",
"163 447 OFFCURVE",
"166 447 CURVE SMOOTH",
"170 448 OFFCURVE",
"173 446 OFFCURVE",
"174 442 CURVE SMOOTH",
"177 425 OFFCURVE",
"179 346 OFFCURVE",
"179 208 CURVE SMOOTH",
"179 200 LINE SMOOTH",
"179 150 OFFCURVE",
"189 60 OFFCURVE",
"202 -3 CURVE SMOOTH",
"202 -7 OFFCURVE",
"190 -7 OFFCURVE",
"189 -4 CURVE SMOOTH"
);
}
);
width = 320;
}
);
unicode = 0057;
},
{
glyphname = X;
lastChange = "2013-05-19 18:22:39 +0000";
layers = (
{
layerId = "204CD004-05F3-49D2-8673-0D9320CD8B89";
name = Regular;
paths = (
{
closed = 1;
nodes = (
"82 -6 OFFCURVE",
"82 -5 OFFCURVE",
"82 -5 CURVE SMOOTH",
"78 -5 OFFCURVE",
"76 -1 OFFCURVE",
"76 2 CURVE SMOOTH",
"80 21 OFFCURVE",
"87 71 OFFCURVE",
"94 128 CURVE SMOOTH",
"107 218 OFFCURVE",
"122 330 OFFCURVE",
"131 367 CURVE SMOOTH",
"141 406 OFFCURVE",
"147 446 OFFCURVE",
"154 488 CURVE SMOOTH",
"155 497 OFFCURVE",
"157 506 OFFCURVE",
"158 515 CURVE SMOOTH",
"165 560 OFFCURVE",
"173 616 OFFCURVE",
"181 676 CURVE SMOOTH",
"190 742 OFFCURVE",
"199 811 OFFCURVE",
"207 863 CURVE SMOOTH",
"208 867 OFFCURVE",
"211 869 OFFCURVE",
"215 869 CURVE SMOOTH",
"218 868 OFFCURVE",
"221 865 OFFCURVE",
"220 861 CURVE SMOOTH",
"211 809 OFFCURVE",
"202 741 OFFCURVE",
"194 674 CURVE SMOOTH",
"186 614 OFFCURVE",
"178 558 OFFCURVE",
"171 513 CURVE SMOOTH",
"170 504 OFFCURVE",
"168 495 OFFCURVE",
"167 486 CURVE SMOOTH",
"160 444 OFFCURVE",
"154 403 OFFCURVE",
"144 364 CURVE SMOOTH",
"135 327 OFFCURVE",
"120 215 OFFCURVE",
"107 126 CURVE SMOOTH",
"100 69 OFFCURVE",
"93 19 OFFCURVE",
"89 0 CURVE SMOOTH",
"89 -3 OFFCURVE",
"86 -6 OFFCURVE",
"83 -6 CURVE SMOOTH"
);
},
{
closed = 1;
nodes = (
"229 -1 OFFCURVE",
"226 1 OFFCURVE",
"226 4 CURVE SMOOTH",
"221 23 OFFCURVE",
"217 48 OFFCURVE",
"213 74 CURVE SMOOTH",
"208 112 OFFCURVE",
"202 151 OFFCURVE",
"193 178 CURVE SMOOTH",
"187 199 OFFCURVE",
"163 337 OFFCURVE",
"137 483 CURVE SMOOTH",
"109 645 OFFCURVE",
"77 829 OFFCURVE",
"68 857 CURVE SMOOTH",
"67 860 OFFCURVE",
"69 864 OFFCURVE",
"72 865 CURVE SMOOTH",
"76 866 OFFCURVE",
"79 864 OFFCURVE",
"80 861 CURVE SMOOTH",
"90 832 OFFCURVE",
"120 656 OFFCURVE",
"150 485 CURVE SMOOTH",
"175 340 OFFCURVE",
"199 202 OFFCURVE",
"206 182 CURVE SMOOTH",
"215 154 OFFCURVE",
"221 114 OFFCURVE",
"226 76 CURVE SMOOTH",
"230 50 OFFCURVE",
"234 26 OFFCURVE",
"238 7 CURVE SMOOTH",
"239 4 OFFCURVE",
"237 0 OFFCURVE",
"233 -1 CURVE SMOOTH",
"233 -1 OFFCURVE",
"232 -1 OFFCURVE",
"232 -1 CURVE SMOOTH"
);
}
);
width = 290;
}
);
unicode = 0058;
},
{
glyphname = Y;
lastChange = "2013-05-19 18:22:46 +0000";
layers = (
{
anchors = (
{
name = top;
position = "{150, 500}";
}
);
layerId = "204CD004-05F3-49D2-8673-0D9320CD8B89";
name = Regular;
paths = (
{
closed = 1;
nodes = (
"169 -10 OFFCURVE",
"166 -7 OFFCURVE",
"166 -4 CURVE SMOOTH",
"164 25 OFFCURVE",
"162 55 OFFCURVE",
"159 86 CURVE SMOOTH",
"151 177 OFFCURVE",
"143 272 OFFCURVE",
"152 354 CURVE",
"152 368 OFFCURVE",
"153 412 OFFCURVE",
"152 419 CURVE",
"142 441 OFFCURVE",
"135 485 OFFCURVE",
"129 525 CURVE SMOOTH",
"126 545 OFFCURVE",
"123 565 OFFCURVE",
"120 576 CURVE SMOOTH",
"114 600 OFFCURVE",
"108 622 OFFCURVE",
"101 644 CURVE SMOOTH",
"82 709 OFFCURVE",
"66 766 OFFCURVE",
"65 842 CURVE SMOOTH",
"65 846 OFFCURVE",
"68 849 OFFCURVE",
"71 849 CURVE SMOOTH",
"71 849 OFFCURVE",
"71 849 OFFCURVE",
"71 849 CURVE SMOOTH",
"75 849 OFFCURVE",
"78 846 OFFCURVE",
"78 842 CURVE SMOOTH",
"79 768 OFFCURVE",
"95 712 OFFCURVE",
"114 647 CURVE SMOOTH",
"120 626 OFFCURVE",
"127 603 OFFCURVE",
"133 579 CURVE SMOOTH",
"136 568 OFFCURVE",
"139 549 OFFCURVE",
"142 527 CURVE SMOOTH",
"148 490 OFFCURVE",
"154 444 OFFCURVE",
"164 424 CURVE SMOOTH",
"164 424 OFFCURVE",
"164 423 OFFCURVE",
"164 423 CURVE SMOOTH",
"165 418 OFFCURVE",
"166 405 OFFCURVE",
"165 354 CURVE",
"156 272 OFFCURVE",
"164 178 OFFCURVE",
"172 87 CURVE SMOOTH",
"175 56 OFFCURVE",
"177 26 OFFCURVE",
"179 -3 CURVE SMOOTH",
"179 -6 OFFCURVE",
"177 -9 OFFCURVE",
"173 -10 CURVE SMOOTH",
"173 -10 OFFCURVE",
"173 -10 OFFCURVE",
"173 -10 CURVE SMOOTH"
);
},
{
closed = 1;
nodes = (
"157 415 OFFCURVE",
"156 415 OFFCURVE",
"155 416 CURVE SMOOTH",
"152 417 OFFCURVE",
"151 421 OFFCURVE",
"152 425 CURVE",
"157 433 OFFCURVE",
"177 547 OFFCURVE",
"178 558 CURVE SMOOTH",
"186 617 OFFCURVE",
"188 628 OFFCURVE",
"196 680 CURVE SMOOTH",
"198 693 LINE SMOOTH",
"202 715 OFFCURVE",
"203 736 OFFCURVE",
"204 755 CURVE SMOOTH",
"206 783 OFFCURVE",
"207 811 OFFCURVE",
"216 846 CURVE SMOOTH",
"217 850 OFFCURVE",
"220 852 OFFCURVE",
"224 851 CURVE SMOOTH",
"227 850 OFFCURVE",
"229 847 OFFCURVE",
"228 843 CURVE SMOOTH",
"220 809 OFFCURVE",
"219 783 OFFCURVE",
"217 754 CURVE SMOOTH",
"216 735 OFFCURVE",
"215 714 OFFCURVE",
"211 691 CURVE SMOOTH",
"209 678 LINE SMOOTH",
"201 626 OFFCURVE",
"199 616 OFFCURVE",
"191 556 CURVE SMOOTH",
"191 555 OFFCURVE",
"170 428 OFFCURVE",
"164 418 CURVE SMOOTH",
"162 416 OFFCURVE",
"160 415 OFFCURVE",
"158 415 CURVE SMOOTH"
);
}
);
width = 290;
}
);
unicode = 0059;
},
{
glyphname = Z;
lastChange = "2013-05-19 18:22:52 +0000";
layers = (
{
anchors = (
{
name = top;
position = "{150, 500}";
}
);
layerId = "204CD004-05F3-49D2-8673-0D9320CD8B89";
name = Regular;
paths = (
{
closed = 1;
nodes = (
"93 -10 OFFCURVE",
"91 -9 OFFCURVE",
"90 -8 CURVE SMOOTH",
"89 -7 OFFCURVE",
"88 -5 OFFCURVE",
"88 -3 CURVE SMOOTH",
"96 244 OFFCURVE",
"139 598 OFFCURVE",
"177 849 CURVE",
"168 850 OFFCURVE",
"157 849 OFFCURVE",
"146 848 CURVE SMOOTH",
"134 847 OFFCURVE",
"108 846 OFFCURVE",
"97 847 CURVE SMOOTH",
"93 847 OFFCURVE",
"94 861 OFFCURVE",
"97 860 CURVE",
"108 860 OFFCURVE",
"134 860 OFFCURVE",
"145 861 CURVE SMOOTH",
"160 862 OFFCURVE",
"173 863 OFFCURVE",
"186 861 CURVE SMOOTH",
"189 861 OFFCURVE",
"192 857 OFFCURVE",
"191 854 CURVE SMOOTH",
"153 605 OFFCURVE",
"110 252 OFFCURVE",
"101 4 CURVE",
"114 5 OFFCURVE",
"126 5 OFFCURVE",
"138 5 CURVE SMOOTH",
"154 5 OFFCURVE",
"173 4 OFFCURVE",
"188 7 CURVE SMOOTH",
"192 8 OFFCURVE",
"195 -5 OFFCURVE",
"191 -6 CURVE SMOOTH",
"175 -9 OFFCURVE",
"154 -8 OFFCURVE",
"138 -8 CURVE SMOOTH",
"125 -8 OFFCURVE",
"111 -8 OFFCURVE",
"95 -9 CURVE SMOOTH",
"95 -10 OFFCURVE",
"95 -10 OFFCURVE",
"94 -10 CURVE SMOOTH"
);
}
);
width = 280;
}
);
unicode = 005A;
},
{
glyphname = a;
lastChange = "2013-06-15 04:50:59 +0000";
layers = (
{
anchors = (
{
name = ogonek;
position = "{528, 10}";
},
{
name = top;
position = "{288, 250}";
}
);
layerId = "204CD004-05F3-49D2-8673-0D9320CD8B89";
name = Regular;
paths = (
{
closed = 1;
nodes = (
"263 10 LINE",
"236 -4 OFFCURVE",
"230 12 OFFCURVE",
"209 33 CURVE SMOOTH",
"197 46 OFFCURVE",
"191 61 OFFCURVE",
"188 64 CURVE",
"165 42 OFFCURVE",
"147 13 OFFCURVE",
"123 6 CURVE SMOOTH",
"56 -13 OFFCURVE",
"49 24 OFFCURVE",
"39 87 CURVE SMOOTH",
"28 153 OFFCURVE",
"30 223 OFFCURVE",
"31 290 CURVE SMOOTH",
"32 339 OFFCURVE",
"39 378 OFFCURVE",
"52 425 CURVE SMOOTH",
"66 475 OFFCURVE",
"66 475 OFFCURVE",
"96 494 CURVE SMOOTH",
"139 522 OFFCURVE",
"183 501 OFFCURVE",
"192 492 CURVE",
"208 437 OFFCURVE",
"201 360 OFFCURVE",
"199 301 CURVE SMOOTH",
"197 247 OFFCURVE",
"190 186 OFFCURVE",
"195 133 CURVE SMOOTH",
"199 93 OFFCURVE",
"196 33 OFFCURVE",
"257 31 CURVE"
);
},
{
closed = 1;
nodes = (
"84 484 OFFCURVE",
"65 456 OFFCURVE",
"62 430 CURVE",
"36 274 OFFCURVE",
"32 313 OFFCURVE",
"56 90 CURVE SMOOTH",
"58 73 OFFCURVE",
"70 39 OFFCURVE",
"74 35 CURVE SMOOTH",
"100 8 OFFCURVE",
"158 45 OFFCURVE",
"169 73 CURVE SMOOTH",
"185 114 OFFCURVE",
"178 132 OFFCURVE",
"180 162 CURVE SMOOTH",
"183 209 OFFCURVE",
"184 258 OFFCURVE",
"183 305 CURVE SMOOTH",
"182 351 OFFCURVE",
"185 398 OFFCURVE",
"184 443 CURVE SMOOTH",
"183 482 OFFCURVE",
"185 506 OFFCURVE",
"122 497 CURVE"
);
}
);
width = 277;
}
);
unicode = 0061;
},
{
glyphname = b;
lastChange = "2013-05-19 19:32:15 +0000";
layers = (
{
layerId = "204CD004-05F3-49D2-8673-0D9320CD8B89";
name = Regular;
paths = (
{
closed = 1;
nodes = (
"78 650 OFFCURVE",
"75.1729 624.841 OFFCURVE",
"81.2461 498.022 CURVE",
"91.834 500.696 OFFCURVE",
"128.192 504.153 OFFCURVE",
"137 505 CURVE SMOOTH",
"183.867 509.508 OFFCURVE",
"221.154 479.386 OFFCURVE",
"231.84 433.765 CURVE SMOOTH",
"247.056 368.816 OFFCURVE",
"241.801 287.403 OFFCURVE",
"242.309 222.37 CURVE SMOOTH",
"242.666 176.516 OFFCURVE",
"245.21 163.643 OFFCURVE",
"243.808 117.849 CURVE SMOOTH",
"243.247 99.4619 OFFCURVE",
"247.374 85.5439 OFFCURVE",
"241.253 61.5 CURVE",
"235.836 31.9902 OFFCURVE",
"214.367 5.15527 OFFCURVE",
"179 1.43457 CURVE SMOOTH",
"119.964 -3 OFFCURVE",
"81.8945 0.783203 OFFCURVE",
"76.8887 3.44531 CURVE",
"71.2695 134.653 OFFCURVE",
"71.165 337.861 OFFCURVE",
"67.2119 469.134 CURVE SMOOTH",
"65.1289 538.429 OFFCURVE",
"65.585 607.811 OFFCURVE",
"62.2227 677.019 CURVE",
"66 727 OFFCURVE",
"64.7334 775.424 OFFCURVE",
"64.5107 788.562 CURVE",
"75.6001 785.773 OFFCURVE",
"67.6953 785.877 OFFCURVE",
"81.417 780.806 CURVE"
);
},
{
closed = 1;
nodes = (
"116.821 18.6924 OFFCURVE",
"225.102 1.43457 OFFCURVE",
"228.973 73.4902 CURVE",
"227.651 161.026 OFFCURVE",
"226.301 318.334 OFFCURVE",
"225.47 405.881 CURVE SMOOTH",
"225.125 441.652 OFFCURVE",
"180.961 492.042 OFFCURVE",
"140.961 489.042 CURVE SMOOTH",
"133.18 488.458 OFFCURVE",
"96.1299 484.97 OFFCURVE",
"83.8799 483.212 CURVE",
"89.0703 421.496 OFFCURVE",
"87.2642 303.417 OFFCURVE",
"89.2607 242.559 CURVE",
"93.6338 181.24 OFFCURVE",
"89.7129 87.6172 OFFCURVE",
"93.4883 23.5869 CURVE"
);
}
);
width = 286;
}
);
unicode = 0062;
},
{
glyphname = c;
lastChange = "2013-05-19 19:54:27 +0000";
layers = (
{
anchors = (
{
name = bottom;
position = "{274, 0}";
},
{
name = top;
position = "{274, 250}";
}
);
layerId = "204CD004-05F3-49D2-8673-0D9320CD8B89";
name = Regular;
paths = (
{
closed = 1;
nodes = (
"205 128 OFFCURVE",
"207 98 OFFCURVE",
"204 67 CURVE SMOOTH",
"202 45 OFFCURVE",
"202 31 OFFCURVE",
"189 20 CURVE SMOOTH",
"146 -18 OFFCURVE",
"95 -7 OFFCURVE",
"67 50 CURVE SMOOTH",
"58 68 OFFCURVE",
"53 89 OFFCURVE",
"52 109 CURVE SMOOTH",
"50 197 OFFCURVE",
"49 285 OFFCURVE",
"51 373 CURVE SMOOTH",
"52 408 OFFCURVE",
"58 436 OFFCURVE",
"65 471 CURVE SMOOTH",
"70 495 OFFCURVE",
"96 515 OFFCURVE",
"127 509 CURVE SMOOTH",
"173 500 OFFCURVE",
"184 467 OFFCURVE",
"198 427 CURVE SMOOTH",
"202 414 OFFCURVE",
"198 366 OFFCURVE",
"198 359 CURVE",
"198 357 OFFCURVE",
"193 354 OFFCURVE",
"189 359 CURVE",
"191 435 OFFCURVE",
"180 442 OFFCURVE",
"175 452 CURVE SMOOTH",
"159 487 OFFCURVE",
"108 528 OFFCURVE",
"82 470 CURVE",
"66 439 OFFCURVE",
"68 348 OFFCURVE",
"65 267 CURVE SMOOTH",
"63 207 OFFCURVE",
"63 105 OFFCURVE",
"74 73 CURVE SMOOTH",
"78 61 OFFCURVE",
"109 13 OFFCURVE",
"138 16 CURVE",
"155 17 OFFCURVE",
"175 21 OFFCURVE",
"182 40 CURVE SMOOTH",
"199 80 OFFCURVE",
"193 151 OFFCURVE",
"193 160 CURVE SMOOTH",
"193 168 OFFCURVE",
"203 166 OFFCURVE",
"207 162 CURVE"
);
}
);
width = 257;
}
);
unicode = 0063;
},
{
glyphname = d;
lastChange = "2013-05-19 19:55:20 +0000";
layers = (
{
anchors = (
{
name = center;
position = "{267, 125}";
}
);
layerId = "204CD004-05F3-49D2-8673-0D9320CD8B89";
name = Regular;
paths = (
{
closed = 1;
nodes = (
"190 558 OFFCURVE",
"189 555 OFFCURVE",
"189 606 CURVE SMOOTH",
"190 665 OFFCURVE",
"185 751 OFFCURVE",
"185 781 CURVE SMOOTH",
"185 784 OFFCURVE",
"198 791 OFFCURVE",
"198 787 CURVE SMOOTH",
"200 731 OFFCURVE",
"203 712 OFFCURVE",
"203 672 CURVE SMOOTH",
"204 591 OFFCURVE",
"203 550 OFFCURVE",
"205 468 CURVE SMOOTH",
"206 394 OFFCURVE",
"201 319 OFFCURVE",
"204 245 CURVE SMOOTH",
"207 174 OFFCURVE",
"207 103 OFFCURVE",
"209 32 CURVE SMOOTH",
"209 15 OFFCURVE",
"203 6 OFFCURVE",
"200 4 CURVE",
"194 0 OFFCURVE",
"107 -2 OFFCURVE",
"86 7 CURVE SMOOTH",
"53 20 OFFCURVE",
"38 50 OFFCURVE",
"37 88 CURVE SMOOTH",
"36 140 OFFCURVE",
"30 192 OFFCURVE",
"30 243 CURVE",
"36 315 OFFCURVE",
"32 386 OFFCURVE",
"48 456 CURVE",
"50 477 OFFCURVE",
"80 506 OFFCURVE",
"113 506 CURVE SMOOTH",
"126 506 OFFCURVE",
"173 512 OFFCURVE",
"190 501 CURVE"
);
},
{
closed = 1;
nodes = (
"70 486 OFFCURVE",
"62 481 OFFCURVE",
"55 407 CURVE",
"37 296 OFFCURVE",
"35 186 OFFCURVE",
"59 73 CURVE",
"66 10 OFFCURVE",
"149 22 OFFCURVE",
"162 22 CURVE SMOOTH",
"191 22 OFFCURVE",
"196 31 OFFCURVE",
"195 70 CURVE SMOOTH",
"194 127 OFFCURVE",
"191 431 OFFCURVE",
"191 488 CURVE SMOOTH",
"191 496 OFFCURVE",
"130 500 OFFCURVE",
"107 497 CURVE"
);
}
);
width = 239;
}
);
unicode = 0064;
},
{
glyphname = e;
lastChange = "2013-05-19 20:22:09 +0000";
layers = (
{
anchors = (
{
name = bottom;
position = "{264, 0}";
},
{
name = ogonek;
position = "{504, 10}";
},
{
name = top;
position = "{264, 250}";
}
);
layerId = "204CD004-05F3-49D2-8673-0D9320CD8B89";
name = Regular;
paths = (
{
closed = 1;
nodes = (
"62 173 OFFCURVE",
"29 9 OFFCURVE",
"104 15 CURVE SMOOTH",
"174 22 OFFCURVE",
"169 119 OFFCURVE",
"169 124 CURVE",
"173 128 OFFCURVE",
"178 128 OFFCURVE",
"180 125 CURVE",
"180 115 OFFCURVE",
"179 -2 OFFCURVE",
"97 -1 CURVE SMOOTH",
"50 -1 OFFCURVE",
"51 21 OFFCURVE",
"44 61 CURVE",
"39 156 OFFCURVE",
"39 257 OFFCURVE",
"45 352 CURVE SMOOTH",
"47 399 OFFCURVE",
"43 422 OFFCURVE",
"48 457 CURVE SMOOTH",
"51 479 OFFCURVE",
"70 499 OFFCURVE",
"96 505 CURVE SMOOTH",
"124 511 OFFCURVE",
"161 508 OFFCURVE",
"172 489 CURVE SMOOTH",
"199 443 OFFCURVE",
"184 262 OFFCURVE",
"185 250 CURVE",
"183 230 OFFCURVE",
"185 237 OFFCURVE",
"153 236 CURVE SMOOTH",
"133 235 OFFCURVE",
"86 238 OFFCURVE",
"57 238 CURVE"
);
},
{
closed = 1;
nodes = (
"80 497 OFFCURVE",
"65 480 OFFCURVE",
"62 454 CURVE SMOOTH",
"58 414 OFFCURVE",
"57 291 OFFCURVE",
"57 250 CURVE",
"73 249 OFFCURVE",
"157 246 OFFCURVE",
"172 245 CURVE",
"178 308 OFFCURVE",
"186 411 OFFCURVE",
"173 455 CURVE SMOOTH",
"162 495 OFFCURVE",
"144 498 OFFCURVE",
"114 497 CURVE SMOOTH"
);
}
);
width = 238;
}
);
unicode = 0065;
},
{
glyphname = f;
lastChange = "2013-06-15 02:31:46 +0000";
layers = (
{
layerId = "204CD004-05F3-49D2-8673-0D9320CD8B89";
name = Regular;
paths = (
{
closed = 1;
nodes = (
"112 128 OFFCURVE",
"114 98 OFFCURVE",
"114 -21 CURVE",
"108 -22 OFFCURVE",
"98 -24 OFFCURVE",
"97 -17 CURVE",
"99 63 OFFCURVE",
"98 56 OFFCURVE",
"99 136 CURVE SMOOTH",
"99 170 OFFCURVE",
"100 219 OFFCURVE",
"96 253 CURVE",
"70 253 OFFCURVE",
"49 252 OFFCURVE",
"47 253 CURVE",
"46 255 OFFCURVE",
"47 261 OFFCURVE",
"47 265 CURVE",
"59 268 OFFCURVE",
"70 267 OFFCURVE",
"96 267 CURVE",
"97 276 OFFCURVE",
"91 369 OFFCURVE",
"92 378 CURVE SMOOTH",
"96 447 OFFCURVE",
"90 586 OFFCURVE",
"94 655 CURVE SMOOTH",
"96 699 OFFCURVE",
"90 751 OFFCURVE",
"138 776 CURVE SMOOTH",
"185 800 OFFCURVE",
"223 781 OFFCURVE",
"228 728 CURVE",
"230 652 OFFCURVE",
"226 609 OFFCURVE",
"229 573 CURVE",
"228 569 OFFCURVE",
"218 566 OFFCURVE",
"218 572 CURVE",
"221 628 OFFCURVE",
"215 639 OFFCURVE",
"216 683 CURVE SMOOTH",
"216 698 OFFCURVE",
"226 777 OFFCURVE",
"173 772 CURVE SMOOTH",
"114 769 OFFCURVE",
"115 717 OFFCURVE",
"111 696 CURVE SMOOTH",
"107 669 OFFCURVE",
"108 641 OFFCURVE",
"105 614 CURVE",
"103 498 OFFCURVE",
"113 563 OFFCURVE",
"108 408 CURVE SMOOTH",
"108 404 OFFCURVE",
"112 267 OFFCURVE",
"112 267 CURVE SMOOTH",
"112 267 OFFCURVE",
"101 265 OFFCURVE",
"160 267 CURVE",
"164 268 OFFCURVE",
"164 255 OFFCURVE",
"159 254 CURVE SMOOTH",
"135 254 OFFCURVE",
"136 253 OFFCURVE",
"112 253 CURVE"
);
}
);
width = 239;
}
);
unicode = 0066;
},
{
glyphname = g;
lastChange = "2013-05-19 20:27:17 +0000";
layers = (
{
anchors = (
{
name = top;
position = "{263, 250}";
}
);
layerId = "204CD004-05F3-49D2-8673-0D9320CD8B89";
name = Regular;
paths = (
{
closed = 1;
nodes = (
"66 -72 OFFCURVE",
"57 -139 OFFCURVE",
"72 -156 CURVE SMOOTH",
"89 -177 OFFCURVE",
"138 -185 OFFCURVE",
"154 -175 CURVE",
"175 -155 OFFCURVE",
"164 -136 OFFCURVE",
"164 -65 CURVE SMOOTH",
"164 -24 OFFCURVE",
"169 -12 OFFCURVE",
"168 29 CURVE SMOOTH",
"168 43 OFFCURVE",
"155 23 OFFCURVE",
"121 26 CURVE SMOOTH",
"62 32 OFFCURVE",
"40 51 OFFCURVE",
"40 111 CURVE SMOOTH",
"39 212 OFFCURVE",
"40 327 OFFCURVE",
"40 428 CURVE SMOOTH",
"41 476 OFFCURVE",
"73 510 OFFCURVE",
"107 508 CURVE SMOOTH",
"121 507 OFFCURVE",
"172 504 OFFCURVE",
"182 501 CURVE",
"190 497 OFFCURVE",
"188 446 OFFCURVE",
"188 423 CURVE SMOOTH",
"189 345 OFFCURVE",
"187 247 OFFCURVE",
"185 168 CURVE SMOOTH",
"184 105 OFFCURVE",
"183 58 OFFCURVE",
"182 -68 CURVE SMOOTH",
"182 -115 OFFCURVE",
"188 -119 OFFCURVE",
"180 -157 CURVE SMOOTH",
"168 -208 OFFCURVE",
"103 -199 OFFCURVE",
"67 -175 CURVE",
"37 -158 OFFCURVE",
"47 -44 OFFCURVE",
"47 -38 CURVE",
"53 -35 OFFCURVE",
"52 -37 OFFCURVE",
"61 -37 CURVE"
);
},
{
closed = 1;
nodes = (
"129 43 OFFCURVE",
"168 50 OFFCURVE",
"168 66 CURVE",
"170 124 OFFCURVE",
"174 233 OFFCURVE",
"173 291 CURVE SMOOTH",
"173 337 OFFCURVE",
"182 443 OFFCURVE",
"177 488 CURVE",
"176 492 OFFCURVE",
"94 507 OFFCURVE",
"75 486 CURVE SMOOTH",
"49 456 OFFCURVE",
"55 378 OFFCURVE",
"54 356 CURVE SMOOTH",
"53 298 OFFCURVE",
"55 217 OFFCURVE",
"55 159 CURVE SMOOTH",
"55 96 OFFCURVE",
"55 74 OFFCURVE",
"74 61 CURVE SMOOTH",
"81 55 OFFCURVE",
"96 53 OFFCURVE",
"109 49 CURVE"
);
}
);
width = 228;
}
);
unicode = 0067;
},
{
glyphname = h;
lastChange = "2013-05-19 20:22:25 +0000";
layers = (
{
anchors = (
{
name = center;
position = "{274, 125}";
},
{
name = top;
position = "{274, 250}";
}
);
layerId = "204CD004-05F3-49D2-8673-0D9320CD8B89";
name = Regular;
paths = (
{
closed = 1;
nodes = (
"74 495 OFFCURVE",
"124 490 OFFCURVE",
"124 490 CURVE SMOOTH",
"124 490 OFFCURVE",
"184 479 OFFCURVE",
"192 445 CURVE SMOOTH",
"201 409 OFFCURVE",
"199 383 OFFCURVE",
"202 346 CURVE SMOOTH",
"210 249 OFFCURVE",
"201 14 OFFCURVE",
"204 1 CURVE SMOOTH",
"204 -3 OFFCURVE",
"192 -9 OFFCURVE",
"190 -1 CURVE",
"192 108 OFFCURVE",
"189 201 OFFCURVE",
"192 310 CURVE SMOOTH",
"194 383 OFFCURVE",
"185 422 OFFCURVE",
"170 452 CURVE",
"154 471 OFFCURVE",
"92 490 OFFCURVE",
"62 468 CURVE",
"55 444 OFFCURVE",
"58 207 OFFCURVE",
"61 129 CURVE SMOOTH",
"62 90 OFFCURVE",
"66 41 OFFCURVE",
"67 0 CURVE",
"65 -4 OFFCURVE",
"51 -3 OFFCURVE",
"50 1 CURVE",
"49 126 OFFCURVE",
"47 265 OFFCURVE",
"45 390 CURVE SMOOTH",
"45 441 OFFCURVE",
"45 492 OFFCURVE",
"42 544 CURVE SMOOTH",
"39 610 OFFCURVE",
"40 777 OFFCURVE",
"44 787 CURVE",
"44 788 OFFCURVE",
"54 782 OFFCURVE",
"54 781 CURVE",
"59 746 OFFCURVE",
"53 666 OFFCURVE",
"55 631 CURVE SMOOTH",
"59 513 OFFCURVE",
"59 491 OFFCURVE",
"61 486 CURVE"
);
}
);
width = 245;
}
);
unicode = 0068;
},
{
glyphname = i;
lastChange = "2013-05-19 19:55:37 +0000";
layers = (
{
layerId = "204CD004-05F3-49D2-8673-0D9320CD8B89";
name = Regular;
paths = (
{
closed = 1;
nodes = (
"35 313 OFFCURVE",
"39 349 OFFCURVE",
"34 459 CURVE",
"36 464 OFFCURVE",
"46 455 OFFCURVE",
"47 451 CURVE",
"52 371 OFFCURVE",
"51 250 OFFCURVE",
"54 170 CURVE SMOOTH",
"57 124 OFFCURVE",
"58 48 OFFCURVE",
"58 3 CURVE",
"56 -3 OFFCURVE",
"35 -7 OFFCURVE",
"37 4 CURVE",
"39 19 OFFCURVE",
"39 203 OFFCURVE",
"42 203 CURVE"
);
},
{
closed = 1;
nodes = (
"36 531 OFFCURVE",
"31 534 OFFCURVE",
"30 544 CURVE SMOOTH",
"30 550 OFFCURVE",
"35 568 OFFCURVE",
"42 567 CURVE SMOOTH",
"49 567 OFFCURVE",
"53 547 OFFCURVE",
"52 541 CURVE SMOOTH",
"50 536 OFFCURVE",
"48 531 OFFCURVE",
"44 529 CURVE"
);
}
);
width = 98;
}
);
unicode = 0069;
},
{
glyphname = j;
lastChange = "2013-05-19 18:25:46 +0000";
layers = (
{
layerId = "204CD004-05F3-49D2-8673-0D9320CD8B89";
name = Regular;
paths = (
{
closed = 1;
nodes = (
"90 -8 OFFCURVE",
"85 20 OFFCURVE",
"90 144 CURVE SMOOTH",
"93 211 OFFCURVE",
"85 433 OFFCURVE",
"92 483 CURVE",
"92 483 OFFCURVE",
"103 477 OFFCURVE",
"104 474 CURVE",
"100 427 OFFCURVE",
"104 336 OFFCURVE",
"103 290 CURVE SMOOTH",
"101 179 OFFCURVE",
"106 129 OFFCURVE",
"104 18 CURVE SMOOTH",
"102 -68 OFFCURVE",
"101 -18 OFFCURVE",
"101 -83 CURVE SMOOTH",
"102 -124 OFFCURVE",
"95 -191 OFFCURVE",
"59 -190 CURVE SMOOTH",
"33 -190 OFFCURVE",
"29 -188 OFFCURVE",
"14 -181 CURVE SMOOTH",
"-20 -165 OFFCURVE",
"-26 -111 OFFCURVE",
"-20 -84 CURVE",
"-17 -82 OFFCURVE",
"-3 -85 OFFCURVE",
"-3 -85 CURVE",
"-1 -100 OFFCURVE",
"-12 -147 OFFCURVE",
"20 -160 CURVE",
"45 -174 OFFCURVE",
"60 -177 OFFCURVE",
"72 -155 CURVE SMOOTH",
"86 -130 OFFCURVE",
"86 -87 OFFCURVE",
"87 -76 CURVE SMOOTH"
);
},
{
closed = 1;
nodes = (
"116 567 OFFCURVE",
"113 557 OFFCURVE",
"113 554 CURVE SMOOTH",
"111 546 OFFCURVE",
"108 534 OFFCURVE",
"104 533 CURVE SMOOTH",
"98 530 OFFCURVE",
"92 539 OFFCURVE",
"93 551 CURVE SMOOTH",
"94 557 OFFCURVE",
"98 566 OFFCURVE",
"106 572 CURVE"
);
}
);
width = 182;
}
);
unicode = 006A;
},
{
glyphname = k;
lastChange = "2013-05-19 19:52:18 +0000";
layers = (
{
anchors = (
{
name = bottom;
position = "{249, 0}";
}
);
layerId = "204CD004-05F3-49D2-8673-0D9320CD8B89";
name = Regular;
paths = (
{
closed = 1;
nodes = (
"57 1 OFFCURVE",
"44 4 OFFCURVE",
"44 4 CURVE",
"41 35 OFFCURVE",
"40 72 OFFCURVE",
"40 103 CURVE SMOOTH",
"42 159 OFFCURVE",
"45 279 OFFCURVE",
"47 335 CURVE SMOOTH",
"49 386 OFFCURVE",
"49 439 OFFCURVE",
"50 489 CURVE SMOOTH",
"53 592 OFFCURVE",
"52 742 OFFCURVE",
"54 788 CURVE",
"55 791 OFFCURVE",
"66 783 OFFCURVE",
"67 780 CURVE",
"65 717 OFFCURVE",
"68 618 OFFCURVE",
"67 563 CURVE SMOOTH",
"65 489 OFFCURVE",
"63 434 OFFCURVE",
"62 359 CURVE SMOOTH",
"62 358 OFFCURVE",
"59 333 OFFCURVE",
"61 323 CURVE",
"77 371 OFFCURVE",
"128 463 OFFCURVE",
"141 508 CURVE",
"143 513 OFFCURVE",
"156 504 OFFCURVE",
"156 501 CURVE",
"141 455 OFFCURVE",
"130 427 OFFCURVE",
"104 382 CURVE SMOOTH",
"88 356 OFFCURVE",
"68 320 OFFCURVE",
"68 313 CURVE SMOOTH",
"68 306 OFFCURVE",
"106 232 OFFCURVE",
"112 219 CURVE SMOOTH",
"131 176 OFFCURVE",
"137 138 OFFCURVE",
"180 7 CURVE",
"180 5 OFFCURVE",
"167 5 OFFCURVE",
"166 5 CURVE",
"133 95 OFFCURVE",
"91 244 OFFCURVE",
"61 302 CURVE",
"59 302 OFFCURVE",
"56 99 OFFCURVE",
"61 4 CURVE"
);
}
);
width = 220;
}
);
unicode = 006B;
},
{
glyphname = l;
lastChange = "2013-05-19 19:53:08 +0000";
layers = (
{
anchors = (
{
name = bottom;
position = "{232, 0}";
},
{
name = top;
position = "{232, 250}";
},
{
name = topright;
position = "{512, 250}";
}
);
layerId = "204CD004-05F3-49D2-8673-0D9320CD8B89";
name = Regular;
paths = (
{
closed = 1;
nodes = (
"50 55 OFFCURVE",
"52 199 OFFCURVE",
"53 254 CURVE SMOOTH",
"54 306 OFFCURVE",
"54 359 OFFCURVE",
"51 411 CURVE SMOOTH",
"44 517 OFFCURVE",
"52 696 OFFCURVE",
"52 731 CURVE",
"51 736 OFFCURVE",
"66 724 OFFCURVE",
"66 723 CURVE",
"71 717 OFFCURVE",
"62 637 OFFCURVE",
"63 579 CURVE SMOOTH",
"64 448 OFFCURVE",
"67 317 OFFCURVE",
"67 186 CURVE SMOOTH",
"67 122 OFFCURVE",
"64 67 OFFCURVE",
"67 4 CURVE",
"40 0 LINE"
);
}
);
width = 108;
}
);
unicode = 006C;
},
{
glyphname = m;
lastChange = "2013-05-19 05:24:59 +0000";
layers = (
{
layerId = "204CD004-05F3-49D2-8673-0D9320CD8B89";
name = Regular;
paths = (
{
closed = 1;
nodes = (
"41 479 OFFCURVE",
"37 482 OFFCURVE",
"38 485 CURVE",
"44 491 OFFCURVE",
"51 497 OFFCURVE",
"59 502 CURVE",
"74 509 OFFCURVE",
"74 506 OFFCURVE",
"77 498 CURVE SMOOTH",
"81 489 OFFCURVE",
"92 450 OFFCURVE",
"93 448 CURVE",
"107 481 OFFCURVE",
"127 503 OFFCURVE",
"165 502 CURVE SMOOTH",
"174 502 OFFCURVE",
"184 462 OFFCURVE",
"190 434 CURVE",
"200 445 OFFCURVE",
"207 462 OFFCURVE",
"222 476 CURVE SMOOTH",
"241 495 OFFCURVE",
"242 510 OFFCURVE",
"258 500 CURVE SMOOTH",
"272 491 OFFCURVE",
"289 454 OFFCURVE",
"289 438 CURVE SMOOTH",
"292 397 OFFCURVE",
"291 355 OFFCURVE",
"290 314 CURVE SMOOTH",
"288 265 OFFCURVE",
"291 215 OFFCURVE",
"292 166 CURVE SMOOTH",
"293 110 OFFCURVE",
"295 60 OFFCURVE",
"293 4 CURVE",
"289 0 OFFCURVE",
"271 -2 OFFCURVE",
"272 8 CURVE",
"274 44 OFFCURVE",
"277 70 OFFCURVE",
"278 106 CURVE SMOOTH",
"280 168 OFFCURVE",
"275 229 OFFCURVE",
"276 291 CURVE SMOOTH",
"277 320 OFFCURVE",
"276 352 OFFCURVE",
"278 381 CURVE SMOOTH",
"278 396 OFFCURVE",
"281 456 OFFCURVE",
"251 483 CURVE",
"236 501 OFFCURVE",
"209 450 OFFCURVE",
"196 425 CURVE SMOOTH",
"187 409 OFFCURVE",
"190 334 OFFCURVE",
"187 315 CURVE",
"183 296 OFFCURVE",
"185 260 OFFCURVE",
"185 240 CURVE SMOOTH",
"186 171 OFFCURVE",
"185 82 OFFCURVE",
"184 7 CURVE",
"184 7 OFFCURVE",
"171 -3 OFFCURVE",
"170 6 CURVE SMOOTH",
"166 36 OFFCURVE",
"170 89 OFFCURVE",
"171 119 CURVE SMOOTH",
"173 193 OFFCURVE",
"170 246 OFFCURVE",
"177 320 CURVE SMOOTH",
"187 431 OFFCURVE",
"174 457 OFFCURVE",
"165 480 CURVE",
"150 502 OFFCURVE",
"109 479 OFFCURVE",
"97 428 CURVE",
"92 420 OFFCURVE",
"85 318 OFFCURVE",
"84 307 CURVE SMOOTH",
"78 247 OFFCURVE",
"79 187 OFFCURVE",
"74 127 CURVE SMOOTH",
"71 89 OFFCURVE",
"74 44 OFFCURVE",
"78 6 CURVE",
"75 3 OFFCURVE",
"60 -5 OFFCURVE",
"59 5 CURVE SMOOTH",
"58 32 OFFCURVE",
"57 66 OFFCURVE",
"59 94 CURVE SMOOTH",
"63 151 OFFCURVE",
"61 208 OFFCURVE",
"66 265 CURVE SMOOTH",
"71 319 OFFCURVE",
"75 383 OFFCURVE",
"80 437 CURVE SMOOTH",
"81 452 OFFCURVE",
"79 483 OFFCURVE",
"71 490 CURVE SMOOTH",
"62 498 OFFCURVE",
"64 493 OFFCURVE",
"44 479 CURVE"
);
}
);
width = 340;
}
);
unicode = 006D;
},
{
glyphname = n;
lastChange = "2013-05-19 19:52:10 +0000";
layers = (
{
anchors = (
{
name = bottom;
position = "{284, 0}";
},
{
name = top;
position = "{284, 250}";
}
);
layerId = "204CD004-05F3-49D2-8673-0D9320CD8B89";
name = Regular;
paths = (
{
closed = 1;
nodes = (
"93 445 OFFCURVE",
"84 439 OFFCURVE",
"79 290 CURVE SMOOTH",
"77 226 OFFCURVE",
"85 156 OFFCURVE",
"79 92 CURVE SMOOTH",
"76 64 OFFCURVE",
"81 29 OFFCURVE",
"85 2 CURVE",
"85 2 OFFCURVE",
"64 -6 OFFCURVE",
"65 1 CURVE SMOOTH",
"69 33 OFFCURVE",
"64 78 OFFCURVE",
"67 110 CURVE SMOOTH",
"73 186 OFFCURVE",
"62 262 OFFCURVE",
"68 339 CURVE SMOOTH",
"70 378 OFFCURVE",
"78 449 OFFCURVE",
"73 495 CURVE",
"73 495 OFFCURVE",
"70 498 OFFCURVE",
"48 474 CURVE",
"44 474 OFFCURVE",
"38 479 OFFCURVE",
"40 483 CURVE",
"70 515 OFFCURVE",
"77 503 OFFCURVE",
"77 503 CURVE",
"84 494 OFFCURVE",
"86 488 OFFCURVE",
"85 449 CURVE",
"104 484 OFFCURVE",
"122 490 OFFCURVE",
"142 501 CURVE SMOOTH",
"169 517 OFFCURVE",
"197 484 OFFCURVE",
"199 452 CURVE SMOOTH",
"202 403 OFFCURVE",
"200 355 OFFCURVE",
"203 306 CURVE SMOOTH",
"208 217 OFFCURVE",
"198 90 OFFCURVE",
"206 1 CURVE",
"205 -1 OFFCURVE",
"188 -3 OFFCURVE",
"187 0 CURVE",
"189 76 OFFCURVE",
"201 188 OFFCURVE",
"193 261 CURVE",
"189 361 OFFCURVE",
"205 449 OFFCURVE",
"174 488 CURVE",
"148 505 OFFCURVE",
"136 489 OFFCURVE",
"108 465 CURVE"
);
}
);
width = 246;
}
);
unicode = 006E;
},
{
glyphname = o;
lastChange = "2013-05-19 20:21:56 +0000";
layers = (
{
anchors = (
{
name = top;
position = "{250, 250}";
}
);
layerId = "204CD004-05F3-49D2-8673-0D9320CD8B89";
name = Regular;
paths = (
{
closed = 1;
nodes = (
"34 238 OFFCURVE",
"23 303 OFFCURVE",
"27 377 CURVE SMOOTH",
"28 396 OFFCURVE",
"28 393 OFFCURVE",
"29 413 CURVE SMOOTH",
"30 448 OFFCURVE",
"42 478 OFFCURVE",
"69 502 CURVE SMOOTH",
"88 519 OFFCURVE",
"129 519 OFFCURVE",
"147 498 CURVE SMOOTH",
"175 466 OFFCURVE",
"173 430 OFFCURVE",
"173 387 CURVE SMOOTH",
"172 337 OFFCURVE",
"173 313 OFFCURVE",
"169 263 CURVE SMOOTH",
"163 188 OFFCURVE",
"170 126 OFFCURVE",
"158 51 CURVE SMOOTH",
"153 21 OFFCURVE",
"133 -15 OFFCURVE",
"91 -14 CURVE SMOOTH",
"51 -13 OFFCURVE",
"35 24 OFFCURVE",
"33 65 CURVE SMOOTH",
"32 98 OFFCURVE",
"30 164 OFFCURVE",
"29 164 CURVE"
);
},
{
closed = 1;
nodes = (
"84 2 OFFCURVE",
"116 -10 OFFCURVE",
"140 33 CURVE SMOOTH",
"152 55 OFFCURVE",
"149 110 OFFCURVE",
"150 128 CURVE SMOOTH",
"153 204 OFFCURVE",
"157 270 OFFCURVE",
"158 345 CURVE SMOOTH",
"158 365 OFFCURVE",
"162 419 OFFCURVE",
"159 438 CURVE",
"158 468 OFFCURVE",
"148 502 OFFCURVE",
"91 502 CURVE",
"75 500 OFFCURVE",
"49 479 OFFCURVE",
"45 441 CURVE SMOOTH",
"30 309 OFFCURVE",
"39 31 OFFCURVE",
"55 24 CURVE"
);
}
);
width = 200;
}
);
unicode = 006F;
},
{
glyphname = p;
lastChange = "2013-05-19 19:51:34 +0000";
layers = (
{
layerId = "204CD004-05F3-49D2-8673-0D9320CD8B89";
name = Regular;
paths = (
{
closed = 1;
nodes = (
"60 -26 OFFCURVE",
"56 -179 OFFCURVE",
"56 -186 CURVE",
"55 -188 OFFCURVE",
"41 -190 OFFCURVE",
"40 -187 CURVE",
"42 -165 OFFCURVE",
"43 -100 OFFCURVE",
"44 -82 CURVE SMOOTH",
"47 -23 OFFCURVE",
"49 83 OFFCURVE",
"48 141 CURVE SMOOTH",
"47 177 OFFCURVE",
"51 407 OFFCURVE",
"47 498 CURVE",
"46 508 OFFCURVE",
"54 506 OFFCURVE",
"84 510 CURVE",
"109 515 OFFCURVE",
"114 512 OFFCURVE",
"138 510 CURVE SMOOTH",
"184 507 OFFCURVE",
"188 478 OFFCURVE",
"189 432 CURVE",
"198 372 OFFCURVE",
"201 313 OFFCURVE",
"197 252 CURVE SMOOTH",
"191 183 OFFCURVE",
"194 202 OFFCURVE",
"189 134 CURVE SMOOTH",
"187 109 OFFCURVE",
"177 81 OFFCURVE",
"163 60 CURVE SMOOTH",
"148 37 OFFCURVE",
"138 33 OFFCURVE",
"97 38 CURVE SMOOTH",
"84 39 OFFCURVE",
"75 47 OFFCURVE",
"60 51 CURVE"
);
},
{
closed = 1;
nodes = (
"65 434 OFFCURVE",
"57 368 OFFCURVE",
"60 309 CURVE SMOOTH",
"64 237 OFFCURVE",
"60 199 OFFCURVE",
"59 68 CURVE",
"60 64 OFFCURVE",
"103 50 OFFCURVE",
"125 51 CURVE SMOOTH",
"166 52 OFFCURVE",
"172 114 OFFCURVE",
"176 140 CURVE SMOOTH",
"181 169 OFFCURVE",
"186 291 OFFCURVE",
"184 364 CURVE SMOOTH",
"183 398 OFFCURVE",
"185 456 OFFCURVE",
"172 480 CURVE SMOOTH",
"160 504 OFFCURVE",
"106 506 OFFCURVE",
"59 494 CURVE"
);
}
);
width = 239;
}
);
unicode = 0070;
},
{
glyphname = q;
lastChange = "2013-05-19 20:26:59 +0000";
layers = (
{
layerId = "204CD004-05F3-49D2-8673-0D9320CD8B89";
name = Regular;
paths = (
{
closed = 1;
nodes = (
"201 -176 OFFCURVE",
"208 -168 OFFCURVE",
"210 -169 CURVE SMOOTH",
"212 -170 OFFCURVE",
"213 -177 OFFCURVE",
"211 -184 CURVE SMOOTH",
"211 -185 OFFCURVE",
"191 -193 OFFCURVE",
"188 -193 CURVE SMOOTH",
"165 -199 OFFCURVE",
"163 -139 OFFCURVE",
"163 -101 CURVE SMOOTH",
"164 -51 OFFCURVE",
"166 -53 OFFCURVE",
"164 50 CURVE",
"141 42 OFFCURVE",
"140 34 OFFCURVE",
"109 33 CURVE SMOOTH",
"73 33 OFFCURVE",
"42 48 OFFCURVE",
"38 89 CURVE SMOOTH",
"32 140 OFFCURVE",
"33 163 OFFCURVE",
"31 215 CURVE SMOOTH",
"27 288 OFFCURVE",
"37 361 OFFCURVE",
"37 430 CURVE",
"36 472 OFFCURVE",
"35 499 OFFCURVE",
"94 505 CURVE SMOOTH",
"101 506 OFFCURVE",
"144 525 OFFCURVE",
"173 501 CURVE SMOOTH",
"177 498 OFFCURVE",
"177 421 OFFCURVE",
"177 415 CURVE SMOOTH",
"181 323 OFFCURVE",
"177 307 OFFCURVE",
"177 207 CURVE SMOOTH",
"177 107 OFFCURVE",
"176 -23 OFFCURVE",
"177 -99 CURVE SMOOTH",
"178 -110 OFFCURVE",
"174 -180 OFFCURVE",
"191 -178 CURVE"
);
},
{
closed = 1;
nodes = (
"48 451 OFFCURVE",
"47 410 OFFCURVE",
"48 392 CURVE SMOOTH",
"49 340 OFFCURVE",
"43 288 OFFCURVE",
"46 236 CURVE SMOOTH",
"50 183 OFFCURVE",
"42 137 OFFCURVE",
"51 85 CURVE",
"67 37 OFFCURVE",
"106 43 OFFCURVE",
"121 47 CURVE SMOOTH",
"181 63 OFFCURVE",
"165 54 OFFCURVE",
"165 136 CURVE",
"170 201 OFFCURVE",
"158 216 OFFCURVE",
"165 281 CURVE SMOOTH",
"168 321 OFFCURVE",
"168 483 OFFCURVE",
"160 492 CURVE SMOOTH",
"141 513 OFFCURVE",
"75 496 OFFCURVE",
"56 479 CURVE"
);
}
);
width = 232;
}
);
unicode = 0071;
},
{
glyphname = r;
lastChange = "2013-05-19 19:54:56 +0000";
layers = (
{
anchors = (
{
name = bottom;
position = "{266, 0}";
},
{
name = top;
position = "{266, 250}";
}
);
layerId = "204CD004-05F3-49D2-8673-0D9320CD8B89";
name = Regular;
paths = (
{
closed = 1;
nodes = (
"84 445 OFFCURVE",
"75 439 OFFCURVE",
"70 290 CURVE SMOOTH",
"68 226 OFFCURVE",
"72 160 OFFCURVE",
"70 92 CURVE SMOOTH",
"69 60 OFFCURVE",
"72 26 OFFCURVE",
"76 -1 CURVE",
"76 -1 OFFCURVE",
"55 -6 OFFCURVE",
"56 1 CURVE SMOOTH",
"60 33 OFFCURVE",
"57 78 OFFCURVE",
"58 110 CURVE SMOOTH",
"60 187 OFFCURVE",
"53 262 OFFCURVE",
"59 339 CURVE SMOOTH",
"61 378 OFFCURVE",
"69 449 OFFCURVE",
"64 495 CURVE",
"64 495 OFFCURVE",
"61 498 OFFCURVE",
"39 474 CURVE",
"35 474 OFFCURVE",
"29 479 OFFCURVE",
"31 483 CURVE",
"61 515 OFFCURVE",
"68 503 OFFCURVE",
"68 503 CURVE",
"75 494 OFFCURVE",
"77 488 OFFCURVE",
"76 449 CURVE",
"95 484 OFFCURVE",
"113 490 OFFCURVE",
"133 501 CURVE SMOOTH",
"160 517 OFFCURVE",
"188 484 OFFCURVE",
"190 452 CURVE SMOOTH",
"193 403 OFFCURVE",
"191 332 OFFCURVE",
"194 283 CURVE",
"194 283 OFFCURVE",
"184 279 OFFCURVE",
"184 282 CURVE",
"180 382 OFFCURVE",
"196 449 OFFCURVE",
"165 488 CURVE",
"139 505 OFFCURVE",
"127 489 OFFCURVE",
"99 465 CURVE"
);
}
);
width = 224;
}
);
unicode = 0072;
},
{
glyphname = s;
lastChange = "2013-05-19 19:49:41 +0000";
layers = (
{
anchors = (
{
name = bottom;
position = "{248, 0}";
},
{
name = top;
position = "{248, 250}";
}
);
layerId = "204CD004-05F3-49D2-8673-0D9320CD8B89";
name = Regular;
paths = (
{
closed = 1;
nodes = (
"44 389 OFFCURVE",
"46 386 OFFCURVE",
"47 333 CURVE SMOOTH",
"46 287 OFFCURVE",
"73 274 OFFCURVE",
"116 249 CURVE",
"145 230 OFFCURVE",
"149 212 OFFCURVE",
"149 177 CURVE SMOOTH",
"148 148 OFFCURVE",
"151 164 OFFCURVE",
"149 123 CURVE SMOOTH",
"146 61 OFFCURVE",
"160 0 OFFCURVE",
"87 0 CURVE",
"57 -3 OFFCURVE",
"41 20 OFFCURVE",
"38 46 CURVE SMOOTH",
"35 71 OFFCURVE",
"39 123 OFFCURVE",
"36 148 CURVE",
"36 154 OFFCURVE",
"48 152 OFFCURVE",
"49 149 CURVE",
"48 137 OFFCURVE",
"48 56 OFFCURVE",
"50 38 CURVE SMOOTH",
"54 1 OFFCURVE",
"130 -8 OFFCURVE",
"135 57 CURVE",
"141 84 OFFCURVE",
"141 149 OFFCURVE",
"140 176 CURVE SMOOTH",
"140 223 OFFCURVE",
"128 228 OFFCURVE",
"102 245 CURVE SMOOTH",
"70 265 OFFCURVE",
"38 282 OFFCURVE",
"37 312 CURVE",
"36 393 OFFCURVE",
"36 381 OFFCURVE",
"35 460 CURVE SMOOTH",
"34 497 OFFCURVE",
"53 509 OFFCURVE",
"86 509 CURVE SMOOTH",
"114 509 OFFCURVE",
"138 496 OFFCURVE",
"142 481 CURVE SMOOTH",
"156 423 OFFCURVE",
"153 400 OFFCURVE",
"151 337 CURVE",
"151 337 OFFCURVE",
"142 335 OFFCURVE",
"140 339 CURVE",
"148 391 OFFCURVE",
"143 433 OFFCURVE",
"134 480 CURVE SMOOTH",
"130 501 OFFCURVE",
"49 519 OFFCURVE",
"45 470 CURVE"
);
}
);
width = 188;
}
);
unicode = 0073;
},
{
glyphname = t;
lastChange = "2013-05-19 19:53:49 +0000";
layers = (
{
anchors = (
{
name = bottom;
position = "{282, 0}";
},
{
name = center;
position = "{282, 125}";
}
);
layerId = "204CD004-05F3-49D2-8673-0D9320CD8B89";
name = Regular;
paths = (
{
closed = 1;
nodes = (
"96 19 OFFCURVE",
"98 294 OFFCURVE",
"103 481 CURVE",
"87 481 OFFCURVE",
"56 479 OFFCURVE",
"40 480 CURVE",
"39 481 OFFCURVE",
"40 492 OFFCURVE",
"42 493 CURVE",
"47 495 OFFCURVE",
"97 495 OFFCURVE",
"104 495 CURVE",
"104 495 OFFCURVE",
"104 658 OFFCURVE",
"105 720 CURVE",
"105 722 OFFCURVE",
"120 714 OFFCURVE",
"121 711 CURVE",
"120 646 OFFCURVE",
"115 502 OFFCURVE",
"115 494 CURVE",
"140 494 OFFCURVE",
"155 495 OFFCURVE",
"173 492 CURVE",
"173 492 OFFCURVE",
"174 482 OFFCURVE",
"173 482 CURVE",
"151 482 OFFCURVE",
"115 482 OFFCURVE",
"115 481 CURVE",
"115 452 OFFCURVE",
"114 225 OFFCURVE",
"113 205 CURVE SMOOTH",
"110 110 OFFCURVE",
"117 11 OFFCURVE",
"116 -3 CURVE",
"115 -6 OFFCURVE",
"95 -9 OFFCURVE",
"95 -6 CURVE"
);
}
);
width = 213;
}
);
unicode = 0074;
},
{
glyphname = u;
lastChange = "2013-05-19 19:52:03 +0000";
layers = (
{
anchors = (
{
name = ogonek;
position = "{510, 10}";
},
{
name = top;
position = "{270, 250}";
}
);
layerId = "204CD004-05F3-49D2-8673-0D9320CD8B89";
name = Regular;
paths = (
{
closed = 1;
nodes = (
"41 390 OFFCURVE",
"46 343 OFFCURVE",
"44 268 CURVE SMOOTH",
"45 222 OFFCURVE",
"46 181 OFFCURVE",
"50 138 CURVE SMOOTH",
"53 108 OFFCURVE",
"46 50 OFFCURVE",
"68 27 CURVE",
"87 10 OFFCURVE",
"150 9 OFFCURVE",
"173 23 CURVE",
"200 36 OFFCURVE",
"191 104 OFFCURVE",
"190 126 CURVE SMOOTH",
"190 199 OFFCURVE",
"189 306 OFFCURVE",
"190 340 CURVE SMOOTH",
"192 392 OFFCURVE",
"190 451 OFFCURVE",
"196 502 CURVE",
"195 504 OFFCURVE",
"208 501 OFFCURVE",
"208 499 CURVE",
"205 456 OFFCURVE",
"206 409 OFFCURVE",
"202 367 CURVE SMOOTH",
"200 340 OFFCURVE",
"204 311 OFFCURVE",
"202 284 CURVE",
"202 237 OFFCURVE",
"204 189 OFFCURVE",
"201 142 CURVE SMOOTH",
"200 109 OFFCURVE",
"205 55 OFFCURVE",
"196 24 CURVE SMOOTH",
"191 5 OFFCURVE",
"153 -4 OFFCURVE",
"116 -3 CURVE SMOOTH",
"82 -3 OFFCURVE",
"58 4 OFFCURVE",
"48 36 CURVE",
"37 105 OFFCURVE",
"37 174 OFFCURVE",
"33 239 CURVE SMOOTH",
"30 288 OFFCURVE",
"30 337 OFFCURVE",
"30 386 CURVE SMOOTH",
"30 427 OFFCURVE",
"30 461 OFFCURVE",
"34 501 CURVE",
"34 509 OFFCURVE",
"48 501 OFFCURVE",
"48 501 CURVE"
);
}
);
width = 238;
}
);
unicode = 0075;
},
{
glyphname = v;
lastChange = "2013-05-19 18:15:06 +0000";
layers = (
{
layerId = "204CD004-05F3-49D2-8673-0D9320CD8B89";
name = Regular;
paths = (
{
closed = 1;
nodes = (
"107 3 OFFCURVE",
"101 33 OFFCURVE",
"95 59 CURVE SMOOTH",
"70 179 OFFCURVE",
"55 276 OFFCURVE",
"42 397 CURVE SMOOTH",
"38 432 OFFCURVE",
"37 471 OFFCURVE",
"30 503 CURVE",
"30 504 OFFCURVE",
"44 503 OFFCURVE",
"45 501 CURVE",
"55 439 OFFCURVE",
"53 402 OFFCURVE",
"63 314 CURVE SMOOTH",
"68 273 OFFCURVE",
"93 103 OFFCURVE",
"110 39 CURVE SMOOTH",
"112 30 OFFCURVE",
"112 27 OFFCURVE",
"119 24 CURVE",
"126 24 OFFCURVE",
"127 26 OFFCURVE",
"129 30 CURVE SMOOTH",
"145 56 OFFCURVE",
"156 234 OFFCURVE",
"161 269 CURVE SMOOTH",
"175 357 OFFCURVE",
"182 425 OFFCURVE",
"194 500 CURVE SMOOTH",
"194 502 OFFCURVE",
"208 503 OFFCURVE",
"208 500 CURVE",
"191 452 OFFCURVE",
"190 387 OFFCURVE",
"182 336 CURVE SMOOTH",
"175 295 OFFCURVE",
"171 253 OFFCURVE",
"167 212 CURVE SMOOTH",
"164 174 OFFCURVE",
"157 112 OFFCURVE",
"150 75 CURVE SMOOTH",
"139 23 OFFCURVE",
"135 1 OFFCURVE",
"119 -1 CURVE"
);
}
);
width = 251;
}
);
unicode = 0076;
},
{
glyphname = w;
lastChange = "2013-05-19 20:23:32 +0000";
layers = (
{
anchors = (
{
name = top;
position = "{287, 250}";
}
);
layerId = "204CD004-05F3-49D2-8673-0D9320CD8B89";
name = Regular;
paths = (
{
closed = 1;
nodes = (
"55 448 OFFCURVE",
"62 320 OFFCURVE",
"72 266 CURVE SMOOTH",
"78 231 OFFCURVE",
"88 150 OFFCURVE",
"101 59 CURVE",
"103 55 OFFCURVE",
"103 30 OFFCURVE",
"108 32 CURVE",
"126 73 OFFCURVE",
"124 292 OFFCURVE",
"134 349 CURVE SMOOTH",
"140 390 OFFCURVE",
"148 445 OFFCURVE",
"161 470 CURVE",
"164 470 OFFCURVE",
"161 469 OFFCURVE",
"164 468 CURVE",
"172 450 OFFCURVE",
"176 412 OFFCURVE",
"179 392 CURVE",
"194 307 OFFCURVE",
"195 251 OFFCURVE",
"204 181 CURVE SMOOTH",
"205 173 OFFCURVE",
"211 37 OFFCURVE",
"225 31 CURVE",
"249 65 OFFCURVE",
"247 238 OFFCURVE",
"254 277 CURVE SMOOTH",
"266 339 OFFCURVE",
"264 444 OFFCURVE",
"273 503 CURVE",
"275 505 OFFCURVE",
"291 507 OFFCURVE",
"291 506 CURVE",
"276 444 OFFCURVE",
"274 340 OFFCURVE",
"267 279 CURVE SMOOTH",
"261 233 OFFCURVE",
"262 187 OFFCURVE",
"255 141 CURVE SMOOTH",
"250 106 OFFCURVE",
"253 82 OFFCURVE",
"243 48 CURVE SMOOTH",
"239 37 OFFCURVE",
"235 3 OFFCURVE",
"221 3 CURVE SMOOTH",
"196 3 OFFCURVE",
"181 400 OFFCURVE",
"162 444 CURVE",
"136 433 OFFCURVE",
"138 142 OFFCURVE",
"125 62 CURVE SMOOTH",
"121 38 OFFCURVE",
"118 3 OFFCURVE",
"106 5 CURVE SMOOTH",
"97 6 OFFCURVE",
"90 50 OFFCURVE",
"89 58 CURVE SMOOTH",
"79 109 OFFCURVE",
"79 131 OFFCURVE",
"72 180 CURVE SMOOTH",
"63 244 OFFCURVE",
"55 314 OFFCURVE",
"45 375 CURVE",
"39 427 OFFCURVE",
"36 475 OFFCURVE",
"30 504 CURVE",
"31 511 OFFCURVE",
"46 503 OFFCURVE",
"47 499 CURVE"
);
}
);
width = 321;
}
);
unicode = 0077;
},
{
glyphname = x;
lastChange = "2013-05-19 20:23:59 +0000";
layers = (
{
layerId = "204CD004-05F3-49D2-8673-0D9320CD8B89";
name = Regular;
paths = (
{
closed = 1;
nodes = (
"114 198 OFFCURVE",
"116 198 OFFCURVE",
"42 1 CURVE",
"41 0 OFFCURVE",
"30 3 OFFCURVE",
"30 5 CURVE",
"52 62 OFFCURVE",
"103 200 OFFCURVE",
"129 256 CURVE",
"130 256 OFFCURVE",
"90 390 OFFCURVE",
"76 434 CURVE SMOOTH",
"73 443 OFFCURVE",
"53 499 OFFCURVE",
"52 507 CURVE",
"51 509 OFFCURVE",
"64 510 OFFCURVE",
"65 508 CURVE",
"84 460 OFFCURVE",
"99 398 OFFCURVE",
"117 350 CURVE SMOOTH",
"121 338 OFFCURVE",
"133 287 OFFCURVE",
"139 271 CURVE",
"164 331 OFFCURVE",
"195 451 OFFCURVE",
"214 509 CURVE",
"215 510 OFFCURVE",
"225 508 OFFCURVE",
"226 507 CURVE",
"203 446 OFFCURVE",
"195 403 OFFCURVE",
"182 364 CURVE SMOOTH",
"180 359 OFFCURVE",
"149 255 OFFCURVE",
"149 255 CURVE",
"167 221 OFFCURVE",
"227 23 OFFCURVE",
"233 8 CURVE",
"233 8 OFFCURVE",
"222 1 OFFCURVE",
"221 5 CURVE",
"198 54 OFFCURVE",
"146 243 OFFCURVE",
"139 244 CURVE"
);
}
);
width = 263;
}
);
unicode = 0078;
},
{
glyphname = y;
lastChange = "2013-05-19 19:51:41 +0000";
layers = (
{
anchors = (
{
name = top;
position = "{280, 250}";
}
);
layerId = "204CD004-05F3-49D2-8673-0D9320CD8B89";
name = Regular;
paths = (
{
closed = 1;
nodes = (
"71 511 OFFCURVE",
"63 511 OFFCURVE",
"69 508 CURVE",
"69 421 OFFCURVE",
"48 174 OFFCURVE",
"76 60 CURVE SMOOTH",
"81 43 OFFCURVE",
"170 58 OFFCURVE",
"194 73 CURVE",
"194 73 OFFCURVE",
"194 157 OFFCURVE",
"197 200 CURVE SMOOTH",
"200 267 OFFCURVE",
"199 333 OFFCURVE",
"201 400 CURVE SMOOTH",
"202 421 OFFCURVE",
"199 489 OFFCURVE",
"203 509 CURVE",
"204 512 OFFCURVE",
"217 504 OFFCURVE",
"218 500 CURVE",
"218 457 OFFCURVE",
"214 372 OFFCURVE",
"213 329 CURVE SMOOTH",
"211 252 OFFCURVE",
"214 174 OFFCURVE",
"210 97 CURVE SMOOTH",
"207 38 OFFCURVE",
"208 -28 OFFCURVE",
"210 -93 CURVE SMOOTH",
"210 -108 OFFCURVE",
"208 -150 OFFCURVE",
"205 -168 CURVE SMOOTH",
"200 -207 OFFCURVE",
"128 -193 OFFCURVE",
"107 -187 CURVE SMOOTH",
"88 -181 OFFCURVE",
"80 -174 OFFCURVE",
"71 -158 CURVE SMOOTH",
"63 -146 OFFCURVE",
"63 -95 OFFCURVE",
"63 -94 CURVE",
"63 -94 OFFCURVE",
"72 -94 OFFCURVE",
"79 -95 CURVE",
"81 -96 OFFCURVE",
"79 -145 OFFCURVE",
"90 -156 CURVE SMOOTH",
"102 -167 OFFCURVE",
"110 -171 OFFCURVE",
"121 -175 CURVE SMOOTH",
"137 -180 OFFCURVE",
"179 -183 OFFCURVE",
"189 -161 CURVE SMOOTH",
"194 -149 OFFCURVE",
"195 -108 OFFCURVE",
"194 -94 CURVE SMOOTH",
"193 -68 OFFCURVE",
"191 -50 OFFCURVE",
"193 -11 CURVE SMOOTH",
"193 11 OFFCURVE",
"196 51 OFFCURVE",
"194 56 CURVE",
"193 57 OFFCURVE",
"89 1 OFFCURVE",
"61 50 CURVE SMOOTH",
"37 94 OFFCURVE",
"55 318 OFFCURVE",
"48 396 CURVE SMOOTH",
"46 415 OFFCURVE",
"52 485 OFFCURVE",
"52 512 CURVE"
);
}
);
width = 250;
}
);
unicode = 0079;
},
{
glyphname = z;
lastChange = "2013-05-19 19:52:42 +0000";
layers = (
{
anchors = (
{
name = top;
position = "{259, 250}";
}
);
layerId = "204CD004-05F3-49D2-8673-0D9320CD8B89";
name = Regular;
paths = (
{
closed = 1;
nodes = (
"85 20 OFFCURVE",
"122 19 OFFCURVE",
"143 21 CURVE",
"150 20 OFFCURVE",
"147 2 OFFCURVE",
"147 2 CURVE",
"118 -1 OFFCURVE",
"61 2 OFFCURVE",
"61 2 CURVE SMOOTH",
"40 3 LINE",
"50 51 OFFCURVE",
"64 171 OFFCURVE",
"74 221 CURVE",
"88 282 OFFCURVE",
"93 331 OFFCURVE",
"107 393 CURVE SMOOTH",
"109 400 OFFCURVE",
"128 477 OFFCURVE",
"128 486 CURVE",
"107 487 OFFCURVE",
"60 485 OFFCURVE",
"43 487 CURVE",
"41 488 OFFCURVE",
"42 503 OFFCURVE",
"44 503 CURVE",
"76 499 OFFCURVE",
"116 501 OFFCURVE",
"116 501 CURVE SMOOTH",
"116 501 OFFCURVE",
"149 502 OFFCURVE",
"148 500 CURVE SMOOTH",
"138 468 OFFCURVE",
"104 307 OFFCURVE",
"101 290 CURVE SMOOTH",
"88 222 OFFCURVE",
"73 95 OFFCURVE",
"60 20 CURVE"
);
}
);
width = 188;
}
);
unicode = 007A;
},
{
glyphname = zero;
lastChange = "2013-05-19 23:04:57 +0000";
layers = (
{
layerId = "204CD004-05F3-49D2-8673-0D9320CD8B89";
name = Regular;
paths = (
{
closed = 1;
nodes = (
"187 126 OFFCURVE",
"199 64 OFFCURVE",
"178 18 CURVE SMOOTH",
"163 -15 OFFCURVE",
"66 -16 OFFCURVE",
"51 16 CURVE SMOOTH",
"38 42 OFFCURVE",
"44 87 OFFCURVE",
"41 126 CURVE SMOOTH",
"37 192 OFFCURVE",
"45 257 OFFCURVE",
"40 322 CURVE",
"41 402 OFFCURVE",
"41 475 OFFCURVE",
"40 552 CURVE SMOOTH",
"40 620 OFFCURVE",
"42 641 OFFCURVE",
"44 680 CURVE SMOOTH",
"46 739 OFFCURVE",
"39 783 OFFCURVE",
"66 826 CURVE SMOOTH",
"87 860 OFFCURVE",
"146 857 OFFCURVE",
"174 833 CURVE SMOOTH",
"189 820 OFFCURVE",
"187 687 OFFCURVE",
"189 629 CURVE SMOOTH",
"194 517 OFFCURVE",
"197 404 OFFCURVE",
"195 274 CURVE",
"194 253 OFFCURVE",
"196 215 OFFCURVE",
"193 177 CURVE SMOOTH"
);
},
{
closed = 1;
nodes = (
"183 629 OFFCURVE",
"181 684 OFFCURVE",
"177 741 CURVE SMOOTH",
"173 783 OFFCURVE",
"187 836 OFFCURVE",
"122 842 CURVE",
"61 839 OFFCURVE",
"56 777 OFFCURVE",
"54 758 CURVE SMOOTH",
"51 729 OFFCURVE",
"56 673 OFFCURVE",
"55 625 CURVE SMOOTH",
"54 556 OFFCURVE",
"52 495 OFFCURVE",
"49 425 CURVE SMOOTH",
"48 393 OFFCURVE",
"54 288 OFFCURVE",
"51 254 CURVE",
"78 343 OFFCURVE",
"146 521 OFFCURVE",
"174 601 CURVE SMOOTH"
);
},
{
closed = 1;
nodes = (
"97 365 OFFCURVE",
"92 336 OFFCURVE",
"81 312 CURVE SMOOTH",
"68 281 OFFCURVE",
"53 252 OFFCURVE",
"53 215 CURVE SMOOTH",
"52 161 OFFCURVE",
"52 79 OFFCURVE",
"60 29 CURVE SMOOTH",
"64 4 OFFCURVE",
"160 -2 OFFCURVE",
"170 33 CURVE SMOOTH",
"180 70 OFFCURVE",
"176 105 OFFCURVE",
"177 125 CURVE SMOOTH",
"184 212 OFFCURVE",
"189 297 OFFCURVE",
"183 383 CURVE",
"183 413 OFFCURVE",
"185 561 OFFCURVE",
"181 591 CURVE",
"167 552 OFFCURVE",
"143 468 OFFCURVE",
"110 394 CURVE SMOOTH"
);
}
);
width = 236;
}
);
unicode = 0030;
},
{
glyphname = one;
lastChange = "2013-05-19 23:11:44 +0000";
layers = (
{
layerId = "204CD004-05F3-49D2-8673-0D9320CD8B89";
name = Regular;
paths = (
{
closed = 1;
nodes = (
"164 14 OFFCURVE",
"165 -1 OFFCURVE",
"163 -1 CURVE",
"154 1 OFFCURVE",
"124 -2 OFFCURVE",
"104 -2 CURVE SMOOTH",
"62 -2 OFFCURVE",
"73 -1 OFFCURVE",
"41 0 CURVE",
"39 1 OFFCURVE",
"41 13 OFFCURVE",
"44 14 CURVE",
"52 14 OFFCURVE",
"95 13 OFFCURVE",
"95 13 CURVE",
"91 73 OFFCURVE",
"103 191 OFFCURVE",
"103 250 CURVE SMOOTH",
"101 344 OFFCURVE",
"108 437 OFFCURVE",
"104 531 CURVE SMOOTH",
"103 566 OFFCURVE",
"110 793 OFFCURVE",
"115 828 CURVE",
"115 828 OFFCURVE",
"97 817 OFFCURVE",
"70 802 CURVE",
"69 802 OFFCURVE",
"64 810 OFFCURVE",
"65 811 CURVE",
"76 820 OFFCURVE",
"112 838 OFFCURVE",
"113 847 CURVE",
"117 850 OFFCURVE",
"127 843 OFFCURVE",
"128 840 CURVE",
"126 780 OFFCURVE",
"122 689 OFFCURVE",
"119 630 CURVE SMOOTH",
"113 558 OFFCURVE",
"120 491 OFFCURVE",
"119 421 CURVE SMOOTH",
"118 361 OFFCURVE",
"120 319 OFFCURVE",
"118 240 CURVE",
"114 184 OFFCURVE",
"114 70 OFFCURVE",
"111 14 CURVE",
"111 14 OFFCURVE",
"157 15 OFFCURVE",
"160 15 CURVE"
);
}
);
width = 204;
}
);
unicode = 0031;
},
{
glyphname = two;
lastChange = "2013-05-19 23:12:04 +0000";
layers = (
{
layerId = "204CD004-05F3-49D2-8673-0D9320CD8B89";
name = Regular;
paths = (
{
closed = 1;
nodes = (
"88 812 OFFCURVE",
"91 704 OFFCURVE",
"92 634 CURVE",
"92 634 OFFCURVE",
"79 631 OFFCURVE",
"76 635 CURVE",
"79 697 OFFCURVE",
"76 783 OFFCURVE",
"113 833 CURVE SMOOTH",
"123 847 OFFCURVE",
"134 857 OFFCURVE",
"146 851 CURVE SMOOTH",
"160 845 OFFCURVE",
"170 831 OFFCURVE",
"172 811 CURVE SMOOTH",
"179 752 OFFCURVE",
"180 664 OFFCURVE",
"174 605 CURVE SMOOTH",
"166 526 OFFCURVE",
"148 448 OFFCURVE",
"140 368 CURVE SMOOTH",
"135 319 OFFCURVE",
"125 273 OFFCURVE",
"111 226 CURVE SMOOTH",
"97 179 OFFCURVE",
"93 127 OFFCURVE",
"82 79 CURVE SMOOTH",
"80 68 OFFCURVE",
"62 16 OFFCURVE",
"64 15 CURVE",
"104 15 OFFCURVE",
"147 15 OFFCURVE",
"176 19 CURVE",
"181 18 OFFCURVE",
"184 3 OFFCURVE",
"180 2 CURVE",
"164 -3 OFFCURVE",
"52 -5 OFFCURVE",
"41 0 CURVE",
"38 2 OFFCURVE",
"46 23 OFFCURVE",
"50 34 CURVE SMOOTH",
"65 77 OFFCURVE",
"72 113 OFFCURVE",
"81 159 CURVE SMOOTH",
"89 202 OFFCURVE",
"97 236 OFFCURVE",
"107 272 CURVE SMOOTH",
"124 335 OFFCURVE",
"127 401 OFFCURVE",
"138 464 CURVE",
"146 519 OFFCURVE",
"156 566 OFFCURVE",
"159 618 CURVE",
"166 694 OFFCURVE",
"168 817 OFFCURVE",
"141 837 CURVE"
);
}
);
width = 222;
}
);
unicode = 0032;
},
{
glyphname = three;
lastChange = "2013-05-19 23:08:39 +0000";
layers = (
{
layerId = "204CD004-05F3-49D2-8673-0D9320CD8B89";
name = Regular;
paths = (
{
closed = 1;
nodes = (
"47 845 OFFCURVE",
"62 674 OFFCURVE",
"58 646 CURVE",
"55 638 OFFCURVE",
"38 640 OFFCURVE",
"40 645 CURVE",
"49 700 OFFCURVE",
"35 813 OFFCURVE",
"83 846 CURVE SMOOTH",
"94 854 OFFCURVE",
"134 856 OFFCURVE",
"144 844 CURVE SMOOTH",
"168 815 OFFCURVE",
"159 781 OFFCURVE",
"162 747 CURVE SMOOTH",
"166 708 OFFCURVE",
"166 681 OFFCURVE",
"165 643 CURVE SMOOTH",
"165 601 OFFCURVE",
"163 530 OFFCURVE",
"160 488 CURVE SMOOTH",
"159 462 OFFCURVE",
"159 421 OFFCURVE",
"116 401 CURVE",
"156 397 OFFCURVE",
"170 337 OFFCURVE",
"167 296 CURVE SMOOTH",
"164 243 OFFCURVE",
"168 173 OFFCURVE",
"167 120 CURVE SMOOTH",
"167 85 OFFCURVE",
"172 48 OFFCURVE",
"147 17 CURVE SMOOTH",
"121 -15 OFFCURVE",
"64 -13 OFFCURVE",
"45 23 CURVE SMOOTH",
"37 39 OFFCURVE",
"41 175 OFFCURVE",
"41 192 CURVE",
"40 196 OFFCURVE",
"52 196 OFFCURVE",
"54 187 CURVE",
"55 177 OFFCURVE",
"48 46 OFFCURVE",
"59 27 CURVE SMOOTH",
"66 16 OFFCURVE",
"92 5 OFFCURVE",
"104 7 CURVE SMOOTH",
"116 10 OFFCURVE",
"140 14 OFFCURVE",
"147 35 CURVE",
"165 98 OFFCURVE",
"153 163 OFFCURVE",
"153 240 CURVE",
"154 249 OFFCURVE",
"154 309 OFFCURVE",
"147 347 CURVE SMOOTH",
"142 376 OFFCURVE",
"124 391 OFFCURVE",
"97 388 CURVE",
"88 388 OFFCURVE",
"96 416 OFFCURVE",
"96 416 CURVE",
"152 419 OFFCURVE",
"142 477 OFFCURVE",
"146 518 CURVE SMOOTH",
"149 550 OFFCURVE",
"148 614 OFFCURVE",
"150 644 CURVE SMOOTH",
"154 683 OFFCURVE",
"149 712 OFFCURVE",
"149 737 CURVE SMOOTH",
"150 829 OFFCURVE",
"135 838 OFFCURVE",
"113 838 CURVE"
);
}
);
width = 207;
}
);
unicode = 0033;
},
{
glyphname = four;
lastChange = "2013-05-19 23:12:17 +0000";
layers = (
{
layerId = "204CD004-05F3-49D2-8673-0D9320CD8B89";
name = Regular;
paths = (
{
closed = 1;
nodes = (
"67 792 OFFCURVE",
"61 678 OFFCURVE",
"62 619 CURVE SMOOTH",
"64 567 OFFCURVE",
"57 468 OFFCURVE",
"57 416 CURVE",
"57 412 OFFCURVE",
"100 418 OFFCURVE",
"114 419 CURVE SMOOTH",
"130 420 OFFCURVE",
"167 420 OFFCURVE",
"168 424 CURVE",
"166 493 OFFCURVE",
"169 625 OFFCURVE",
"169 694 CURVE SMOOTH",
"168 733 OFFCURVE",
"165 817 OFFCURVE",
"168 857 CURVE",
"167 861 OFFCURVE",
"182 855 OFFCURVE",
"185 849 CURVE",
"179 811 OFFCURVE",
"184 655 OFFCURVE",
"184 639 CURVE SMOOTH",
"185 593 OFFCURVE",
"184 547 OFFCURVE",
"183 502 CURVE SMOOTH",
"183 481 OFFCURVE",
"180 442 OFFCURVE",
"183 423 CURVE",
"183 419 OFFCURVE",
"183 409 OFFCURVE",
"183 407 CURVE",
"184 377 OFFCURVE",
"177 312 OFFCURVE",
"180 281 CURVE",
"179 219 OFFCURVE",
"180 115 OFFCURVE",
"176 51 CURVE SMOOTH",
"176 37 OFFCURVE",
"178 18 OFFCURVE",
"179 4 CURVE",
"178 0 OFFCURVE",
"159 -1 OFFCURVE",
"158 3 CURVE",
"153 64 OFFCURVE",
"168 169 OFFCURVE",
"164 229 CURVE",
"167 272 OFFCURVE",
"168 311 OFFCURVE",
"165 351 CURVE",
"165 353 OFFCURVE",
"168 406 OFFCURVE",
"165 408 CURVE",
"161 409 OFFCURVE",
"45 396 OFFCURVE",
"40 400 CURVE",
"40 415 OFFCURVE",
"43 427 OFFCURVE",
"43 440 CURVE SMOOTH",
"43 501 OFFCURVE",
"48 565 OFFCURVE",
"49 625 CURVE SMOOTH",
"50 685 OFFCURVE",
"54 798 OFFCURVE",
"54 858 CURVE",
"54 858 OFFCURVE",
"72 858 OFFCURVE",
"72 850 CURVE"
);
}
);
width = 225;
}
);
unicode = 0034;
},
{
glyphname = five;
lastChange = "2013-05-19 23:11:16 +0000";
layers = (
{
layerId = "204CD004-05F3-49D2-8673-0D9320CD8B89";
name = Regular;
paths = (
{
closed = 1;
nodes = (
"134 276 OFFCURVE",
"140 347 OFFCURVE",
"135 385 CURVE SMOOTH",
"133 397 OFFCURVE",
"132 409 OFFCURVE",
"120 411 CURVE SMOOTH",
"101 415 OFFCURVE",
"65 400 OFFCURVE",
"53 399 CURVE",
"49 399 OFFCURVE",
"52 417 OFFCURVE",
"52 445 CURVE SMOOTH",
"52 463 OFFCURVE",
"50 532 OFFCURVE",
"52 560 CURVE SMOOTH",
"58 620 OFFCURVE",
"56 716 OFFCURVE",
"52 776 CURVE SMOOTH",
"51 786 OFFCURVE",
"47 855 OFFCURVE",
"54 855 CURVE",
"72 854 OFFCURVE",
"142 859 OFFCURVE",
"152 856 CURVE",
"153 843 LINE",
"140 838 OFFCURVE",
"77 840 OFFCURVE",
"65 840 CURVE SMOOTH",
"65 840 OFFCURVE",
"71 622 OFFCURVE",
"66 560 CURVE SMOOTH",
"64 525 OFFCURVE",
"58 418 OFFCURVE",
"64 416 CURVE",
"83 417 OFFCURVE",
"151 456 OFFCURVE",
"149 374 CURVE",
"152 295 OFFCURVE",
"151 194 OFFCURVE",
"145 115 CURVE SMOOTH",
"143 94 OFFCURVE",
"139 57 OFFCURVE",
"136 36 CURVE SMOOTH",
"131 6 OFFCURVE",
"127 6 OFFCURVE",
"107 -4 CURVE",
"88 -13 OFFCURVE",
"52 -8 OFFCURVE",
"48 15 CURVE SMOOTH",
"46 23 OFFCURVE",
"37 159 OFFCURVE",
"41 170 CURVE",
"55 165 LINE",
"54 155 OFFCURVE",
"53 28 OFFCURVE",
"62 12 CURVE SMOOTH",
"70 -1 OFFCURVE",
"105 1 OFFCURVE",
"113 10 CURVE SMOOTH",
"135 33 OFFCURVE",
"130 91 OFFCURVE",
"132 112 CURVE SMOOTH",
"133 118 OFFCURVE",
"136 202 OFFCURVE",
"135 239 CURVE SMOOTH"
);
}
);
width = 193;
}
);
unicode = 0035;
},
{
glyphname = six;
lastChange = "2013-06-08 03:49:38 +0000";
layers = (
{
layerId = "204CD004-05F3-49D2-8673-0D9320CD8B89";
name = Regular;
paths = (
{
closed = 1;
nodes = (
"157 606 LINE",
"159 668 OFFCURVE",
"154 761 OFFCURVE",
"142 823 CURVE SMOOTH",
"139 837 OFFCURVE",
"125 851 OFFCURVE",
"92 849 CURVE SMOOTH",
"70 847 OFFCURVE",
"63 817 OFFCURVE",
"62 810 CURVE SMOOTH",
"57 773 OFFCURVE",
"52 722 OFFCURVE",
"55 684 CURVE SMOOTH",
"58 628 OFFCURVE",
"60 575 OFFCURVE",
"58 519 CURVE SMOOTH",
"57 484 OFFCURVE",
"61 459 OFFCURVE",
"58 424 CURVE",
"58 424 OFFCURVE",
"78 433 OFFCURVE",
"115 434 CURVE SMOOTH",
"134 435 OFFCURVE",
"149 411 OFFCURVE",
"157 397 CURVE SMOOTH",
"179 353 OFFCURVE",
"177 305 OFFCURVE",
"175 258 CURVE SMOOTH",
"174 220 OFFCURVE",
"177 173 OFFCURVE",
"172 136 CURVE SMOOTH",
"168 105 OFFCURVE",
"169 66 OFFCURVE",
"160 36 CURVE SMOOTH",
"151 6 OFFCURVE",
"129 0 OFFCURVE",
"106 0 CURVE SMOOTH",
"83 0 OFFCURVE",
"62 2 OFFCURVE",
"56 29 CURVE SMOOTH",
"49 61 OFFCURVE",
"47 103 OFFCURVE",
"48 134 CURVE SMOOTH",
"48 159 OFFCURVE",
"48 197 OFFCURVE",
"47 223 CURVE SMOOTH",
"46 263 OFFCURVE",
"48 295 OFFCURVE",
"46 332 CURVE SMOOTH",
"43 399 OFFCURVE",
"47 467 OFFCURVE",
"47 534 CURVE SMOOTH",
"45 622 OFFCURVE",
"41 713 OFFCURVE",
"48 797 CURVE SMOOTH",
"49 807 OFFCURVE",
"50 817 OFFCURVE",
"54 826 CURVE SMOOTH",
"62 844 OFFCURVE",
"72 862 OFFCURVE",
"91 862 CURVE SMOOTH",
"129 862 OFFCURVE",
"144 850 OFFCURVE",
"153 828 CURVE SMOOTH",
"165 797 OFFCURVE",
"169 748 OFFCURVE",
"168 714 CURVE SMOOTH",
"167 705 OFFCURVE",
"169 635 OFFCURVE",
"167 607 CURVE"
);
},
{
closed = 1;
nodes = (
"49 412 OFFCURVE",
"59 414 OFFCURVE",
"58 407 CURVE",
"57 393 OFFCURVE",
"60 252 OFFCURVE",
"61 241 CURVE",
"59 196 OFFCURVE",
"63 138 OFFCURVE",
"62 94 CURVE SMOOTH",
"62 73 OFFCURVE",
"63 40 OFFCURVE",
"75 25 CURVE SMOOTH",
"87 11 OFFCURVE",
"102 13 OFFCURVE",
"111 14 CURVE",
"154 14 OFFCURVE",
"155 67 OFFCURVE",
"156 76 CURVE SMOOTH",
"161 113 OFFCURVE",
"160 164 OFFCURVE",
"164 196 CURVE",
"166 231 OFFCURVE",
"163 272 OFFCURVE",
"164 301 CURVE SMOOTH",
"166 361 OFFCURVE",
"136 423 OFFCURVE",
"109 423 CURVE"
);
}
);
width = 212;
}
);
unicode = 0036;
},
{
glyphname = seven;
lastChange = "2013-05-30 03:32:05 +0000";
layers = (
{
layerId = "204CD004-05F3-49D2-8673-0D9320CD8B89";
name = Regular;
paths = (
{
closed = 1;
nodes = (
"35 847 LINE",
"58 852 OFFCURVE",
"106 847 OFFCURVE",
"129 849 CURVE",
"130 848 OFFCURVE",
"90 309 OFFCURVE",
"86 249 CURVE SMOOTH",
"82 196 OFFCURVE",
"83 6 OFFCURVE",
"78 -4 CURVE",
"78 -4 OFFCURVE",
"63 -6 OFFCURVE",
"63 0 CURVE",
"67 22 OFFCURVE",
"70 240 OFFCURVE",
"77 295 CURVE",
"82 345 OFFCURVE",
"87 409 OFFCURVE",
"89 459 CURVE SMOOTH",
"93 538 OFFCURVE",
"102 601 OFFCURVE",
"105 681 CURVE",
"108 720 OFFCURVE",
"114 797 OFFCURVE",
"118 836 CURVE",
"118 836 OFFCURVE",
"45 834 OFFCURVE",
"37 833 CURVE"
);
}
);
width = 164;
}
);
unicode = 0037;
},
{
glyphname = eight;
lastChange = "2013-06-08 03:52:58 +0000";
layers = (
{
layerId = "204CD004-05F3-49D2-8673-0D9320CD8B89";
name = Regular;
paths = (
{
closed = 1;
nodes = (
"173 700 OFFCURVE",
"171 666 OFFCURVE",
"169 632 CURVE SMOOTH",
"168 611 OFFCURVE",
"169 597 OFFCURVE",
"167 577 CURVE",
"166 569 OFFCURVE",
"165 549 OFFCURVE",
"164 523 CURVE SMOOTH",
"163 498 OFFCURVE",
"171 425 OFFCURVE",
"131 425 CURVE",
"131 425 LINE",
"149 419 OFFCURVE",
"158 410 OFFCURVE",
"161 402 CURVE SMOOTH",
"171 379 OFFCURVE",
"165 340 OFFCURVE",
"164 318 CURVE SMOOTH",
"163 296 OFFCURVE",
"163 273 OFFCURVE",
"163 251 CURVE SMOOTH",
"164 204 OFFCURVE",
"156 144 OFFCURVE",
"156 97 CURVE SMOOTH",
"157 69 OFFCURVE",
"154 30 OFFCURVE",
"143 11 CURVE",
"134 -1 OFFCURVE",
"76 -4 OFFCURVE",
"61 6 CURVE SMOOTH",
"40 20 OFFCURVE",
"40 28 OFFCURVE",
"40 71 CURVE SMOOTH",
"38 142 OFFCURVE",
"36 259 OFFCURVE",
"42 330 CURVE SMOOTH",
"45 364 OFFCURVE",
"43 412 OFFCURVE",
"80 424 CURVE SMOOTH",
"82 424 LINE",
"59 429 OFFCURVE",
"52 478 OFFCURVE",
"50 498 CURVE",
"46 605 OFFCURVE",
"51 708 OFFCURVE",
"58 812 CURVE",
"62 849 OFFCURVE",
"82 856 OFFCURVE",
"118 857 CURVE SMOOTH",
"143 857 OFFCURVE",
"161 854 OFFCURVE",
"166 838 CURVE SMOOTH",
"174 808 OFFCURVE",
"172 766 OFFCURVE",
"171 727 CURVE"
);
},
{
closed = 1;
nodes = (
"126 432 OFFCURVE",
"136 437 OFFCURVE",
"143 444 CURVE SMOOTH",
"159 462 OFFCURVE",
"150 492 OFFCURVE",
"153 531 CURVE SMOOTH",
"154 577 OFFCURVE",
"159 637 OFFCURVE",
"159 681 CURVE",
"159 721 OFFCURVE",
"161 786 OFFCURVE",
"156 826 CURVE SMOOTH",
"156 831 OFFCURVE",
"157 844 OFFCURVE",
"112 844 CURVE SMOOTH",
"73 844 OFFCURVE",
"73 827 OFFCURVE",
"70 816 CURVE SMOOTH",
"66 799 OFFCURVE",
"68 776 OFFCURVE",
"66 760 CURVE SMOOTH",
"61 697 OFFCURVE",
"59 609 OFFCURVE",
"61 544 CURVE SMOOTH",
"61 484 OFFCURVE",
"66 455 OFFCURVE",
"76 443 CURVE SMOOTH",
"81 437 OFFCURVE",
"91 432 OFFCURVE",
"106 431 CURVE"
);
},
{
closed = 1;
nodes = (
"91 419 OFFCURVE",
"71 410 OFFCURVE",
"68 404 CURVE SMOOTH",
"60 390 OFFCURVE",
"54 339 OFFCURVE",
"57 291 CURVE",
"53 257 OFFCURVE",
"55 143 OFFCURVE",
"54 108 CURVE SMOOTH",
"54 92 OFFCURVE",
"49 55 OFFCURVE",
"55 34 CURVE SMOOTH",
"61 13 OFFCURVE",
"68 14 OFFCURVE",
"99 14 CURVE SMOOTH",
"110 14 OFFCURVE",
"136 13 OFFCURVE",
"140 42 CURVE SMOOTH",
"144 68 OFFCURVE",
"143 97 OFFCURVE",
"145 114 CURVE SMOOTH",
"149 179 OFFCURVE",
"146 258 OFFCURVE",
"151 322 CURVE SMOOTH",
"154 377 OFFCURVE",
"153 419 OFFCURVE",
"114 418 CURVE"
);
}
);
width = 203;
}
);
unicode = 0038;
},
{
glyphname = nine;
lastChange = "2013-06-08 03:54:58 +0000";
layers = (
{
layerId = "204CD004-05F3-49D2-8673-0D9320CD8B89";
name = Regular;
paths = (
{
closed = 1;
nodes = (
"121 305 OFFCURVE",
"124 343 OFFCURVE",
"125 381 CURVE SMOOTH",
"125 385 OFFCURVE",
"129 429 OFFCURVE",
"127 429 CURVE",
"89 407 OFFCURVE",
"37 420 OFFCURVE",
"37 440 CURVE SMOOTH",
"39 488 OFFCURVE",
"42 550 OFFCURVE",
"39 598 CURVE SMOOTH",
"37 646 OFFCURVE",
"37 683 OFFCURVE",
"39 730 CURVE SMOOTH",
"40 764 OFFCURVE",
"30 808 OFFCURVE",
"53 837 CURVE",
"59 847 OFFCURVE",
"82 856 OFFCURVE",
"106 855 CURVE",
"135 852 OFFCURVE",
"157 850 OFFCURVE",
"158 825 CURVE SMOOTH",
"159 769 OFFCURVE",
"150 684 OFFCURVE",
"153 628 CURVE",
"151 592 OFFCURVE",
"145 561 OFFCURVE",
"144 525 CURVE SMOOTH",
"140 465 OFFCURVE",
"140 405 OFFCURVE",
"138 344 CURVE SMOOTH",
"136 303 OFFCURVE",
"134 263 OFFCURVE",
"132 222 CURVE SMOOTH",
"131 202 OFFCURVE",
"132 182 OFFCURVE",
"132 162 CURVE",
"134 122 OFFCURVE",
"132 38 OFFCURVE",
"131 0 CURVE",
"131 -1 OFFCURVE",
"111 0 OFFCURVE",
"110 4 CURVE",
"111 9 OFFCURVE",
"119 201 OFFCURVE",
"120 267 CURVE SMOOTH"
);
},
{
closed = 1;
nodes = (
"51 508 OFFCURVE",
"50 471 OFFCURVE",
"51 444 CURVE",
"52 435 OFFCURVE",
"70 430 OFFCURVE",
"83 430 CURVE SMOOTH",
"98 430 OFFCURVE",
"125 440 OFFCURVE",
"125 443 CURVE SMOOTH",
"128 498 OFFCURVE",
"139 590 OFFCURVE",
"140 641 CURVE SMOOTH",
"141 691 OFFCURVE",
"145 778 OFFCURVE",
"146 827 CURVE SMOOTH",
"146 840 OFFCURVE",
"121 841 OFFCURVE",
"105 842 CURVE SMOOTH",
"91 843 OFFCURVE",
"69 836 OFFCURVE",
"64 826 CURVE SMOOTH",
"43 785 OFFCURVE",
"55 711 OFFCURVE",
"53 668 CURVE SMOOTH",
"50 623 OFFCURVE",
"54 580 OFFCURVE",
"51 535 CURVE"
);
}
);
width = 191;
}
);
unicode = 0039;
},
{
glyphname = asterisk;
lastChange = "2013-06-10 03:35:26 +0000";
layers = (
{
layerId = "204CD004-05F3-49D2-8673-0D9320CD8B89";
name = Regular;
paths = (
{
closed = 1;
nodes = (
"84 441 LINE",
"56 454 LINE",
"56 454 OFFCURVE",
"112 534 OFFCURVE",
"123 561 CURVE",
"121 568 OFFCURVE",
"32 584 OFFCURVE",
"32 584 CURVE",
"30 614 LINE",
"129 587 LINE",
"130 703 LINE",
"162 714 LINE",
"156 587 LINE",
"245 605 LINE",
"249 573 LINE",
"162 559 LINE",
"193 532 OFFCURVE",
"241 462 OFFCURVE",
"241 462 CURVE",
"218 446 LINE",
"145 548 LINE"
);
}
);
width = 269;
}
);
unicode = 002A;
},
{
glyphname = backslash;
lastChange = "2013-06-10 03:39:58 +0000";
layers = (
{
layerId = "204CD004-05F3-49D2-8673-0D9320CD8B89";
name = Regular;
paths = (
{
closed = 1;
nodes = (
"153 92 OFFCURVE",
"130 248 OFFCURVE",
"118 335 CURVE SMOOTH",
"108 408 OFFCURVE",
"89 482 OFFCURVE",
"80 555 CURVE SMOOTH",
"71 625 OFFCURVE",
"44 710 OFFCURVE",
"31 777 CURVE SMOOTH",
"27 799 OFFCURVE",
"19 836 OFFCURVE",
"12 858 CURVE SMOOTH",
"11 859 OFFCURVE",
"23 864 OFFCURVE",
"23 864 CURVE",
"30 856 OFFCURVE",
"34 834 OFFCURVE",
"37 821 CURVE SMOOTH",
"72 667 OFFCURVE",
"112 485 OFFCURVE",
"135 323 CURVE SMOOTH",
"146 250 OFFCURVE",
"171 72 OFFCURVE",
"182 -1 CURVE",
"182 -1 OFFCURVE",
"161 -1 OFFCURVE",
"160 3 CURVE"
);
}
);
width = 198;
}
);
unicode = 005C;
},
{
glyphname = bullet;
lastChange = "2013-06-10 04:11:34 +0000";
layers = (
{
layerId = "204CD004-05F3-49D2-8673-0D9320CD8B89";
name = Regular;
paths = (
{
closed = 1;
nodes = (
"54 361 OFFCURVE",
"86 376 OFFCURVE",
"115 341 CURVE SMOOTH",
"130 324 OFFCURVE",
"125 290 OFFCURVE",
"105 270 CURVE SMOOTH",
"89 256 OFFCURVE",
"61 256 OFFCURVE",
"47 273 CURVE SMOOTH",
"31 293 OFFCURVE",
"27 318 OFFCURVE",
"32 345 CURVE SMOOTH",
"33 352 OFFCURVE",
"33 354 OFFCURVE",
"41 357 CURVE SMOOTH"
);
}
);
width = 154;
}
);
unicode = 2022;
},
{
glyphname = colon;
lastChange = "2013-06-15 05:10:22 +0000";
layers = (
{
layerId = "204CD004-05F3-49D2-8673-0D9320CD8B89";
name = Regular;
paths = (
{
closed = 1;
nodes = (
"101 135 OFFCURVE",
"104 108 OFFCURVE",
"95 97 CURVE SMOOTH",
"91 92 OFFCURVE",
"86 89 OFFCURVE",
"81 85 CURVE SMOOTH",
"68 72 OFFCURVE",
"59 72 OFFCURVE",
"49 88 CURVE SMOOTH",
"42 98 OFFCURVE",
"39 111 OFFCURVE",
"40 123 CURVE SMOOTH",
"41 143 OFFCURVE",
"69 153 OFFCURVE",
"90 141 CURVE SMOOTH"
);
},
{
closed = 1;
nodes = (
"95 463 OFFCURVE",
"96 459 OFFCURVE",
"96 456 CURVE SMOOTH",
"97 447 OFFCURVE",
"101 436 OFFCURVE",
"90 431 CURVE SMOOTH",
"80 426 OFFCURVE",
"71 432 OFFCURVE",
"63 437 CURVE SMOOTH",
"41 451 OFFCURVE",
"37 473 OFFCURVE",
"53 488 CURVE SMOOTH",
"61 495 OFFCURVE",
"69 498 OFFCURVE",
"79 496 CURVE SMOOTH",
"91 492 OFFCURVE",
"94 484 OFFCURVE",
"94 474 CURVE SMOOTH",
"94 471 OFFCURVE",
"94 469 OFFCURVE",
"94 468 CURVE"
);
}
);
width = 140;
}
);
unicode = 003A;
},
{
glyphname = comma;
lastChange = "2013-06-10 04:23:49 +0000";
layers = (
{
layerId = "204CD004-05F3-49D2-8673-0D9320CD8B89";
name = Regular;
paths = (
{
closed = 1;
nodes = (
"42 -17 OFFCURVE",
"41 -20 OFFCURVE",
"25 -43 CURVE SMOOTH",
"23 -46 OFFCURVE",
"16 -39 OFFCURVE",
"17 -38 CURVE",
"29 -23 OFFCURVE",
"35 -15 OFFCURVE",
"37 1 CURVE",
"37 1 OFFCURVE",
"21 1 OFFCURVE",
"18 5 CURVE SMOOTH",
"14 11 OFFCURVE",
"13 45 OFFCURVE",
"18 51 CURVE SMOOTH",
"22 55 OFFCURVE",
"28 56 OFFCURVE",
"33 56 CURVE SMOOTH",
"40 56 OFFCURVE",
"46 56 OFFCURVE",
"48 54 CURVE",
"49 42 OFFCURVE",
"48 23 OFFCURVE",
"46 11 CURVE SMOOTH"
);
}
);
width = 63;
}
);
unicode = 002C;
},
{
glyphname = exclam;
lastChange = "2013-06-10 03:26:31 +0000";
layers = (
{
layerId = "204CD004-05F3-49D2-8673-0D9320CD8B89";
name = Regular;
paths = (
{
closed = 1;
nodes = (
"67 527 OFFCURVE",
"74 365 OFFCURVE",
"73 327 CURVE SMOOTH",
"71 289 OFFCURVE",
"74 268 OFFCURVE",
"74 214 CURVE",
"71 189 OFFCURVE",
"78 128 OFFCURVE",
"78 103 CURVE SMOOTH",
"78 97 OFFCURVE",
"79 80 OFFCURVE",
"79 74 CURVE",
"67 71 LINE",
"65 76 OFFCURVE",
"64 92 OFFCURVE",
"64 98 CURVE SMOOTH",
"63 148 OFFCURVE",
"61 236 OFFCURVE",
"60 286 CURVE SMOOTH",
"59 312 OFFCURVE",
"57 467 OFFCURVE",
"56 492 CURVE SMOOTH",
"55 521 OFFCURVE",
"53 757 OFFCURVE",
"53 785 CURVE SMOOTH",
"53 791 OFFCURVE",
"54 806 OFFCURVE",
"54 811 CURVE SMOOTH",
"54 818 OFFCURVE",
"75 827 OFFCURVE",
"75 827 CURVE SMOOTH",
"75 827 OFFCURVE",
"72 575 OFFCURVE",
"73 562 CURVE"
);
},
{
closed = 1;
nodes = (
"91 5 OFFCURVE",
"84 -4 OFFCURVE",
"76 -3 CURVE SMOOTH",
"66 -2 OFFCURVE",
"56 7 OFFCURVE",
"56 16 CURVE SMOOTH",
"55 27 OFFCURVE",
"66 44 OFFCURVE",
"74 44 CURVE SMOOTH",
"84 43 OFFCURVE",
"92 31 OFFCURVE",
"92 17 CURVE SMOOTH"
);
}
);
width = 139;
}
);
unicode = 0021;
},
{
glyphname = exclamdown;
lastChange = "2013-06-15 02:31:51 +0000";
layers = (
{
layerId = "204CD004-05F3-49D2-8673-0D9320CD8B89";
name = Regular;
paths = (
{
closed = 1;
nodes = (
"33 160 OFFCURVE",
"30 322 OFFCURVE",
"32 360 CURVE SMOOTH",
"34 398 OFFCURVE",
"32 419 OFFCURVE",
"34 473 CURVE",
"37 497 OFFCURVE",
"31 559 OFFCURVE",
"32 584 CURVE SMOOTH",
"32 589 OFFCURVE",
"32 607 OFFCURVE",
"32 613 CURVE",
"43 616 LINE",
"45 611 OFFCURVE",
"46 594 OFFCURVE",
"46 589 CURVE SMOOTH",
"46 538 OFFCURVE",
"46 451 OFFCURVE",
"46 400 CURVE SMOOTH",
"46 375 OFFCURVE",
"45 219 OFFCURVE",
"46 194 CURVE SMOOTH",
"46 166 OFFCURVE",
"45 -11 OFFCURVE",
"44 -39 CURVE SMOOTH",
"44 -45 OFFCURVE",
"43 -59 OFFCURVE",
"43 -65 CURVE SMOOTH",
"43 -72 OFFCURVE",
"21 -81 OFFCURVE",
"21 -81 CURVE SMOOTH",
"21 -81 OFFCURVE",
"28 112 OFFCURVE",
"27 125 CURVE"
);
},
{
closed = 1;
nodes = (
"21 682 OFFCURVE",
"28 690 OFFCURVE",
"36 689 CURVE SMOOTH",
"47 688 OFFCURVE",
"56 679 OFFCURVE",
"56 670 CURVE SMOOTH",
"56 659 OFFCURVE",
"45 642 OFFCURVE",
"38 643 CURVE SMOOTH",
"27 644 OFFCURVE",
"19 656 OFFCURVE",
"20 670 CURVE SMOOTH"
);
}
);
width = 76;
}
);
unicode = 00A1;
},
{
glyphname = numbersign;
lastChange = "2013-06-15 02:19:48 +0000";
layers = (
{
layerId = "204CD004-05F3-49D2-8673-0D9320CD8B89";
name = Regular;
paths = (
{
closed = 1;
nodes = (
"171 489 OFFCURVE",
"78 491 OFFCURVE",
"57 490 CURVE SMOOTH",
"52 490 OFFCURVE",
"62 514 OFFCURVE",
"65 513 CURVE SMOOTH",
"92 513 OFFCURVE",
"195 506 OFFCURVE",
"203 508 CURVE",
"211 531 OFFCURVE",
"220 564 OFFCURVE",
"225 589 CURVE SMOOTH",
"226 596 OFFCURVE",
"242 679 OFFCURVE",
"244 686 CURVE",
"246 689 OFFCURVE",
"271 695 OFFCURVE",
"271 693 CURVE SMOOTH",
"272 686 OFFCURVE",
"244 586 OFFCURVE",
"242 572 CURVE SMOOTH",
"241 559 OFFCURVE",
"229 526 OFFCURVE",
"228 509 CURVE",
"228 509 OFFCURVE",
"249 509 OFFCURVE",
"264 506 CURVE",
"297 505 OFFCURVE",
"319 503 OFFCURVE",
"319 503 CURVE",
"327 533 OFFCURVE",
"356 657 OFFCURVE",
"359 688 CURVE",
"361 693 OFFCURVE",
"386 689 OFFCURVE",
"386 689 CURVE",
"382 676 OFFCURVE",
"347 516 OFFCURVE",
"343 502 CURVE",
"391 500 LINE",
"402 500 OFFCURVE",
"483 499 OFFCURVE",
"490 497 CURVE SMOOTH",
"495 496 OFFCURVE",
"485 478 OFFCURVE",
"485 478 CURVE",
"480 477 OFFCURVE",
"340 482 OFFCURVE",
"340 482 CURVE",
"300 311 LINE",
"300 311 OFFCURVE",
"340 309 OFFCURVE",
"377 308 CURVE SMOOTH",
"420 307 OFFCURVE",
"411 311 OFFCURVE",
"445 307 CURVE",
"445 282 OFFCURVE",
"437 289 OFFCURVE",
"432 289 CURVE SMOOTH",
"397 287 OFFCURVE",
"348 288 OFFCURVE",
"296 287 CURVE",
"287 286 OFFCURVE",
"262 145 OFFCURVE",
"252 110 CURVE",
"250 104 OFFCURVE",
"225 110 OFFCURVE",
"225 110 CURVE SMOOTH",
"225 110 OFFCURVE",
"269 266 OFFCURVE",
"269 289 CURVE",
"269 289 OFFCURVE",
"232 287 OFFCURVE",
"227 290 CURVE",
"193 291 OFFCURVE",
"187 297 OFFCURVE",
"185 289 CURVE",
"184 275 OFFCURVE",
"151 129 OFFCURVE",
"149 115 CURVE",
"149 115 OFFCURVE",
"126 111 OFFCURVE",
"124 115 CURVE SMOOTH",
"122 121 OFFCURVE",
"145 211 OFFCURVE",
"146 218 CURVE SMOOTH",
"156 285 OFFCURVE",
"169 290 OFFCURVE",
"161 292 CURVE",
"154 291 OFFCURVE",
"27 298 OFFCURVE",
"20 298 CURVE",
"20 298 OFFCURVE",
"21 319 OFFCURVE",
"30 322 CURVE",
"38 323 OFFCURVE",
"146 311 OFFCURVE",
"166 316 CURVE SMOOTH",
"170 317 OFFCURVE",
"175 332 OFFCURVE",
"185 390 CURVE SMOOTH",
"188 408 OFFCURVE",
"200 466 OFFCURVE",
"200 489 CURVE"
);
},
{
closed = 1;
nodes = (
"289 341 OFFCURVE",
"313 474 OFFCURVE",
"314 483 CURVE",
"314 483 OFFCURVE",
"226 491 OFFCURVE",
"222 487 CURVE",
"213 461 OFFCURVE",
"195 343 OFFCURVE",
"190 315 CURVE",
"193 309 OFFCURVE",
"252 313 OFFCURVE",
"274 311 CURVE"
);
}
);
width = 511;
}
);
unicode = 0023;
},
{
glyphname = period;
lastChange = "2013-06-10 04:09:35 +0000";
layers = (
{
layerId = "204CD004-05F3-49D2-8673-0D9320CD8B89";
name = Regular;
paths = (
{
closed = 1;
nodes = (
"37 63 OFFCURVE",
"61 57 OFFCURVE",
"67 38 CURVE SMOOTH",
"71 25 OFFCURVE",
"60 6 OFFCURVE",
"44 0 CURVE SMOOTH",
"33 -4 OFFCURVE",
"17 2 OFFCURVE",
"13 15 CURVE SMOOTH",
"8 30 OFFCURVE",
"9 43 OFFCURVE",
"18 57 CURVE SMOOTH",
"20 61 OFFCURVE",
"23 64 OFFCURVE",
"28 64 CURVE SMOOTH"
);
}
);
width = 78;
}
);
unicode = 002E;
},
{
glyphname = question;
lastChange = "2013-06-14 03:35:25 +0000";
layers = (
{
layerId = "204CD004-05F3-49D2-8673-0D9320CD8B89";
name = Regular;
paths = (
{
closed = 1;
nodes = (
"126 290 OFFCURVE",
"112 286 OFFCURVE",
"97 258 CURVE",
"73 225 OFFCURVE",
"69 167 OFFCURVE",
"72 128 CURVE SMOOTH",
"72 116 OFFCURVE",
"73 98 OFFCURVE",
"73 86 CURVE SMOOTH",
"73 81 OFFCURVE",
"56 86 OFFCURVE",
"56 91 CURVE SMOOTH",
"57 132 OFFCURVE",
"52 193 OFFCURVE",
"66 233 CURVE SMOOTH",
"69 242 OFFCURVE",
"73 251 OFFCURVE",
"78 258 CURVE",
"101 284 OFFCURVE",
"111 300 OFFCURVE",
"109 335 CURVE",
"114 401 OFFCURVE",
"110 685 OFFCURVE",
"114 724 CURVE SMOOTH",
"115 744 OFFCURVE",
"115 757 OFFCURVE",
"115 777 CURVE SMOOTH",
"115 782 OFFCURVE",
"114 830 OFFCURVE",
"113 835 CURVE SMOOTH",
"112 839 OFFCURVE",
"110 842 OFFCURVE",
"100 844 CURVE SMOOTH",
"69 853 OFFCURVE",
"54 837 OFFCURVE",
"53 828 CURVE",
"45 796 OFFCURVE",
"48 688 OFFCURVE",
"47 662 CURVE SMOOTH",
"47 655 OFFCURVE",
"47 622 OFFCURVE",
"46 615 CURVE",
"31 616 LINE",
"31 617 OFFCURVE",
"30 645 OFFCURVE",
"30 646 CURVE SMOOTH",
"33 681 OFFCURVE",
"29 793 OFFCURVE",
"40 827 CURVE SMOOTH",
"43 835 OFFCURVE",
"51 861 OFFCURVE",
"70 860 CURVE",
"92 862 OFFCURVE",
"116 863 OFFCURVE",
"123 847 CURVE SMOOTH",
"127 839 OFFCURVE",
"125 815 OFFCURVE",
"125 803 CURVE SMOOTH",
"126 765 OFFCURVE",
"124 728 OFFCURVE",
"126 677 CURVE",
"125 307 LINE"
);
},
{
closed = 1;
nodes = (
"49 30 OFFCURVE",
"54 36 OFFCURVE",
"65 36 CURVE SMOOTH",
"75 36 OFFCURVE",
"82 29 OFFCURVE",
"82 19 CURVE SMOOTH",
"82 6 OFFCURVE",
"75 0 OFFCURVE",
"61 0 CURVE SMOOTH",
"51 1 OFFCURVE",
"48 5 OFFCURVE",
"48 17 CURVE SMOOTH"
);
}
);
width = 156;
}
);
unicode = 003F;
},
{
glyphname = questiondown;
lastChange = "2013-06-15 02:33:23 +0000";
layers = (
{
layerId = "204CD004-05F3-49D2-8673-0D9320CD8B89";
name = Regular;
paths = (
{
closed = 1;
nodes = (
"29 501 OFFCURVE",
"41 505 OFFCURVE",
"56 533 CURVE",
"80 567 OFFCURVE",
"83 624 OFFCURVE",
"80 664 CURVE SMOOTH",
"79 676 OFFCURVE",
"78 693 OFFCURVE",
"78 706 CURVE SMOOTH",
"78 711 OFFCURVE",
"95 706 OFFCURVE",
"95 701 CURVE SMOOTH",
"94 660 OFFCURVE",
"100 599 OFFCURVE",
"87 559 CURVE SMOOTH",
"84 550 OFFCURVE",
"80 541 OFFCURVE",
"74 533 CURVE",
"52 508 OFFCURVE",
"42 491 OFFCURVE",
"44 457 CURVE",
"40 391 OFFCURVE",
"46 126 OFFCURVE",
"43 88 CURVE SMOOTH",
"41 67 OFFCURVE",
"42 54 OFFCURVE",
"43 34 CURVE SMOOTH",
"43 29 OFFCURVE",
"44 -19 OFFCURVE",
"45 -24 CURVE SMOOTH",
"46 -28 OFFCURVE",
"47 -30 OFFCURVE",
"57 -33 CURVE SMOOTH",
"89 -42 OFFCURVE",
"113 -25 OFFCURVE",
"115 -17 CURVE",
"123 16 OFFCURVE",
"119 124 OFFCURVE",
"119 150 CURVE SMOOTH",
"119 157 OFFCURVE",
"119 190 OFFCURVE",
"120 197 CURVE",
"134 196 LINE",
"135 195 OFFCURVE",
"136 167 OFFCURVE",
"136 166 CURVE SMOOTH",
"134 131 OFFCURVE",
"138 19 OFFCURVE",
"128 -15 CURVE SMOOTH",
"125 -23 OFFCURVE",
"106 -49 OFFCURVE",
"88 -48 CURVE",
"66 -51 OFFCURVE",
"42 -52 OFFCURVE",
"34 -35 CURVE SMOOTH",
"31 -28 OFFCURVE",
"33 -4 OFFCURVE",
"32 8 CURVE SMOOTH",
"31 46 OFFCURVE",
"32 83 OFFCURVE",
"30 134 CURVE",
"30 485 LINE"
);
},
{
closed = 1;
nodes = (
"104 756 OFFCURVE",
"98 749 OFFCURVE",
"87 749 CURVE SMOOTH",
"77 749 OFFCURVE",
"71 756 OFFCURVE",
"70 767 CURVE SMOOTH",
"70 779 OFFCURVE",
"77 786 OFFCURVE",
"91 785 CURVE SMOOTH",
"102 785 OFFCURVE",
"105 781 OFFCURVE",
"105 769 CURVE SMOOTH"
);
}
);
width = 166;
}
);
unicode = 00BF;
},
{
glyphname = semicolon;
lastChange = "2013-06-15 05:10:37 +0000";
layers = (
{
layerId = "204CD004-05F3-49D2-8673-0D9320CD8B89";
name = Regular;
paths = (
{
closed = 1;
nodes = (
"71 40 OFFCURVE",
"70 37 OFFCURVE",
"53 14 CURVE SMOOTH",
"52 11 OFFCURVE",
"45 18 OFFCURVE",
"46 19 CURVE",
"57 34 OFFCURVE",
"64 42 OFFCURVE",
"66 58 CURVE",
"66 58 OFFCURVE",
"49 58 OFFCURVE",
"47 62 CURVE SMOOTH",
"43 68 OFFCURVE",
"42 102 OFFCURVE",
"47 108 CURVE SMOOTH",
"51 112 OFFCURVE",
"56 113 OFFCURVE",
"62 113 CURVE SMOOTH",
"69 113 OFFCURVE",
"75 113 OFFCURVE",
"76 111 CURVE",
"77 99 OFFCURVE",
"76 80 OFFCURVE",
"75 68 CURVE SMOOTH"
);
},
{
closed = 1;
nodes = (
"82 472 OFFCURVE",
"83 468 OFFCURVE",
"83 465 CURVE SMOOTH",
"84 456 OFFCURVE",
"88 445 OFFCURVE",
"77 440 CURVE SMOOTH",
"67 435 OFFCURVE",
"58 441 OFFCURVE",
"50 446 CURVE SMOOTH",
"28 460 OFFCURVE",
"24 482 OFFCURVE",
"40 497 CURVE SMOOTH",
"48 504 OFFCURVE",
"56 507 OFFCURVE",
"66 505 CURVE SMOOTH",
"78 501 OFFCURVE",
"81 493 OFFCURVE",
"81 483 CURVE SMOOTH",
"81 480 OFFCURVE",
"81 478 OFFCURVE",
"81 477 CURVE"
);
}
);
width = 115.002;
}
);
unicode = 003B;
},
{
glyphname = slash;
lastChange = "2013-06-10 03:41:58 +0000";
layers = (
{
layerId = "204CD004-05F3-49D2-8673-0D9320CD8B89";
name = Regular;
paths = (
{
closed = 1;
nodes = (
"50 92 OFFCURVE",
"73 248 OFFCURVE",
"85 335 CURVE SMOOTH",
"95 408 OFFCURVE",
"114 482 OFFCURVE",
"123 555 CURVE SMOOTH",
"132 625 OFFCURVE",
"159 710 OFFCURVE",
"172 777 CURVE SMOOTH",
"176 799 OFFCURVE",
"184 836 OFFCURVE",
"191 858 CURVE SMOOTH",
"192 859 OFFCURVE",
"180 864 OFFCURVE",
"180 864 CURVE",
"173 856 OFFCURVE",
"169 834 OFFCURVE",
"166 821 CURVE SMOOTH",
"131 667 OFFCURVE",
"91 485 OFFCURVE",
"68 323 CURVE SMOOTH",
"57 250 OFFCURVE",
"32 72 OFFCURVE",
"21 -1 CURVE",
"21 -1 OFFCURVE",
"42 -1 OFFCURVE",
"43 3 CURVE"
);
}
);
width = 210;
}
);
unicode = 002F;
},
{
glyphname = underscore;
lastChange = "2013-06-15 04:59:03 +0000";
layers = (
{
layerId = "204CD004-05F3-49D2-8673-0D9320CD8B89";
name = Regular;
paths = (
{
closed = 1;
nodes = (
"297 -31 OFFCURVE",
"167 -33 OFFCURVE",
"117 -32 CURVE",
"93 -34 OFFCURVE",
"73 -31 OFFCURVE",
"48 -32 CURVE SMOOTH",
"36 -32 OFFCURVE",
"33 -33 OFFCURVE",
"21 -32 CURVE SMOOTH",
"18 -32 OFFCURVE",
"15 -33 OFFCURVE",
"13 -31 CURVE",
"12 -31 OFFCURVE",
"9 -15 OFFCURVE",
"10 -15 CURVE SMOOTH",
"73 -21 OFFCURVE",
"129 -15 OFFCURVE",
"192 -15 CURVE SMOOTH",
"206 -15 OFFCURVE",
"268 -16 OFFCURVE",
"288 -17 CURVE",
"298 -17 OFFCURVE",
"302 -15 OFFCURVE",
"309 -15 CURVE",
"311 -15 OFFCURVE",
"309 -31 OFFCURVE",
"308 -31 CURVE",
"306 -31 OFFCURVE",
"304 -32 OFFCURVE",
"299 -31 CURVE"
);
}
);
width = 320;
}
);
unicode = 005F;
},
{
glyphname = braceleft;
lastChange = "2013-06-15 02:44:38 +0000";
layers = (
{
layerId = "204CD004-05F3-49D2-8673-0D9320CD8B89";
name = Regular;
paths = (
{
closed = 1;
nodes = (
"110 740 OFFCURVE",
"112 728 OFFCURVE",
"114 715 CURVE",
"115 681 OFFCURVE",
"113 559 OFFCURVE",
"114 550 CURVE",
"116 511 OFFCURVE",
"112 476 OFFCURVE",
"98 441 CURVE SMOOTH",
"95 433 OFFCURVE",
"91 425 OFFCURVE",
"87 418 CURVE SMOOTH",
"84 413 OFFCURVE",
"78 404 OFFCURVE",
"78 404 CURVE",
"78 403 OFFCURVE",
"86 398 OFFCURVE",
"92 395 CURVE SMOOTH",
"112 383 OFFCURVE",
"120 366 OFFCURVE",
"122 341 CURVE SMOOTH",
"124 314 OFFCURVE",
"124 251 OFFCURVE",
"124 224 CURVE SMOOTH",
"123 170 OFFCURVE",
"119 87 OFFCURVE",
"121 33 CURVE SMOOTH",
"122 2 OFFCURVE",
"121 -1 OFFCURVE",
"150 -11 CURVE SMOOTH",
"160 -15 OFFCURVE",
"174 -15 OFFCURVE",
"186 -18 CURVE",
"180 -31 LINE",
"157 -26 OFFCURVE",
"135 -32 OFFCURVE",
"118 -14 CURVE SMOOTH",
"108 -3 OFFCURVE",
"107 8 OFFCURVE",
"106 25 CURVE",
"106 42 OFFCURVE",
"107 56 OFFCURVE",
"106 68 CURVE",
"108 96 OFFCURVE",
"107 108 OFFCURVE",
"107 133 CURVE SMOOTH",
"106 141 OFFCURVE",
"108 198 OFFCURVE",
"108 206 CURVE",
"109 225 OFFCURVE",
"107 228 OFFCURVE",
"109 243 CURVE SMOOTH",
"111 265 OFFCURVE",
"106 322 OFFCURVE",
"106 344 CURVE SMOOTH",
"106 358 OFFCURVE",
"97 367 OFFCURVE",
"86 376 CURVE SMOOTH",
"77 383 OFFCURVE",
"60 396 OFFCURVE",
"60 400 CURVE SMOOTH",
"60 403 OFFCURVE",
"68 421 OFFCURVE",
"74 430 CURVE SMOOTH",
"94 458 OFFCURVE",
"100 551 OFFCURVE",
"100 563 CURVE SMOOTH",
"99 607 OFFCURVE",
"100 698 OFFCURVE",
"98 741 CURVE SMOOTH",
"97 760 OFFCURVE",
"98 780 OFFCURVE",
"101 799 CURVE SMOOTH",
"106 821 OFFCURVE",
"119 830 OFFCURVE",
"140 826 CURVE SMOOTH",
"147 825 OFFCURVE",
"162 825 OFFCURVE",
"168 822 CURVE SMOOTH",
"169 821 OFFCURVE",
"163 810 OFFCURVE",
"162 810 CURVE SMOOTH",
"160 810 OFFCURVE",
"150 812 OFFCURVE",
"148 813 CURVE SMOOTH",
"130 819 OFFCURVE",
"127 816 OFFCURVE",
"119 807 CURVE",
"114 800 OFFCURVE",
"112 776 OFFCURVE",
"112 771 CURVE SMOOTH",
"111 765 OFFCURVE",
"110 760 OFFCURVE",
"110 755 CURVE"
);
}
);
width = 246;
}
);
unicode = 007B;
},
{
glyphname = braceright;
lastChange = "2013-06-15 02:47:10 +0000";
layers = (
{
layerId = "204CD004-05F3-49D2-8673-0D9320CD8B89";
name = Regular;
paths = (
{
closed = 1;
nodes = (
"125 66 OFFCURVE",
"124 104 OFFCURVE",
"122 116 CURVE",
"121 151 OFFCURVE",
"121 247 OFFCURVE",
"119 257 CURVE",
"118 296 OFFCURVE",
"121 350 OFFCURVE",
"135 385 CURVE SMOOTH",
"138 393 OFFCURVE",
"142 401 OFFCURVE",
"146 409 CURVE SMOOTH",
"149 414 OFFCURVE",
"155 422 OFFCURVE",
"155 422 CURVE",
"155 423 OFFCURVE",
"147 432 OFFCURVE",
"141 436 CURVE SMOOTH",
"121 447 OFFCURVE",
"113 461 OFFCURVE",
"111 485 CURVE SMOOTH",
"109 512 OFFCURVE",
"108 556 OFFCURVE",
"108 582 CURVE SMOOTH",
"109 636 OFFCURVE",
"112 728 OFFCURVE",
"110 782 CURVE SMOOTH",
"108 812 OFFCURVE",
"110 816 OFFCURVE",
"80 826 CURVE SMOOTH",
"71 829 OFFCURVE",
"61 828 OFFCURVE",
"50 831 CURVE",
"51 845 LINE",
"73 840 OFFCURVE",
"96 846 OFFCURVE",
"112 828 CURVE SMOOTH",
"123 817 OFFCURVE",
"124 806 OFFCURVE",
"125 790 CURVE",
"124 772 OFFCURVE",
"124 759 OFFCURVE",
"125 746 CURVE",
"124 718 OFFCURVE",
"125 699 OFFCURVE",
"125 673 CURVE SMOOTH",
"125 666 OFFCURVE",
"123 609 OFFCURVE",
"124 601 CURVE",
"123 581 OFFCURVE",
"124 578 OFFCURVE",
"123 563 CURVE SMOOTH",
"121 542 OFFCURVE",
"126 504 OFFCURVE",
"127 483 CURVE SMOOTH",
"127 468 OFFCURVE",
"136 459 OFFCURVE",
"146 451 CURVE SMOOTH",
"156 443 OFFCURVE",
"173 429 OFFCURVE",
"173 425 CURVE SMOOTH",
"173 422 OFFCURVE",
"165 406 OFFCURVE",
"159 396 CURVE SMOOTH",
"139 368 OFFCURVE",
"133 256 OFFCURVE",
"134 243 CURVE SMOOTH",
"135 200 OFFCURVE",
"134 108 OFFCURVE",
"137 66 CURVE SMOOTH",
"138 46 OFFCURVE",
"137 26 OFFCURVE",
"134 7 CURVE SMOOTH",
"130 -14 OFFCURVE",
"116 -23 OFFCURVE",
"95 -20 CURVE SMOOTH",
"88 -19 OFFCURVE",
"73 -19 OFFCURVE",
"67 -16 CURVE SMOOTH",
"66 -15 OFFCURVE",
"72 -4 OFFCURVE",
"73 -4 CURVE SMOOTH",
"75 -4 OFFCURVE",
"85 -6 OFFCURVE",
"87 -7 CURVE SMOOTH",
"105 -13 OFFCURVE",
"111 -7 OFFCURVE",
"116 0 CURVE",
"121 6 OFFCURVE",
"123 30 OFFCURVE",
"123 35 CURVE SMOOTH",
"124 41 OFFCURVE",
"124 47 OFFCURVE",
"124 51 CURVE"
);
}
);
width = 223;
}
);
unicode = 007D;
},
{
glyphname = bracketleft;
lastChange = "2013-06-15 04:20:26 +0000";
layers = (
{
layerId = "204CD004-05F3-49D2-8673-0D9320CD8B89";
name = Regular;
paths = (
{
closed = 1;
nodes = (
"72 112 OFFCURVE",
"78 171 OFFCURVE",
"73 229 CURVE SMOOTH",
"73 235 OFFCURVE",
"75 241 OFFCURVE",
"75 247 CURVE SMOOTH",
"75 271 OFFCURVE",
"76 296 OFFCURVE",
"73 321 CURVE",
"72 371 OFFCURVE",
"73 394 OFFCURVE",
"76 431 CURVE SMOOTH",
"78 448 OFFCURVE",
"78 575 OFFCURVE",
"77 591 CURVE SMOOTH",
"73 668 OFFCURVE",
"78 745 OFFCURVE",
"71 822 CURVE SMOOTH",
"70 839 OFFCURVE",
"70 841 OFFCURVE",
"71 841 CURVE SMOOTH",
"76 841 OFFCURVE",
"120 842 OFFCURVE",
"125 842 CURVE SMOOTH",
"127 842 OFFCURVE",
"129 828 OFFCURVE",
"128 828 CURVE SMOOTH",
"106 827 OFFCURVE",
"87 827 OFFCURVE",
"87 825 CURVE SMOOTH",
"87 801 OFFCURVE",
"86 758 OFFCURVE",
"89 724 CURVE SMOOTH",
"90 712 OFFCURVE",
"87 699 OFFCURVE",
"88 687 CURVE SMOOTH",
"89 644 OFFCURVE",
"89 492 OFFCURVE",
"90 449 CURVE SMOOTH",
"90 421 OFFCURVE",
"87 393 OFFCURVE",
"88 366 CURVE SMOOTH",
"90 280 OFFCURVE",
"88 194 OFFCURVE",
"91 109 CURVE SMOOTH",
"93 75 OFFCURVE",
"94 42 OFFCURVE",
"97 9 CURVE SMOOTH",
"98 -4 OFFCURVE",
"95 -11 OFFCURVE",
"96 -11 CURVE SMOOTH",
"101 -11 OFFCURVE",
"134 -12 OFFCURVE",
"139 -12 CURVE",
"140 -13 OFFCURVE",
"139 -33 OFFCURVE",
"138 -33 CURVE",
"125 -32 OFFCURVE",
"82 -31 OFFCURVE",
"81 -32 CURVE SMOOTH",
"80 -32 OFFCURVE",
"80 -26 OFFCURVE",
"80 -18 CURVE SMOOTH",
"80 6 OFFCURVE",
"75 29 OFFCURVE",
"78 57 CURVE"
);
}
);
width = 209;
}
);
unicode = 005B;
},
{
glyphname = bracketright;
lastChange = "2013-06-15 04:21:08 +0000";
layers = (
{
layerId = "204CD004-05F3-49D2-8673-0D9320CD8B89";
name = Regular;
paths = (
{
closed = 1;
nodes = (
"105 860 OFFCURVE",
"109 861 OFFCURVE",
"113 860 CURVE SMOOTH",
"128 859 OFFCURVE",
"132 860 OFFCURVE",
"132 860 CURVE",
"126 827 OFFCURVE",
"127 774 OFFCURVE",
"123 742 CURVE",
"123 725 OFFCURVE",
"123 725 OFFCURVE",
"123 692 CURVE",
"123 679 OFFCURVE",
"123 663 OFFCURVE",
"124 631 CURVE SMOOTH",
"124 611 OFFCURVE",
"120 366 OFFCURVE",
"122 315 CURVE SMOOTH",
"124 267 OFFCURVE",
"123 219 OFFCURVE",
"126 171 CURVE SMOOTH",
"129 120 OFFCURVE",
"130 69 OFFCURVE",
"134 18 CURVE SMOOTH",
"135 9 OFFCURVE",
"138 -6 OFFCURVE",
"138 -15 CURVE SMOOTH",
"138 -18 OFFCURVE",
"117 -16 OFFCURVE",
"117 -16 CURVE",
"101 -14 OFFCURVE",
"87 -15 OFFCURVE",
"76 -16 CURVE",
"73 -17 OFFCURVE",
"70 2 OFFCURVE",
"70 2 CURVE",
"74 3 OFFCURVE",
"116 3 OFFCURVE",
"120 2 CURVE",
"120 2 OFFCURVE",
"119 8 OFFCURVE",
"119 19 CURVE SMOOTH",
"118 62 OFFCURVE",
"115 104 OFFCURVE",
"113 147 CURVE SMOOTH",
"109 238 OFFCURVE",
"107 329 OFFCURVE",
"110 420 CURVE SMOOTH",
"112 509 OFFCURVE",
"113 709 OFFCURVE",
"114 798 CURVE SMOOTH",
"114 808 OFFCURVE",
"119 835 OFFCURVE",
"120 845 CURVE SMOOTH",
"120 847 OFFCURVE",
"114 845 OFFCURVE",
"104 847 CURVE SMOOTH",
"101 847 OFFCURVE",
"76 847 OFFCURVE",
"74 848 CURVE SMOOTH",
"73 848 OFFCURVE",
"73 861 OFFCURVE",
"73 861 CURVE SMOOTH",
"75 861 OFFCURVE",
"102 860 OFFCURVE",
"102 860 CURVE"
);
}
);
width = 208;
}
);
unicode = 005D;
},
{
glyphname = parenleft;
lastChange = "2013-06-15 04:30:40 +0000";
layers = (
{
layerId = "204CD004-05F3-49D2-8673-0D9320CD8B89";
name = Regular;
paths = (
{
closed = 1;
nodes = (
"129 10 OFFCURVE",
"102 61 OFFCURVE",
"93 119 CURVE SMOOTH",
"90 145 OFFCURVE",
"80 169 OFFCURVE",
"74 195 CURVE SMOOTH",
"68 226 OFFCURVE",
"66 258 OFFCURVE",
"65 290 CURVE SMOOTH",
"64 312 OFFCURVE",
"62 335 OFFCURVE",
"61 357 CURVE SMOOTH",
"58 396 OFFCURVE",
"62 594 OFFCURVE",
"65 632 CURVE SMOOTH",
"69 668 OFFCURVE",
"73 703 OFFCURVE",
"81 738 CURVE SMOOTH",
"89 775 OFFCURVE",
"103 811 OFFCURVE",
"117 847 CURVE",
"129 840 LINE",
"111 800 OFFCURVE",
"97 759 OFFCURVE",
"90 716 CURVE SMOOTH",
"85 681 OFFCURVE",
"82 635 OFFCURVE",
"79 600 CURVE SMOOTH",
"75 544 OFFCURVE",
"76 338 OFFCURVE",
"83 283 CURVE SMOOTH",
"85 269 OFFCURVE",
"83 255 OFFCURVE",
"84 241 CURVE SMOOTH",
"87 205 OFFCURVE",
"99 172 OFFCURVE",
"106 137 CURVE SMOOTH",
"111 112 OFFCURVE",
"114 88 OFFCURVE",
"122 64 CURVE SMOOTH",
"130 36 OFFCURVE",
"154 -4 OFFCURVE",
"166 -31 CURVE",
"167 -32 OFFCURVE",
"164 -35 OFFCURVE",
"151 -44 CURVE"
);
}
);
width = 226;
}
);
unicode = 0028;
},
{
glyphname = parenright;
lastChange = "2013-06-15 04:31:32 +0000";
layers = (
{
layerId = "204CD004-05F3-49D2-8673-0D9320CD8B89";
name = Regular;
paths = (
{
closed = 1;
nodes = (
"67 854 OFFCURVE",
"74 854 OFFCURVE",
"74 854 CURVE",
"77 847 OFFCURVE",
"83 832 OFFCURVE",
"86 825 CURVE SMOOTH",
"112 755 OFFCURVE",
"126 672 OFFCURVE",
"141 599 CURVE SMOOTH",
"161 500 OFFCURVE",
"152 355 OFFCURVE",
"151 287 CURVE SMOOTH",
"150 223 OFFCURVE",
"132 163 OFFCURVE",
"119 101 CURVE SMOOTH",
"111 63 OFFCURVE",
"99 14 OFFCURVE",
"89 -25 CURVE",
"89 -26 OFFCURVE",
"73 -21 OFFCURVE",
"72 -20 CURVE",
"72 -13 OFFCURVE",
"73 -13 OFFCURVE",
"76 -7 CURVE",
"92 35 OFFCURVE",
"99 77 OFFCURVE",
"109 119 CURVE SMOOTH",
"119 162 OFFCURVE",
"133 206 OFFCURVE",
"134 250 CURVE",
"138 301 OFFCURVE",
"140 457 OFFCURVE",
"138 506 CURVE SMOOTH",
"137 543 OFFCURVE",
"129 589 OFFCURVE",
"124 626 CURVE SMOOTH",
"120 653 OFFCURVE",
"115 679 OFFCURVE",
"110 705 CURVE SMOOTH",
"105 736 OFFCURVE",
"92 765 OFFCURVE",
"82 794 CURVE SMOOTH",
"75 813 OFFCURVE",
"67 832 OFFCURVE",
"60 850 CURVE"
);
}
);
width = 214;
}
);
unicode = 0029;
},
{
glyphname = emdash;
lastChange = "2013-06-15 04:54:54 +0000";
layers = (
{
layerId = "204CD004-05F3-49D2-8673-0D9320CD8B89";
name = Regular;
paths = (
{
closed = 1;
nodes = (
"359 266 OFFCURVE",
"189 263 OFFCURVE",
"140 264 CURVE",
"116 263 OFFCURVE",
"71 264 OFFCURVE",
"46 264 CURVE SMOOTH",
"34 263 OFFCURVE",
"22 264 OFFCURVE",
"10 265 CURVE SMOOTH",
"7 265 OFFCURVE",
"4 264 OFFCURVE",
"1 265 CURVE",
"0 266 OFFCURVE",
"3 283 OFFCURVE",
"5 283 CURVE SMOOTH",
"67 277 OFFCURVE",
"244 280 OFFCURVE",
"308 280 CURVE SMOOTH",
"321 280 OFFCURVE",
"331 279 OFFCURVE",
"351 282 CURVE",
"360 282 OFFCURVE",
"365 282 OFFCURVE",
"372 282 CURVE",
"374 282 OFFCURVE",
"372 266 OFFCURVE",
"370 265 CURVE",
"368 266 OFFCURVE",
"366 265 OFFCURVE",
"362 265 CURVE"
);
}
);
width = 372;
}
);
unicode = 2014;
},
{
glyphname = endash;
lastChange = "2013-06-15 04:54:31 +0000";
layers = (
{
layerId = "204CD004-05F3-49D2-8673-0D9320CD8B89";
name = Regular;
paths = (
{
closed = 1;
nodes = (
"339 273 OFFCURVE",
"209 270 OFFCURVE",
"160 271 CURVE",
"135 270 OFFCURVE",
"95 272 OFFCURVE",
"71 272 CURVE SMOOTH",
"58 271 OFFCURVE",
"43 271 OFFCURVE",
"31 272 CURVE SMOOTH",
"28 272 OFFCURVE",
"25 271 OFFCURVE",
"23 272 CURVE",
"22 273 OFFCURVE",
"19 288 OFFCURVE",
"20 288 CURVE SMOOTH",
"83 282 OFFCURVE",
"171 288 OFFCURVE",
"234 288 CURVE SMOOTH",
"248 288 OFFCURVE",
"311 287 OFFCURVE",
"330 286 CURVE",
"340 287 OFFCURVE",
"344 288 OFFCURVE",
"351 288 CURVE",
"353 288 OFFCURVE",
"351 273 OFFCURVE",
"350 272 CURVE",
"348 273 OFFCURVE",
"346 272 OFFCURVE",
"341 272 CURVE"
);
}
);
width = 360;
}
);
unicode = 2013;
},
{
glyphname = hyphen;
lastChange = "2013-06-15 04:56:16 +0000";
layers = (
{
layerId = "204CD004-05F3-49D2-8673-0D9320CD8B89";
name = Regular;
paths = (
{
closed = 1;
nodes = (
"6 341 OFFCURVE",
"126 343 OFFCURVE",
"176 343 CURVE",
"200 344 OFFCURVE",
"240 341 OFFCURVE",
"265 342 CURVE SMOOTH",
"277 343 OFFCURVE",
"289 343 OFFCURVE",
"301 342 CURVE SMOOTH",
"304 342 OFFCURVE",
"309 343 OFFCURVE",
"312 341 CURVE",
"313 341 OFFCURVE",
"313 323 OFFCURVE",
"312 323 CURVE",
"248 325 OFFCURVE",
"164 323 OFFCURVE",
"101 323 CURVE SMOOTH",
"87 323 OFFCURVE",
"35 323 OFFCURVE",
"15 324 CURVE",
"5 324 OFFCURVE",
"1 322 OFFCURVE",
"-6 323 CURVE",
"-8 322 OFFCURVE",
"-6 341 OFFCURVE",
"-5 341 CURVE",
"-3 341 OFFCURVE",
"-1 342 OFFCURVE",
"4 341 CURVE"
);
}
);
width = 300;
}
);
unicode = 002D;
},
